<svg width="117" height="117" viewBox="0 0 117 117" fill="none" xmlns="http://www.w3.org/2000/svg">
<path d="M58.711 116.578C90.8692 116.578 117 90.4117 117 58.289C117 26.1662 90.8692 0 58.711 0C26.5883 0 0.422058 26.1662 0.422058 58.289C0.422058 90.4117 26.5883 116.578 58.711 116.578Z" fill="white"/>
<path d="M23.61 58.4306C23.61 39.2491 39.175 23.6841 58.3565 23.6841C77.5379 23.6841 93.1029 39.2491 93.1029 58.4306C93.1029 77.612 77.5379 93.177 58.3565 93.177C39.175 93.177 23.61 77.612 23.61 58.4306Z" fill="#F8AA3E"/>
<path d="M24.6382 58.4309C24.6382 39.8522 39.7777 24.7127 58.3565 24.7127C76.9352 24.7127 92.0747 39.8522 92.0747 58.4309C92.0747 77.0096 76.9352 92.1492 58.3565 92.1492C39.7423 92.1492 24.6382 77.0096 24.6382 58.4309ZM58.3565 94.2056C78.0698 94.2056 94.1311 78.1442 94.1311 58.4309C94.1311 38.7176 78.0698 22.6562 58.3565 22.6562C38.6432 22.6562 22.5818 38.7176 22.5818 58.4309C22.5818 78.1442 38.6077 94.2056 58.3565 94.2056Z" fill="#5C443C"/>
<path d="M25.9855 58.4307C25.9855 40.5611 40.4514 26.0952 58.321 26.0952C76.1906 26.0952 90.6565 40.5611 90.6565 58.4307C90.6565 76.3003 76.1906 90.7662 58.321 90.7662C40.4514 90.7662 25.9855 76.3003 25.9855 58.4307Z" fill="#F8AA3E"/>
<path d="M26.3401 58.4308C26.3401 40.7739 40.6996 26.4144 58.3565 26.4144C76.0134 26.4144 90.3729 40.7739 90.3729 58.4308C90.3729 76.0876 76.0134 90.4472 58.3565 90.4472C40.6996 90.4472 26.3401 76.0876 26.3401 58.4308ZM58.3565 91.1208C76.3679 91.1208 91.0465 76.4422 91.0465 58.4308C91.0465 40.4193 76.3679 25.7407 58.3565 25.7407C40.3451 25.7407 25.6664 40.4193 25.6664 58.4308C25.6664 76.4422 40.3096 91.1208 58.3565 91.1208Z" fill="#5C443C"/>
<path d="M22.6173 68.3934C21.9791 70.1662 20.9509 71.7263 19.6035 73.0736C18.0435 74.5982 16.4125 75.4136 14.6752 75.52C13.1152 75.5909 11.5551 75.13 10.066 74.1018C8.11593 72.7545 6.76862 71.3362 5.9886 69.8826C5.13766 68.2871 5.27948 66.4079 6.34315 64.2097C7.51319 61.8696 8.68322 60.0968 9.78234 58.9268C11.2006 57.4377 12.8315 56.5867 14.7107 56.3385C16.6962 56.0549 18.469 56.5867 19.9226 57.8631C19.9581 57.8986 19.9935 57.934 20.0645 58.0049L20.2063 58.1468C20.3481 58.2531 20.4545 58.3595 20.5608 58.4659C20.809 58.7495 20.9509 58.9977 20.9863 59.2104C20.9863 59.3523 20.8445 59.3523 20.5608 59.175C20.4545 59.1395 20.3481 59.0686 20.2417 58.9622C20.2063 58.9268 20.1708 58.8913 20.1354 58.8559L20.0645 58.8204C19.4972 58.324 18.6817 58.0759 17.618 58.1113C16.7671 58.1468 15.9162 58.324 15.0298 58.6431C13.5052 59.2459 12.2997 60.0968 11.3778 61.2669C10.3496 62.5433 9.46324 63.9615 8.64776 65.4506C8.15139 66.3725 7.83229 67.117 7.65501 67.7552C7.37136 68.6771 7.33591 69.4926 7.47773 70.2371C7.65501 70.9817 8.00956 71.5844 8.5414 72.1517C9.03777 72.6481 9.64052 73.0381 10.3851 73.2863C11.0942 73.5345 11.8033 73.6409 12.5833 73.6409C13.3634 73.6054 14.0725 73.4636 14.7461 73.1799C16.0225 72.6126 17.228 71.6908 18.2917 70.4499C19.3199 69.2798 20.0999 67.968 20.5963 66.6207C20.5963 66.5852 20.7381 66.6561 20.9509 66.7625C21.199 66.9043 21.4472 67.0816 21.6954 67.2589C21.9791 67.507 22.2273 67.6843 22.3691 67.897C22.6173 68.0389 22.6882 68.2516 22.6173 68.3934Z" fill="#F8AA3E"/>
<path d="M28.5383 80.2713C29.3893 81.0867 30.0275 82.044 30.4529 83.1077C30.843 84.1359 31.0202 85.1996 30.9848 86.2987C30.9139 87.3978 30.6657 88.4615 30.1693 89.4542C29.6729 90.4825 28.9638 91.3688 28.042 92.078C26.2692 93.3898 24.1773 93.9217 21.6954 93.7089C19.2844 93.4607 17.2635 92.5743 15.6325 91.0498C14.7816 90.2697 14.1788 89.3124 13.7534 88.2488C13.3634 87.2205 13.1506 86.1214 13.1861 85.0223C13.2215 83.8877 13.5052 82.8595 14.0016 81.8668C14.5334 80.8385 15.2425 79.9876 16.1643 79.2785C17.9371 77.9666 20.029 77.4348 22.5109 77.6475C24.8864 77.8603 26.9074 78.7467 28.5383 80.2713ZM20.7027 92.6098C22.3691 92.6807 23.9291 92.1843 25.3828 91.0852C26.7301 89.9861 27.581 88.5679 27.9711 86.8305C28.3611 85.0223 28.1129 83.3559 27.2265 81.8313C26.7656 80.9804 26.1983 80.3067 25.5955 79.7749C24.851 79.1012 24.0709 78.7467 23.2555 78.6757C21.4827 78.6048 19.9226 79.1012 18.5753 80.2003C17.228 81.2995 16.3771 82.7177 15.9871 84.455C15.5971 86.2632 15.8452 87.9297 16.7316 89.4542C17.228 90.3052 17.7598 90.9788 18.3626 91.5461C19.1426 92.2198 19.9226 92.5743 20.7027 92.6098Z" fill="#F8AA3E"/>
<path d="M35.8777 104.948C36.0195 105.019 35.9131 105.126 35.5586 105.232C35.4522 105.267 35.3458 105.303 35.1685 105.338C35.1331 105.338 35.0622 105.374 35.0267 105.374H34.9913H34.9558H34.8494H34.7431L34.5303 105.409C34.3531 105.445 34.2112 105.445 34.0694 105.445C33.7149 105.48 33.4312 105.409 33.2185 105.303L26.8365 101.509L33.3958 90.447C33.6085 90.0925 33.6794 89.6316 33.573 89.0997C33.5021 88.7097 33.2894 88.3197 32.8639 87.9652C32.7576 87.8588 33.1121 87.717 33.9631 87.5751C34.814 87.4333 35.3104 87.4333 35.4522 87.5397C36.1968 88.2133 36.374 88.9934 36.0904 89.8798C35.984 90.1989 35.7713 90.6243 35.4876 91.0498L29.4602 101.155L35.8777 104.948Z" fill="#F8AA3E"/>
<path d="M57.2927 99.8077C57.7536 103.531 57.6473 107.112 56.9381 110.48C56.9381 110.764 56.5481 111.118 55.8036 111.508C55.5199 111.65 55.2717 111.756 55.0235 111.863C54.7753 111.934 54.5981 111.934 54.4917 111.863C54.8817 108.743 55.1299 106.367 55.2717 104.701C55.4136 103.034 55.2363 101.439 54.7754 99.8786C54.4563 98.815 53.9953 97.964 53.3571 97.3258C52.6126 96.5458 51.7262 96.1913 50.698 96.2267C49.6697 96.2622 48.7124 96.7585 47.8615 97.6804C47.1524 98.425 46.5851 99.3468 46.1242 100.481C46.1242 100.517 46.0887 100.588 46.0533 100.623L45.9115 109.983C45.9115 110.267 45.5214 110.622 44.7769 111.012C44.4932 111.154 44.245 111.26 43.9969 111.366C43.7487 111.437 43.6423 111.437 43.6423 111.366L43.855 98.425C43.8196 97.6804 43.6778 97.1486 43.4296 96.8649C43.1814 96.5458 42.7914 96.3331 42.2595 96.2267C42.1177 96.1913 42.1532 96.0494 42.3659 95.8012C42.4368 95.7303 42.5432 95.624 42.6495 95.5176C42.685 95.4821 42.7205 95.4467 42.7559 95.4112L42.7914 95.3758L42.8268 95.3403L42.8977 95.3049L42.9686 95.234C43.0396 95.1985 43.075 95.163 43.1459 95.0921C43.2877 94.9858 43.4296 94.8794 43.5359 94.8085C43.8905 94.5958 44.1387 94.4894 44.3514 94.5248C44.9187 94.6667 45.3087 94.8439 45.5924 95.1276C45.9115 95.4112 46.0887 95.8367 46.1242 96.3685C46.1596 96.8295 46.1951 97.5386 46.1596 98.425C47.7906 96.5458 49.4925 95.3049 51.1589 94.7376C53.2153 94.0285 54.8463 94.5248 56.0518 96.1913C56.4772 96.794 56.7963 97.5386 57.08 98.3895C57.6827 97.6804 58.3564 97.0422 59.1009 96.5104C60.6255 95.3758 62.1856 94.7376 63.7456 94.6312C65.5184 94.5248 67.043 95.0921 68.3548 96.3685C69.5958 97.574 70.234 99.1341 70.234 100.978C70.2694 102.786 69.7022 104.381 68.603 105.764C67.3621 107.324 65.7666 108.601 63.852 109.629L70.3758 109.735C70.5176 109.735 70.3404 110.019 69.8085 110.551C69.2767 111.083 68.7803 111.366 68.3548 111.366L59.3137 111.224C58.5691 111.224 58.6046 110.834 59.42 110.161C59.7391 109.948 60.0228 109.806 60.271 109.771L60.9446 109.664C61.051 109.629 61.1928 109.593 61.2637 109.593C64.5256 108.955 66.5466 107.537 67.433 105.339C67.9294 104.098 68.1066 102.857 67.9648 101.581C67.7875 100.198 67.2557 99.0632 66.3693 98.1768C65.412 97.2549 64.3129 96.6167 63.001 96.3331C61.5119 95.9785 59.9873 96.6522 58.3918 98.354C57.9309 98.815 57.5763 99.2759 57.2927 99.8077Z" fill="#F8AA3E"/>
<path d="M94.5566 97.3963L94.7339 97.29L94.9111 97.1836H94.9466L94.982 97.1481C95.0175 97.1127 95.0529 97.1127 95.0529 97.1481C95.0529 97.1836 95.053 97.2191 95.0175 97.2545L94.982 97.29L94.9466 97.3254C94.3084 98.1054 93.5638 98.6727 92.7129 99.0273C91.791 99.4173 90.8692 99.5237 89.9473 99.3464C89.4864 99.24 88.99 99.0982 88.4582 98.9209C87.5009 102.076 85.9054 104.275 83.6363 105.48C81.7926 106.438 79.9489 106.863 78.0343 106.721C77.9634 106.65 77.9279 106.579 77.9634 106.473L77.6088 93.2126C76.9352 92.8935 76.3324 92.6098 75.8006 92.4326C74.666 92.078 73.7796 91.9362 73.1059 92.078C72.7868 92.1489 72.3968 92.3262 71.9714 92.6098L71.4395 92.9644C71.2268 93.1062 71.0495 93.2126 70.9077 93.2835C70.9077 93.2835 70.8722 93.3189 70.8368 93.3189C70.8013 93.3189 70.7659 93.3544 70.7304 93.3898C70.6241 93.4253 70.5177 93.4608 70.4468 93.4962C70.1986 93.5671 70.1631 93.5317 70.3404 93.3189C70.7304 92.8935 71.2268 92.4326 71.8295 91.9362C72.8223 91.1562 73.9214 90.6598 75.1624 90.4825C76.4388 90.3052 77.6088 90.4825 78.7434 91.0143H78.7788C78.8143 91.0143 78.8498 91.0498 78.8852 91.0498C78.9916 91.0852 79.0979 91.1562 79.2398 91.1916C79.6298 91.3689 80.0198 91.5462 80.3743 91.7234C81.5444 92.2907 82.3953 92.7162 82.9626 93.0707L83.9908 93.638L85.019 94.2408L85.8345 94.7017L86.65 95.1626C87.2882 95.5526 87.8555 95.8717 88.3164 96.0845C89.5928 96.7581 90.7628 97.219 91.8265 97.4672C92.3938 97.6091 92.8902 97.68 93.2093 97.68C93.4929 97.7154 93.7766 97.68 94.0247 97.5736C94.1311 97.6091 94.3438 97.5382 94.5566 97.3963ZM85.5154 102.112C86.6854 101.19 87.4655 100.056 87.82 98.6727C86.7918 98.2827 85.5154 97.6091 83.9554 96.7227L82.8208 96.049L81.6862 95.3754C80.7644 94.8435 79.9843 94.4181 79.3816 94.0635L78.8852 93.7799L79.1334 103.211L79.1689 103.956H79.2398C80.0552 103.991 80.8353 103.92 81.6507 103.743C83.1753 103.495 84.4517 102.927 85.5154 102.112Z" fill="#F8AA3E"/>
<path d="M108.632 74.7046L108.739 74.5273L108.845 74.3501V74.3146L108.881 74.2791C108.916 74.2437 108.916 74.2082 108.952 74.2437C108.952 74.2437 108.987 74.3146 108.952 74.3501V74.421V74.4564V74.4919C108.774 75.4846 108.384 76.3356 107.817 77.0801C107.214 77.8602 106.47 78.4274 105.548 78.6756C105.087 78.8175 104.591 78.9238 104.059 79.0302C104.768 82.2567 104.413 84.9513 102.995 87.0786C101.86 88.8159 100.442 90.0923 98.7049 90.8724C98.5986 90.8724 98.5631 90.8015 98.5276 90.6951L91.7911 79.2429C91.0465 79.2784 90.3729 79.3493 89.841 79.4557C88.671 79.6684 87.8555 79.9875 87.3237 80.4484C87.0755 80.6612 86.8273 81.0157 86.5791 81.4412L86.2955 82.0085C86.1891 82.2212 86.0827 82.3985 85.9764 82.5403C85.9764 82.5403 85.9764 82.5757 85.9409 82.6112C85.9055 82.6467 85.9055 82.6821 85.87 82.7176C85.7991 82.8239 85.7282 82.8949 85.6573 82.9303C85.48 83.1076 85.4091 83.0721 85.48 82.8239C85.6218 82.2567 85.8346 81.6185 86.1182 80.9093C86.6146 79.7393 87.3591 78.782 88.3519 78.0374C89.3801 77.2574 90.5147 76.8319 91.7556 76.761H91.7911C91.8265 76.761 91.862 76.761 91.8974 76.761C92.0038 76.761 92.1456 76.761 92.252 76.7256C92.6775 76.6901 93.1029 76.6901 93.4929 76.6547C94.7694 76.5838 95.7621 76.5483 96.4003 76.5838H97.5703L98.7404 76.6192L99.6977 76.6547L100.655 76.6901C101.4 76.7256 102.038 76.7256 102.57 76.6901C104.023 76.6547 105.264 76.5128 106.328 76.2292C106.895 76.0874 107.356 75.9101 107.64 75.7683C107.923 75.6619 108.136 75.4846 108.313 75.2719C108.384 75.0946 108.491 74.9173 108.632 74.7046ZM102.995 83.214C103.562 81.8312 103.704 80.4484 103.35 79.0656C102.25 79.2075 100.832 79.2784 99.024 79.2429L97.7122 79.2075L96.4003 79.172C95.3366 79.1366 94.4503 79.1366 93.7411 79.1366H93.1739L97.9604 87.2913L98.3504 87.9295L98.4213 87.8941C99.1304 87.5395 99.804 87.0786 100.442 86.5468C101.612 85.554 102.463 84.4194 102.995 83.214Z" fill="#F8AA3E"/>
<path d="M104.342 64.9545L99.5204 58.8916C99.2013 58.537 98.8822 58.2179 98.5985 58.0052C97.7831 57.367 97.074 57.1543 96.4003 57.4025C96.1167 57.5088 95.9039 57.6861 95.7267 57.9343C95.6557 58.0407 95.5848 58.147 95.5139 58.3243L95.4075 58.537L95.3012 58.7143C94.3439 57.9343 93.8475 57.1897 93.7766 56.4806L93.883 56.2324L94.0248 55.9842C94.1311 55.8069 94.2021 55.6651 94.3084 55.5588C94.5566 55.2751 94.8403 55.0978 95.1948 55.0624C95.9748 54.9915 96.6485 55.1687 97.2158 55.5942C97.7831 56.0197 99.3077 57.6861 101.719 60.5225C101.931 59.4589 102.321 58.537 102.96 57.7925C103.669 56.9415 104.52 56.4451 105.512 56.197L107.533 55.736C107.994 55.6297 108.349 55.5233 108.632 55.3815C109.413 54.9915 109.732 54.4596 109.519 53.6796C109.448 53.4314 109.519 53.396 109.732 53.5023C109.803 53.5378 109.873 53.6087 109.98 53.6796C110.015 53.7151 110.051 53.7151 110.086 53.7505L110.157 53.8214C110.653 54.3887 110.973 54.9206 111.114 55.4169C111.327 56.2679 111.114 56.9415 110.476 57.4025C110.193 57.5797 109.873 57.7216 109.448 57.8634C109.164 57.9697 108.774 58.0406 108.278 58.147C106.612 58.5016 105.406 59.0689 104.697 59.8843C104.023 60.6289 103.562 61.5508 103.385 62.579L105.193 64.9545L108.881 65.0609C109.164 65.0609 109.483 65.4509 109.873 66.16C110.015 66.4436 110.122 66.8336 110.193 67.2946L97.003 66.8691C96.4358 66.8691 96.0103 67.0109 95.7267 67.2591C95.4076 67.5073 95.1948 67.8973 95.053 68.4291C95.0175 68.571 94.7339 68.3228 94.2021 67.6491C93.6702 66.9755 93.422 66.55 93.4575 66.3373C93.5993 65.8054 93.812 65.38 94.0957 65.0963C94.3793 64.8127 94.8403 64.6354 95.3721 64.5999L104.342 64.9545Z" fill="#F8AA3E"/>
<path fill-rule="evenodd" clip-rule="evenodd" d="M53.8536 32.1943C54.4564 33.1871 56.0519 33.8253 55.2718 35.6335C54.7045 35.2081 54.35 34.5699 54.0663 33.7898C53.9954 34.4635 54.1373 35.3144 54.4209 35.7754C52.7545 35.5272 52.8609 33.1162 53.8536 32.1943Z" fill="#32513A"/>
<path fill-rule="evenodd" clip-rule="evenodd" d="M51.0172 35.0302C50.4144 35.5266 50.2017 36.4129 49.5635 36.803C48.5707 35.0302 50.9463 34.8529 51.1235 33.3638C52.1517 34.5693 52.0808 37.3348 50.0244 37.3348C50.5208 36.803 50.8753 36.0229 51.0172 35.0302Z" fill="#32513A"/>
<path fill-rule="evenodd" clip-rule="evenodd" d="M47.2943 34.002C47.7907 34.4629 48.2871 35.3138 48.2162 36.2002C48.1452 37.0866 47.4361 37.4766 46.6561 37.7248C46.7625 37.3348 47.117 36.8029 47.117 36.1647C46.6916 36.5193 46.5852 37.1575 46.1243 37.4411C45.8761 36.6966 45.6988 36.1293 46.0888 35.5265C46.4434 34.9238 47.3298 34.8883 47.2943 34.002Z" fill="#32513A"/>
<path fill-rule="evenodd" clip-rule="evenodd" d="M72.9996 34.002C73.106 34.9238 74.3469 35.1365 74.5242 36.0584C74.6306 36.5902 74.3824 37.0157 74.2406 37.5121C73.8506 37.122 73.5669 36.6257 73.2833 36.1293C73.1769 36.6966 73.4605 37.2993 73.7442 37.6539C71.8296 37.7957 71.865 35.0302 72.9996 34.002Z" fill="#32513A"/>
<path fill-rule="evenodd" clip-rule="evenodd" d="M61.4766 34.6404C60.6611 34.5694 60.0229 34.9595 59.7747 35.5977C60.1648 35.2431 61.0157 34.7822 61.5475 35.2786C61.2993 35.7395 61.0511 36.2004 60.5902 36.4131C59.7747 36.4131 58.8884 36.3068 58.4274 36.555C58.5693 35.1013 59.952 33.6121 61.4766 34.6404Z" fill="#32513A"/>
<path fill-rule="evenodd" clip-rule="evenodd" d="M66.2632 38.044C65.4122 36.5549 67.1141 35.7039 67.9296 35.0303C68.6387 36.2003 68.4614 38.5758 66.7241 38.2922C67.0432 37.9731 67.3977 37.3349 67.1496 36.7321C66.9368 37.264 66.6177 37.6894 66.2632 38.044Z" fill="#32513A"/>
<path fill-rule="evenodd" clip-rule="evenodd" d="M77.7862 35.9878C77.6443 36.8387 78.7435 37.406 78.8853 38.186C79.0271 38.8951 78.708 39.2852 78.3889 39.7461C78.1053 39.2142 77.9634 38.5406 77.7152 38.0088C77.5734 38.6824 77.8216 39.3915 77.928 39.9234C76.1552 39.3915 76.687 36.9096 77.7862 35.9878Z" fill="#32513A"/>
<path fill-rule="evenodd" clip-rule="evenodd" d="M42.1887 36.2001C42.1887 36.1292 42.2597 36.1646 42.3306 36.1646C43.2879 36.9801 43.997 39.3911 42.2951 40.0293C42.5078 39.462 42.5433 38.682 42.6142 37.9729C42.2242 38.5047 42.1178 39.3556 41.7987 39.9584C41.4087 39.5684 41.0187 39.072 41.2669 38.2565C41.4796 37.441 42.6142 36.9092 42.1887 36.2001Z" fill="#32513A"/>
<path fill-rule="evenodd" clip-rule="evenodd" d="M53.2154 37.2642C53.3927 37.3705 53.5345 37.4769 53.6409 37.6896C53.4281 37.5833 53.2508 37.4769 53.2154 37.2642Z" fill="#32513A"/>
<path fill-rule="evenodd" clip-rule="evenodd" d="M80.339 39.4268C79.7362 39.675 79.5235 40.3487 79.1335 40.845C78.5307 39.1786 79.7362 38.0086 81.3317 37.9731C81.0126 38.3632 81.2608 39.1786 81.1899 39.8168C81.0835 40.6678 80.5871 40.8805 79.7717 41.1287C79.7007 40.455 80.1262 39.9587 80.339 39.4268Z" fill="#32513A"/>
<path fill-rule="evenodd" clip-rule="evenodd" d="M38.8914 38.0083C40.3806 38.1501 41.657 39.1429 41.0897 40.8802C40.806 40.2775 40.4515 39.7456 39.9551 39.3556C40.0969 40.0293 40.5224 40.3838 40.5578 41.1993C39.7778 40.9511 39.1751 40.8093 39.0332 39.9938C38.9269 39.462 39.1751 38.4692 38.8914 38.0083Z" fill="#32513A"/>
<path fill-rule="evenodd" clip-rule="evenodd" d="M49.2444 40.4907C47.968 41.3062 46.7271 40.1007 46.7271 38.7534C47.8971 38.8243 49.2444 38.718 49.4217 39.888C48.6062 40.0653 48.1453 39.6398 47.6844 39.3207C47.7907 40.1362 48.5353 40.4553 49.2444 40.4907Z" fill="#32513A"/>
<path fill-rule="evenodd" clip-rule="evenodd" d="M60.4484 39.7812C60.3066 39.3912 59.7748 39.0366 59.3138 38.8594C60.413 38.363 61.3348 39.3203 61.4057 40.1003C60.3775 40.5612 58.9947 40.4194 58.8529 39.2848C59.4557 39.3557 59.9166 39.6039 60.4484 39.7812Z" fill="#32513A"/>
<path fill-rule="evenodd" clip-rule="evenodd" d="M72.8578 39.4619C72.5032 39.6392 71.7232 40.3129 71.0141 39.8874C71.1559 39.5683 71.2623 39.2847 71.5105 39.1074C72.0778 38.6819 72.9996 39.1074 73.6733 38.8237C73.9215 40.0647 72.5032 41.3411 71.1914 40.5965C72.1132 40.5965 72.716 40.242 72.8578 39.4619Z" fill="#32513A"/>
<path fill-rule="evenodd" clip-rule="evenodd" d="M52.9318 39.2849C52.6836 39.5686 52.3999 39.7813 52.2581 40.1713C52.6836 40.0295 53.0027 39.7458 53.5345 39.6749C53.6054 40.6322 52.7899 41.0577 51.939 40.774C51.8326 40.8095 51.6199 40.8095 51.5844 40.9159C51.4781 39.994 51.939 39.2495 52.9318 39.2849Z" fill="#32513A"/>
<path fill-rule="evenodd" clip-rule="evenodd" d="M44.1742 40.2065C44.6351 40.7738 45.3797 41.2348 45.1315 42.3693C44.6351 42.1211 44.4579 41.5893 44.1388 41.1638C43.926 41.6602 44.316 42.1921 44.4579 42.6175C43.2524 42.5821 43.4297 40.632 44.1742 40.2065Z" fill="#32513A"/>
<path fill-rule="evenodd" clip-rule="evenodd" d="M74.4888 42.6176C74.2406 42.8658 73.7087 42.8303 73.4251 43.0431C72.1842 42.2276 69.6668 41.6958 68.0359 42.4758C67.6458 42.1567 67.3977 41.6958 67.0786 41.2703C68.3195 40.9512 69.7023 40.703 71.0496 40.9512C72.4678 41.2348 73.6378 41.9794 74.4888 42.6176Z" fill="#32513A"/>
<path fill-rule="evenodd" clip-rule="evenodd" d="M84.1327 42.547C83.4945 42.7243 82.8208 43.2916 81.899 43.3271C82.1117 42.547 82.3599 42.0507 82.9981 41.8025C83.6009 41.5897 84.4163 41.8734 85.0545 41.6606C85.09 43.3625 83.7072 44.8162 82.0763 43.8589C82.9627 43.6107 83.6009 43.1498 84.1327 42.547Z" fill="#32513A"/>
<path fill-rule="evenodd" clip-rule="evenodd" d="M62.3629 44.1782C61.7247 43.54 61.122 42.8309 60.3065 42.3345C60.5193 42.0508 60.9447 41.9445 61.2284 41.6963C61.6893 41.8027 62.4339 42.5472 62.8239 42.9018C62.9302 43.0081 63.3202 43.1854 63.3202 43.2563C63.3202 43.3982 62.9302 43.6109 62.8239 43.7173C62.6111 43.8945 62.5048 44.0364 62.3629 44.1782Z" fill="#32513A"/>
<path fill-rule="evenodd" clip-rule="evenodd" d="M59.8811 42.6177C61.0866 43.0786 61.1221 45.7378 59.5975 45.7023C59.562 44.9577 59.8102 44.4614 59.952 43.9295C59.562 44.1423 59.1366 44.745 59.0656 45.4541C58.8175 45.1705 58.7465 44.745 58.782 44.3905C58.9593 43.6104 59.8457 43.3622 59.8811 42.6177Z" fill="#32513A"/>
<path fill-rule="evenodd" clip-rule="evenodd" d="M66.7595 43.5752C66.7595 44.2134 67.2913 44.7098 67.2204 45.3125C67.1495 45.8444 66.7595 46.0571 66.4049 46.4116C66.2631 45.8444 66.5822 45.348 66.5822 44.7452C66.2631 44.9934 65.8731 45.4898 65.8376 46.1635C64.9867 45.2771 65.8022 43.8234 66.7595 43.5752Z" fill="#32513A"/>
<path fill-rule="evenodd" clip-rule="evenodd" d="M53.4282 43.7876C54.2436 44.0712 55.2009 45.2058 54.4209 46.1986C54.2436 45.6313 54.1018 45.0285 53.6054 44.7804C53.7118 45.3476 53.9245 45.8086 53.8891 46.5177C53.5345 46.234 53.1445 46.0568 53.0736 45.5958C52.9318 44.9222 53.5345 44.3549 53.4282 43.7876Z" fill="#32513A"/>
<path fill-rule="evenodd" clip-rule="evenodd" d="M75.5525 45.667C76.4389 46.6952 76.0489 48.9644 74.737 49.0707C74.737 48.6807 74.9497 48.1489 75.0561 47.7589C74.6661 47.9362 74.4888 48.3616 74.2761 48.7162C73.6733 47.5107 74.4888 46.4116 75.3752 46.0925C75.4107 45.9152 75.5525 45.8443 75.5525 45.667Z" fill="#32513A"/>
<path fill-rule="evenodd" clip-rule="evenodd" d="M48.0389 47.227C47.2944 47.227 46.7625 47.8652 46.3725 48.4325C46.0889 46.8724 47.5425 46.1633 49.0317 46.5179C48.7126 47.7588 48.4289 49.0352 46.8334 48.9998C47.1171 48.2552 47.6135 47.7588 48.0389 47.227Z" fill="#32513A"/>
<path fill-rule="evenodd" clip-rule="evenodd" d="M55.2009 50.5244C54.35 48.6098 56.69 48.468 56.9028 47.0498C57.4346 47.9007 57.8246 49.9926 56.761 50.6308C56.4419 50.8081 56.0873 50.7726 55.6264 50.9145C55.5909 50.7372 55.8391 50.4181 55.9809 50.1699C56.1582 49.8862 56.3355 49.6026 56.4773 49.3899C56.0164 49.4608 55.52 50.2053 55.2009 50.5244Z" fill="#32513A"/>
<path fill-rule="evenodd" clip-rule="evenodd" d="M42.827 47.9717C42.8624 48.8226 42.9334 49.6381 43.2525 50.2054C43.3234 49.4254 43.3234 48.5744 43.5361 47.9717C44.0679 48.5035 44.5289 49.2481 44.2807 50.2763C44.1743 50.7018 43.6779 51.0563 43.7843 51.5527C43.1815 51.2336 42.3661 50.7727 42.2242 49.9926C42.047 49.1417 42.4724 48.539 42.827 47.9717Z" fill="#32513A"/>
<path fill-rule="evenodd" clip-rule="evenodd" d="M41.5506 48.3613C41.6215 48.3613 41.6215 48.3613 41.6569 48.3968C41.6215 49.3186 42.2242 50.0277 42.0824 50.9141C41.976 51.5169 41.586 51.9778 41.0896 52.2969C40.9478 51.5523 41.1605 50.7723 41.2669 50.1341C40.806 50.595 40.5223 51.2332 40.5933 52.1905C39.2105 51.056 40.3096 48.8577 41.5506 48.3613Z" fill="#32513A"/>
<path fill-rule="evenodd" clip-rule="evenodd" d="M78.6371 48.397C80.0199 48.6806 80.9772 50.8434 79.878 52.1907C79.7008 51.3752 79.5589 50.5243 79.0626 50.0279C79.2044 50.7016 79.4526 51.588 79.2398 52.3325C78.6371 51.8362 78.1053 51.2334 78.2471 50.2407C78.2825 49.6025 78.8144 48.9643 78.6371 48.397Z" fill="#32513A"/>
<path fill-rule="evenodd" clip-rule="evenodd" d="M51.2299 48.8577C51.3008 48.7514 51.2654 49.1768 51.2654 49.2832C51.1945 49.3896 51.2299 48.9641 51.2299 48.8577Z" fill="#32513A"/>
<path fill-rule="evenodd" clip-rule="evenodd" d="M33.3249 49.7796C32.8285 50.0278 32.0485 49.9923 31.3394 50.0632C31.7648 50.3823 32.5448 50.3469 33.2185 50.4178C32.8285 50.6305 32.6158 51.056 32.1548 51.1624C31.233 51.3751 30.3111 50.5242 29.602 51.0205C29.5666 50.3114 30.0984 49.7087 30.4884 49.2478C31.4103 48.5032 32.7221 49.035 33.3249 49.7796Z" fill="#32513A"/>
<path fill-rule="evenodd" clip-rule="evenodd" d="M72.7515 51.1628C72.3614 50.4891 71.6878 50.0637 70.5887 50.0637C70.7659 49.8509 70.9078 49.6382 71.156 49.4964C72.5742 48.7873 73.7088 50.4537 73.9215 51.5528C73.7442 51.4819 73.5315 51.4464 73.3542 51.3401C72.2551 51.9428 71.0851 51.5174 70.5178 50.7373C71.3332 50.4537 72.2196 50.8792 72.7515 51.1628Z" fill="#32513A"/>
<path fill-rule="evenodd" clip-rule="evenodd" d="M50.0244 50.7371C49.5635 51.0917 49.209 51.6235 48.5708 51.6944C47.8971 51.7653 47.188 51.0208 46.5143 51.4817C46.4789 50.0635 48.7126 48.6098 49.7763 50.0635C48.7126 50.028 48.0389 50.418 47.578 51.0208C48.1453 50.879 49.138 50.4535 50.0244 50.7371Z" fill="#32513A"/>
<path fill-rule="evenodd" clip-rule="evenodd" d="M63.5685 50.6309C62.8239 50.8437 62.2566 51.6237 61.7957 52.2264C61.4057 50.3473 62.8948 49.7091 64.4549 49.7446C64.4194 49.8509 64.3839 50.0282 64.2421 50.17C64.1712 51.5528 63.7457 52.5455 62.3275 52.5455C62.5048 51.7301 63.1075 51.2691 63.5685 50.6309Z" fill="#32513A"/>
<path fill-rule="evenodd" clip-rule="evenodd" d="M34.6367 51.5531C34.7076 51.4467 34.6722 51.8722 34.6722 51.9785C34.6013 52.0849 34.6722 51.6594 34.6367 51.5531Z" fill="#32513A"/>
<path fill-rule="evenodd" clip-rule="evenodd" d="M78.5662 51.8364C78.4599 53.3256 76.758 54.7083 75.3752 53.6801C75.8007 53.2192 76.368 52.9355 76.9707 52.6874C76.2261 52.5101 75.6589 52.8646 75.1979 53.1128C75.4461 52.6873 75.4816 52.2619 75.8361 52.0137C76.5453 51.4464 77.5735 51.9428 78.5662 51.8364Z" fill="#32513A"/>
<path fill-rule="evenodd" clip-rule="evenodd" d="M72.5388 51.8364C73.2124 53.0065 73.3897 55.2047 71.7942 55.4883C71.7587 55.2047 72.2197 54.8856 72.2906 54.3892C72.326 54.0701 72.2551 53.7865 72.1842 53.4319C71.9715 54.1765 71.7942 54.8856 71.1206 55.1692C70.5887 53.3256 71.936 52.8292 72.5388 51.8364Z" fill="#32513A"/>
<path fill-rule="evenodd" clip-rule="evenodd" d="M63.4267 53.2541C62.9303 53.2187 62.4339 53.8214 62.1503 53.9987C61.973 52.545 63.6749 52.155 65.1286 52.4741C64.3131 52.9705 64.5613 54.4951 63.4621 54.6723C63.1076 54.7078 62.8239 54.566 62.4694 54.6723C62.5403 54.1405 63.1076 53.715 63.4267 53.2541Z" fill="#32513A"/>
<path fill-rule="evenodd" clip-rule="evenodd" d="M44.6706 52.9356C44.2806 52.8647 43.9969 52.6874 43.5715 52.6519C43.7842 52.8647 44.2097 52.9001 44.387 53.2192C43.9615 53.0774 43.6778 52.8292 43.2524 52.6519C43.7488 52.5456 44.4224 52.6874 44.6706 52.9356Z" fill="#32513A"/>
<path fill-rule="evenodd" clip-rule="evenodd" d="M48.9253 55.1338C48.4999 54.9211 48.2871 54.4602 48.1453 53.9283C47.968 54.4247 48.2872 54.7792 48.3581 55.1338C47.9326 54.8147 47.8617 53.9992 48.0744 53.3965C48.2162 54.1411 48.4999 54.7083 48.9253 55.1338Z" fill="#32513A"/>
<path fill-rule="evenodd" clip-rule="evenodd" d="M31.4457 56.3749C31.1266 56.6585 30.5238 56.6585 29.9211 56.6585C30.2047 56.9067 30.8429 57.0485 31.3393 56.9422C30.9493 57.5449 30.4175 57.9349 29.602 57.7577C28.9638 57.6513 28.432 56.694 27.8292 57.3322C28.0774 56.3394 28.8929 55.3821 30.1693 55.5594C30.772 55.6303 30.9848 56.0203 31.4457 56.3749Z" fill="#32513A"/>
<path fill-rule="evenodd" clip-rule="evenodd" d="M36.9413 56.7295C36.9413 56.8004 36.9413 56.8713 36.9413 56.9422C36.835 56.9422 36.764 56.9422 36.6577 56.9422C36.5868 57.0132 36.6222 57.1904 36.6222 57.2968C36.5513 57.2968 36.4804 57.2968 36.4095 57.2968C36.3031 56.8713 36.4804 56.6941 36.9413 56.7295Z" fill="#32513A"/>
<path fill-rule="evenodd" clip-rule="evenodd" d="M62.7885 57.5801C62.8948 57.6864 62.8239 58.3601 62.8239 58.6792C62.7176 58.5728 62.7885 57.8992 62.7885 57.5801Z" fill="#32513A"/>
<path fill-rule="evenodd" clip-rule="evenodd" d="M31.4458 57.9701C31.5876 58.2182 31.7294 58.5019 31.7649 58.7501C31.9421 60.2747 30.5594 60.771 29.8857 61.5511C29.1412 60.2038 29.3184 57.9346 30.9848 57.7573C30.7367 58.3246 30.4885 58.8919 30.4885 59.6719C30.7721 59.1046 31.0912 58.5019 31.4458 57.9701Z" fill="#32513A"/>
<path fill-rule="evenodd" clip-rule="evenodd" d="M45.6279 60.7711C45.947 60.062 46.1598 59.2465 46.7625 58.8565C46.9043 59.282 47.2589 59.4593 47.2589 59.9202C47.2943 60.842 46.1598 61.4802 46.1598 62.4375C44.4224 61.9766 44.1033 58.7501 46.3016 58.502C45.9116 59.0692 45.5216 59.672 45.6279 60.7711Z" fill="#32513A"/>
<path fill-rule="evenodd" clip-rule="evenodd" d="M80.8354 60.1328C80.8708 60.1683 80.9063 60.1683 80.9772 60.1683C81.0835 61.2674 80.6581 61.7992 80.4099 62.5438C81.1545 62.1892 81.5799 61.5156 81.7217 60.5583C82.6436 62.2956 80.9063 63.572 79.488 63.6784C80.0553 63.0047 79.3108 61.6219 79.8426 60.8419C80.1262 60.4874 80.4453 60.5228 80.8354 60.1328Z" fill="#32513A"/>
<path fill-rule="evenodd" clip-rule="evenodd" d="M61.4057 60.913C61.583 60.8066 61.973 60.913 62.2212 60.8775C62.0439 60.9839 61.6539 60.8775 61.4057 60.913Z" fill="#32513A"/>
<path fill-rule="evenodd" clip-rule="evenodd" d="M32.013 61.9057C31.9421 62.6857 31.5521 63.2175 31.2684 63.7848C31.8357 63.5012 32.1903 63.0402 32.403 62.402C32.6512 62.9339 32.3321 63.7494 32.0839 64.0685C31.623 64.6003 30.7011 64.5648 30.382 65.3094C29.4957 64.033 30.3466 61.6929 32.013 61.9057Z" fill="#32513A"/>
<path fill-rule="evenodd" clip-rule="evenodd" d="M83.9909 63.5364C85.0546 65.4155 83.3527 66.8338 81.6509 66.9756C81.6154 66.7628 81.7927 66.7983 81.7927 66.621C81.8991 65.9474 81.6154 65.4155 81.6509 64.8837C81.7572 63.9619 82.4309 63.5364 83.1755 63.2173C83.2464 64.1746 82.8209 65.0255 82.5018 65.7346C83.3173 65.3092 83.7782 64.5291 83.9909 63.5364Z" fill="#32513A"/>
<path fill-rule="evenodd" clip-rule="evenodd" d="M33.5376 64.8837C33.1476 65.4156 32.4385 65.6638 31.623 65.8056C32.1548 66.1601 33.1831 66.1247 33.7858 65.841C33.3249 67.472 30.8784 66.692 30.2757 65.841C31.3039 65.5574 32.1548 63.9973 33.5376 64.8837Z" fill="#32513A"/>
<path fill-rule="evenodd" clip-rule="evenodd" d="M34.9913 64.813C35.3813 66.8694 34.7785 69.3513 32.6866 69.4931C33.9276 68.8904 34.6367 67.3303 34.3531 65.4512C34.6367 65.2739 34.814 65.0612 34.9913 64.813Z" fill="#32513A"/>
<path fill-rule="evenodd" clip-rule="evenodd" d="M57.1864 65.203C57.2573 65.0966 57.2219 65.5221 57.2219 65.6284C57.151 65.7348 57.1864 65.3093 57.1864 65.203Z" fill="#32513A"/>
<path fill-rule="evenodd" clip-rule="evenodd" d="M33.9985 67.9332C33.7504 68.7487 33.1476 69.2096 32.4385 69.5287C33.5376 69.706 34.1758 69.0323 34.6013 68.3941C35.2395 70.9469 31.6939 71.3015 30.3821 69.8478C31.9421 69.5287 31.8358 67.6141 33.9985 67.9332Z" fill="#32513A"/>
<path fill-rule="evenodd" clip-rule="evenodd" d="M65.9794 73.6768C66.2276 73.8895 66.4049 74.3859 66.4049 74.6695C65.3412 75.3786 63.4266 76.8678 64.3839 78.6051C63.6394 78.6051 63.6039 77.2932 63.7812 76.5487C63.9939 75.6623 64.6676 74.8823 65.3058 74.3504C65.554 74.1377 65.8731 74.0313 65.9794 73.6768Z" fill="#E7D200"/>
<path fill-rule="evenodd" clip-rule="evenodd" d="M54.2437 73.748C54.2792 73.748 54.2792 73.748 54.2792 73.7835C55.1656 74.6699 56.7256 75.769 56.5838 77.5773C56.5483 78.0736 56.371 78.5346 55.9101 78.6764C55.9456 78.5346 56.0165 78.4636 56.0874 78.3573C56.4065 76.2299 54.9174 75.5563 53.8537 74.7054C53.9601 74.3508 54.0664 73.9962 54.2437 73.748Z" fill="#E7D200"/>
<path fill-rule="evenodd" clip-rule="evenodd" d="M63.8166 76.0172C63.7812 76.3363 63.6039 76.4781 63.6393 76.8327C62.682 76.2299 61.3702 75.9817 60.3065 75.5208C60.4838 75.2372 60.8383 75.1308 61.0511 74.8472C62.0438 75.1663 63.1784 75.379 63.8166 76.0172Z" fill="#E7D200"/>
<path fill-rule="evenodd" clip-rule="evenodd" d="M52.7899 75.3786C52.8608 75.2722 52.8254 75.6623 52.8254 75.7332C52.7545 75.875 52.7899 75.485 52.7899 75.3786Z" fill="#32513A"/>
<path fill-rule="evenodd" clip-rule="evenodd" d="M57.4701 76.4424C57.151 76.5488 56.9737 76.797 56.6546 76.8679C56.6901 76.5133 56.4774 76.3361 56.4419 76.0524C56.5837 75.9106 56.8319 75.8397 56.9383 75.627C57.2219 75.7333 57.2928 76.1233 57.4701 76.4424Z" fill="#32513A"/>
<path fill-rule="evenodd" clip-rule="evenodd" d="M62.5402 76.4423C61.7247 78.0733 60.3065 79.1015 58.7465 79.9524C58.4628 79.8815 58.321 79.7043 58.0728 79.6333C59.5974 78.8179 60.8029 77.7187 61.5475 76.1587C61.9729 76.1587 62.2211 76.336 62.5402 76.4423Z" fill="#E7D200"/>
<path fill-rule="evenodd" clip-rule="evenodd" d="M55.6619 76.7261C56.4065 77.6125 55.13 79.4562 56.1937 80.3071C56.0519 80.2716 55.9455 80.6616 55.8392 80.6616C55.6264 80.6616 55.1655 79.8107 55.0946 79.4562C54.8464 78.3925 55.3782 77.1515 55.6619 76.7261Z" fill="#E7D200"/>
<path fill-rule="evenodd" clip-rule="evenodd" d="M64.4549 76.7261C64.4904 76.7261 64.5613 76.7261 64.5967 76.7261C64.774 77.2579 65.1286 77.577 65.1286 78.2861C64.9158 78.3925 64.774 78.5698 64.4904 78.6052C64.3486 77.8961 64.1358 77.3997 64.4549 76.7261Z" fill="#E7D200"/>
<path fill-rule="evenodd" clip-rule="evenodd" d="M63.8876 80.378C63.7458 80.4135 63.7103 80.8035 63.533 80.8389C63.3912 80.8744 62.9303 80.5198 62.7176 80.4135C61.9021 80.0944 60.8739 79.6335 60.342 79.208C60.413 78.9598 60.6966 78.9598 60.803 78.7471C61.6539 79.4562 62.8948 79.8107 63.8876 80.378Z" fill="#E7D200"/>
<path fill-rule="evenodd" clip-rule="evenodd" d="M60.0583 81.3354C59.9165 81.5836 59.9165 81.9381 59.8456 82.2572C59.1365 80.7327 57.6474 80.0236 55.9455 79.4917C55.9455 79.2435 55.8037 79.1372 55.8391 78.8535C57.3637 79.3853 59.101 80.0945 60.0583 81.3354Z" fill="#E7D200"/>
<path fill-rule="evenodd" clip-rule="evenodd" d="M65.1639 79.314C64.7739 80.9095 63.3557 81.4413 62.4693 82.505C62.4339 81.5477 63.3557 81.264 63.8521 80.6613C64.1003 80.3422 64.2421 80.0231 64.3839 79.5976C64.6321 79.5267 64.8803 79.3849 65.1639 79.314Z" fill="#E7D200"/>
<path fill-rule="evenodd" clip-rule="evenodd" d="M59.8101 33.6831C59.101 34.215 57.9664 34.8886 57.9664 36.0941C57.9664 36.6614 58.2146 36.9451 58.6046 37.2287C59.1719 37.2287 59.5974 37.4414 60.2711 37.3705C60.1647 37.5833 60.0229 37.4769 59.8456 37.5123C59.2428 37.6542 58.1792 38.0796 57.6473 37.9378C56.1582 37.4769 54.1372 36.2005 54.1727 34.2859C54.8109 35.7396 56.1582 36.5196 57.7537 37.0514C57.1864 36.2359 58.0019 35.1368 57.7537 34.1795C57.6119 33.6477 57.2928 33.3995 56.8319 33.0449C57.0446 33.3995 57.6473 33.7895 57.7183 34.4632C57.3282 34.4277 56.9737 34.4986 56.761 34.4277C55.6264 34.1086 55.9809 32.6904 55.3073 31.9813C56.9737 31.4494 58.9237 32.3004 58.2501 34.1441C57.8955 33.435 57.3992 32.8322 56.4064 32.7613C56.3709 32.8322 56.6546 32.974 56.761 33.0449C56.9028 33.0095 56.6546 32.8677 56.8673 32.9031C57.5764 33.1868 58.0728 33.6831 58.1792 34.5695C58.8174 33.8959 60.0583 33.825 60.0583 32.5131C60.2711 32.9031 60.0583 33.4704 59.8456 33.7186C60.3065 33.6122 60.342 32.6549 60.1292 32.1231C59.8456 32.2295 60.0229 32.6195 59.9874 32.7968C59.9165 33.2931 59.5974 33.5768 59.2074 33.7541C58.9592 33.1159 58.6401 32.9031 58.7465 32.2295C58.8883 31.5204 59.9165 31.0594 59.3847 30.2085C60.9093 30.5631 61.7957 32.974 60.0583 33.7895C60.0229 33.825 59.8101 34.0377 59.8456 33.825C59.8101 33.7541 59.8101 33.7186 59.8101 33.6831ZM58.0019 37.406C56.4773 37.016 55.3427 36.2359 54.5273 35.1014C55.2009 36.3069 56.4773 37.1932 58.0019 37.406Z" fill="#32513A"/>
<path fill-rule="evenodd" clip-rule="evenodd" d="M64.1357 35.2431C64.2421 34.7113 63.8166 34.1795 63.6748 33.9313C63.6393 33.8958 63.7102 33.7895 63.6748 33.754C63.6393 33.7185 63.2493 33.5767 63.1075 33.4349C63.3911 34.0022 63.7102 34.534 63.6039 35.4913C62.7175 35.2431 62.1502 34.8531 62.0793 33.9667C62.0438 33.3994 62.3275 32.6194 62.0438 32.123C63.6039 32.3003 65.3412 33.6831 64.1357 35.2431Z" fill="#32513A"/>
<path fill-rule="evenodd" clip-rule="evenodd" d="M65.6958 34.9245C65.4122 35.1017 65.1285 35.5981 64.8803 35.669C64.1712 33.8963 65.8376 33.3999 66.4404 32.478C67.3977 33.3999 67.2913 35.8109 65.6958 35.9172C66.0504 35.4208 66.2276 34.7472 66.1922 33.8608C65.9794 34.1444 65.8731 34.5699 65.6958 34.9245C65.9085 34.8181 65.944 34.499 66.0504 34.2863C65.9085 36.9809 63.1075 37.9736 60.5902 38.5055C60.0229 38.6118 59.4556 38.6828 58.8883 38.7891C59.3138 39.0373 59.8456 39.1791 60.1647 39.5691C59.5974 39.3564 58.1792 38.9309 57.3637 39.3919C56.9383 39.25 56.4774 39.1082 56.0873 38.9309C57.5056 37.9736 59.7747 37.8318 61.583 37.2645C62.8239 36.4491 61.5475 34.2154 60.1647 35.2436C60.1647 35.0663 60.5193 34.8181 60.732 34.7826C62.0439 34.499 62.9657 35.9527 62.2921 37.0163C63.4976 36.9809 64.0648 35.2436 63.533 34.0026C64.1712 34.1799 64.1712 35.8818 63.7457 36.4845C64.4903 36.2009 65.2703 35.6336 65.6958 34.9245Z" fill="#32513A"/>
<path fill-rule="evenodd" clip-rule="evenodd" d="M69.3123 34.9949C69.2414 35.8104 69.7377 36.6968 70.0568 37.1577C68.2841 37.1577 68.0713 34.6404 68.9932 33.3994C69.2414 34.7467 71.4396 34.7467 70.6241 36.7322C70.3405 36.5904 70.1632 36.3068 69.9859 36.0586C70.3759 37.4413 72.5387 37.4768 73.9215 37.9732C73.7088 37.5123 73.3542 37.1577 73.3188 36.5195C74.2761 38.5405 76.7934 38.9659 78.1762 40.5614C77.9634 39.9587 77.7862 39.285 77.7153 38.5405C78.1407 39.356 78.4953 40.6678 79.098 41.4833C79.3108 40.7742 79.488 40.0296 80.0908 39.746C79.7362 40.3487 79.3108 41.306 79.5235 42.1569C79.6299 42.6179 80.0908 42.8661 80.1971 43.2561C81.3317 43.6461 82.7854 43.3979 83.6009 42.8306C83.1754 43.5397 81.7926 44.0361 80.5162 43.7524C81.8281 45.8089 82.6436 49.9572 81.4026 52.6872C83.0336 52.6163 84.3454 52.8645 85.2673 53.5027C85.3382 53.9991 85.3382 54.6018 85.4091 55.1337C84.7709 54.7437 83.9909 54.1055 82.8563 54.07C83.4945 54.5664 84.0618 55.1337 84.1327 56.2328C83.9554 55.9137 83.8136 55.5237 83.6009 55.2755C83.7072 55.6655 84.0973 56.1619 84.2036 56.6937C84.3809 55.8073 83.9554 55.1691 83.6363 54.6373C84.1682 54.85 84.6291 54.9919 84.9127 55.4173C85.5509 56.4101 84.9127 57.7929 84.4164 58.5729C84.2745 57.7574 83.5654 57.4383 83.2818 56.8001C83.1754 56.7292 83.1045 56.6937 82.9981 56.6228C82.7499 56.1619 82.6436 55.24 83.0336 54.8855C83.2818 54.9564 83.3172 55.24 83.53 55.311C82.8563 53.9636 80.5517 53.8218 79.488 54.9919C80.339 55.0982 80.9772 55.4173 81.4026 55.9492C81.2963 56.091 81.2254 55.8073 81.0481 55.8428C81.1899 56.0555 81.4381 56.1619 81.6508 56.3037C81.4026 55.6301 80.8708 55.1691 80.0908 55.0273C81.5445 54.1055 83.2109 55.9137 82.6436 57.3319C81.3672 57.0483 79.7717 57.0128 79.6653 55.5592C80.1262 55.4882 80.6226 55.7364 81.0481 55.8783C80.5162 55.2755 78.8144 55.3464 78.2825 56.0201C80.6581 56.7646 83.1045 58.502 83.7782 61.0548C84.2036 62.6503 83.8136 64.7776 82.679 65.5576C82.9981 64.6712 83.3527 63.643 83.2463 62.3666C83.1045 60.9839 82.3245 59.8138 81.509 59.2111C81.7572 60.3811 81.5445 62.0475 80.5517 62.4375C81.7572 60.3811 80.2326 57.6865 78.2116 57.2965C78.4244 57.651 78.9562 58.1119 78.8498 58.9629C78.6371 58.6083 78.5307 58.112 78.2116 57.8638C78.3535 58.2183 78.708 58.7856 78.8144 59.3174C79.0626 58.7502 78.8853 57.9701 78.5307 57.5801C79.9844 57.8638 79.7362 60.7711 78.5662 61.1966C78.5662 61.0548 78.5662 60.9129 78.5662 60.7711C78.2116 60.2038 77.3962 59.7429 77.3607 58.8565C77.3607 58.431 77.538 58.041 77.7153 57.651C77.7862 57.4383 77.9634 57.8638 78.1407 57.8283C76.8643 56.3746 74.9497 58.1119 73.0706 57.9701C73.7442 58.5374 74.5597 59.2465 74.4888 60.3811C74.347 59.9911 74.1697 59.6365 73.9215 59.3174C74.0279 59.7784 74.4533 60.3456 74.5597 60.9839C74.737 59.9202 74.347 59.0338 73.7797 58.5374C75.8716 58.2538 76.1198 61.6575 74.4179 62.3312C74.3115 61.303 72.9997 60.9129 72.9997 59.9202C72.9997 59.4593 73.2478 59.3174 73.3188 58.8211C73.5669 58.9274 73.6379 59.2111 73.8506 59.3174C73.496 58.6438 72.8224 58.2538 72.0069 58.041C72.326 58.502 72.5033 59.8493 71.8296 60.2038C72.1133 59.7075 72.0778 58.7502 71.6878 58.3601C71.6523 58.5729 71.8651 58.7501 71.9005 59.0338C71.9714 59.6011 71.7233 60.1329 71.5814 60.4875C72.0778 60.3102 72.6096 59.3529 72.2551 58.4665C73.6024 59.4947 72.3969 61.9766 70.8369 62.0475C71.2269 61.2675 70.4823 60.6293 70.3759 59.9556C70.2341 59.1047 70.8014 58.502 71.6169 58.3601C71.5105 57.9347 71.0851 57.9347 70.695 57.7928C69.7732 57.5447 68.9577 57.1546 67.7522 57.1901C64.3485 57.2965 62.4339 60.0266 62.7885 63.9621C62.8239 64.2458 62.8594 64.4585 62.9303 64.7421C63.4976 67.1886 65.8731 67.2949 68.1422 68.2168C68.1777 68.3586 68.4259 68.2877 68.2486 68.3941C68.355 68.3941 68.3904 68.3232 68.5323 68.3586C68.5677 68.465 68.4613 68.4295 68.3904 68.465C70.0923 69.3514 71.8651 70.1668 72.5742 72.0814C72.2196 70.6278 70.9787 69.7059 69.7023 69.0677C70.1987 69.1032 70.6596 69.4577 71.1205 69.7414C72.6096 70.6278 74.4533 71.8333 74.7724 73.7833C74.9143 74.5988 74.7015 75.7334 74.347 76.2652C73.7797 77.1161 72.716 77.3998 71.936 77.8607C71.2978 78.2507 70.5887 79.3498 71.3332 80.2008C70.9432 79.988 70.695 79.6689 70.695 79.1371C70.6596 76.9034 74.1697 77.0807 73.8151 74.2442C73.7088 73.5351 73.3542 73.0742 72.8578 72.5778C72.8933 73.216 72.9997 73.4288 72.8578 74.1379C72.4324 76.1234 69.5959 76.8325 68.9932 78.7116C68.7095 79.6335 69.135 80.9808 70.305 80.5553C70.1632 80.8744 69.7023 81.0517 69.2414 80.8744C68.5323 80.5908 68.3195 79.4208 68.5677 78.5698C68.7804 77.7543 69.4186 77.0098 69.9859 76.3361C70.766 75.4143 72.0069 74.5279 71.5814 72.8615C71.2978 71.6914 69.8087 70.7341 68.8868 70.2023C68.6032 70.0605 68.355 70.0605 68.1068 69.7768C67.9295 69.7768 67.7522 69.7768 67.6459 69.6705C67.7877 69.9896 68.355 70.2732 68.5323 70.7341C69.525 71.9751 70.1632 73.6415 69.6668 75.3788C69.1705 77.1161 67.504 78.0734 67.0431 79.4562C66.5467 81.0163 67.6104 82.2572 68.745 82.6472C67.2204 82.6472 66.2631 81.4772 66.4049 79.8462C66.5822 78.1089 68.1777 76.9389 68.5677 75.1661C68.9223 73.5351 68.3195 72.3651 67.4686 71.266C67.1849 69.8123 65.8731 69.3159 64.4549 68.9614C65.5894 69.2805 66.8658 69.8123 67.3268 70.9469C67.6104 71.5851 67.504 72.7551 67.1849 73.5706C66.7595 72.9678 66.4758 72.436 66.3695 71.5142C66.1922 70.025 64.9867 69.3514 63.7458 68.8195C63.8167 70.1668 65.0576 70.7696 65.7313 71.6914C66.5822 72.5778 67.3977 73.8897 67.4331 75.4143C67.4686 78.1089 65.1994 79.2435 63.143 79.9171C62.8948 79.8462 62.6821 79.7399 62.4693 79.7044C64.5258 78.818 67.4331 77.7543 66.4049 74.4924C66.0149 73.1806 64.9158 72.1524 63.923 71.4787C63.9585 73.4288 63.4976 74.1733 63.0366 75.4143C62.7175 75.4497 62.4339 75.1306 61.973 75.1306C62.3984 74.1733 62.9657 72.7197 62.7885 71.3369C62.7175 70.5214 62.2212 69.8832 61.8666 69.3514C61.7248 69.9187 62.0084 70.4505 62.0793 71.0178C62.2566 72.1524 61.973 73.1451 61.5121 73.9606C61.4057 73.996 61.4411 73.8897 61.3702 73.8542C61.4766 74.1024 61.2639 73.9251 61.3702 74.067C60.8384 74.8115 59.8102 75.7688 58.5338 76.0525C58.392 75.7334 58.1792 75.4852 58.0729 75.1306C59.8102 74.847 61.0866 73.7124 60.9093 71.7269C60.8029 70.5923 60.2002 69.7059 59.952 68.7132C59.2429 70.1314 58.2147 72.826 59.7747 74.2088C59.6329 74.4924 59.2783 74.5988 58.9592 74.7052C58.1438 73.8542 57.5765 72.5069 57.8247 70.9469C57.931 70.415 58.1438 69.9187 58.1083 69.3514C57.0092 70.1314 56.9737 72.2942 57.4347 73.8542C57.931 75.5561 59.0302 77.1516 59.9165 78.1089C59.7038 78.2862 59.562 78.4989 59.3138 78.6053C57.5056 77.0098 56.0519 74.7761 56.0519 71.5142C54.9173 72.1878 53.3573 73.8188 53.3573 75.7334C53.3573 76.9034 53.9955 77.7543 54.7755 78.3571C54.8109 78.5698 54.7046 78.9244 54.8109 79.1017C54.5273 79.0662 54.35 78.818 54.1373 78.6407C53.18 77.8607 52.1518 76.5488 52.6127 74.5633C52.8609 73.5706 53.3927 72.5424 53.9955 71.8687C54.8109 70.9469 56.0519 70.3087 56.1937 68.8904C54.74 69.4577 53.4991 70.2732 53.5345 72.3296C53.2509 72.7196 52.9673 73.1097 52.8609 73.6415C52.2936 73.1097 52.5418 71.656 52.2936 71.0178C52.0809 70.9469 52.1872 71.1951 52.1518 71.3369C52.1163 71.4432 51.7618 71.266 51.7972 71.4787C51.7618 71.7269 52.3291 71.6205 52.2936 71.4787C51.8681 72.3296 51.3008 72.9678 51.2299 73.9961C51.0881 76.0879 53.0027 77.7543 53.4282 79.3853C53.8536 81.0872 52.9318 82.6118 51.1945 82.7181C52.2936 82.1508 53.3218 81.1226 52.8963 79.5626C52.4354 77.9316 50.4145 76.9389 50.1308 74.7406C49.989 73.5351 50.3435 72.2587 51.0172 71.4078C50.9817 71.3014 50.8754 71.4787 50.9817 71.3014C51.159 71.0887 51.159 70.9469 51.4072 70.6632C51.549 70.8405 51.2299 70.9114 51.2299 71.1241C51.3008 70.9469 51.4072 71.0532 51.6554 71.0178C51.6909 70.9114 51.6554 70.805 51.6909 70.6632C51.7972 70.6632 51.9036 70.6632 52.01 70.6632C52.0454 70.4859 51.939 70.415 52.01 70.3441C53.3218 69.1386 55.6264 68.8904 56.1228 66.8695C55.4491 68.855 53.1091 69.1741 51.7263 70.4505C51.5845 70.2732 52.0809 69.9896 52.2227 69.8123C50.7336 70.3087 48.4644 71.2305 48.1098 72.9324C47.7553 74.5633 48.8544 75.3434 49.6699 76.3361C50.4854 77.258 51.4781 78.3216 51.2299 79.7399C51.1236 80.449 50.2017 81.5126 49.4572 80.6617C50.2372 80.9099 50.9463 80.2717 50.8399 79.208C50.5563 76.6198 46.1598 76.1943 46.9044 72.6842C46.0534 73.2869 45.628 74.7052 46.2307 75.8043C46.8689 77.0098 48.6062 77.3643 48.9962 78.4635C49.2799 79.208 49.0317 80.059 48.4289 80.2362C49.0671 79.6689 48.7126 78.4635 48.1098 78.038C46.9753 77.258 45.2734 77.0807 44.9897 75.2015C44.5288 71.9751 47.2234 70.7341 49.1735 69.5996C48.4644 70.0959 47.7907 70.5569 47.4362 71.3723C48.7126 69.0677 51.9745 68.7841 54.5982 67.8268C53.18 68.1813 51.3718 68.7132 49.9535 69.1032C50.9108 68.6423 51.9745 68.2168 53.0736 67.8268C54.3146 67.4013 55.9101 67.0113 56.5483 66.0895C57.2574 65.0612 57.3992 63.0048 57.1156 61.4448C56.6546 58.9629 55.1655 57.651 52.6836 57.1547C51.4781 57.0128 50.379 57.5447 49.3508 57.7928C49.209 57.8283 49.0671 57.7929 48.9253 57.8283C48.2162 58.1119 48.0035 59.0338 48.2517 59.9911C47.8262 59.7784 47.6844 58.4665 48.1453 58.0056C46.9398 58.2183 46.0534 59.1402 45.7343 60.3457C45.5925 59.3529 46.3725 58.4665 47.0107 57.9701C45.7698 58.0765 44.5288 57.1547 43.3588 57.1547C42.4015 57.1547 41.6924 57.8638 41.4796 58.8565C41.2315 58.431 41.586 57.8638 41.7633 57.5801C41.4087 57.6865 41.1605 58.7502 41.4442 59.2465C41.586 58.5729 41.8342 58.041 42.2597 57.6865C42.827 58.2892 42.827 59.3529 42.2951 59.9911C42.0115 60.3457 41.586 60.5229 41.4796 60.8775C41.5151 60.9839 41.4087 61.1966 41.5151 61.232C40.2742 60.842 40.0969 57.5801 41.7987 57.5801C41.9051 57.4738 41.976 57.3674 42.0824 57.261C40.026 57.6865 38.4305 60.0975 39.6005 62.3312C39.5296 62.5084 39.3169 62.083 39.1396 62.1184C39.2814 62.4021 39.565 62.5084 39.8132 62.6503C39.565 61.9412 39.175 61.3739 39.2814 60.3102C39.7778 60.5938 40.3805 60.8066 40.5223 61.4093C40.6996 62.2248 40.1323 63.1821 40.6642 63.7848C40.5223 63.8203 40.3096 63.7848 40.0969 63.7494C38.8559 63.3594 37.5086 62.2248 38.4305 60.5938C38.6077 61.1611 38.6432 61.8348 39.1041 62.1184C38.6077 61.5511 38.395 60.3102 38.6432 59.282C36.9768 60.062 36.3386 63.5721 37.4377 65.5576C37.1895 65.4867 37.1186 65.2385 36.9059 65.1322C37.0477 65.4867 37.4023 65.5931 37.6504 65.8058C37.4377 65.1322 37.0477 64.2812 36.9768 63.3239C37.8277 63.5367 38.4305 63.9976 38.5368 64.884C38.6077 65.4867 38.1823 66.4795 38.5723 66.9758C36.8704 66.9758 35.1686 65.4513 36.1968 63.5721C36.374 64.1394 36.5159 64.7421 36.9413 65.0967C36.5513 64.3521 36.2322 63.7139 36.1968 62.6148C36.1259 59.2111 38.9623 56.871 41.7987 56.091C41.4796 54.921 38.8914 55.4173 38.6787 56.2328C39.2105 55.8783 39.6714 55.4528 40.5578 55.4528C40.5578 57.2256 38.3596 56.7646 37.4732 57.651C37.2604 56.0555 38.5723 53.8927 40.2742 54.9564C39.6005 55.0273 39.175 55.3819 38.8559 55.8428C39.175 55.6655 39.4941 55.2046 40.0614 55.0628C40.2387 55.0273 40.4514 55.0982 40.5933 54.9564C40.0614 54.5664 39.4232 54.1409 38.7141 54.1409C37.4732 54.1055 36.4804 55.2755 36.1613 56.2328C36.0904 55.24 36.7995 54.6019 37.4023 54.1409C34.424 54.2828 32.0485 57.651 33.2185 61.1611C33.3603 61.5511 33.5731 62.0121 33.8212 62.4375C34.2822 63.2885 34.8495 63.7848 33.9631 64.4585C33.5376 63.643 32.9703 62.8985 32.5094 62.1184C32.2612 62.6857 32.013 63.2176 31.5875 63.5721C31.7648 62.8985 32.2612 62.2603 32.1194 61.232C32.0485 60.7357 31.8357 60.2747 31.8003 59.7784C31.7294 58.7502 31.8712 57.6865 32.1194 56.9065C31.5166 57.6156 31.0203 58.3956 30.5948 59.282C30.6302 58.3247 31.1975 57.5447 31.5875 56.871C31.1975 57.0128 30.5948 56.9774 30.2048 56.871C31.3748 56.7646 32.1548 56.2683 32.7576 55.6301C33.8212 53.7509 35.594 52.6163 38.6787 52.7582C38.1823 51.6236 37.9341 49.5672 38.1114 48.0071C38.1823 47.5107 38.3596 46.5889 38.6787 46.3407C39.175 45.9861 39.6714 45.738 40.1323 45.3834C39.9196 46.128 39.4941 47.0853 39.4587 48.1489C39.7069 48.0071 39.9551 47.5107 40.3451 47.3335C40.2032 47.1562 40.026 47.6171 39.9196 47.5107C40.0969 46.5889 40.4869 46.0216 41.2315 45.7734C41.7987 45.5961 42.5433 45.667 42.756 45.0998C43.5006 46.908 42.1888 48.8226 40.3096 48.0426C40.6996 47.4753 41.2315 47.0498 42.0115 46.908C41.4796 46.518 40.6642 47.0144 40.3096 47.2625C40.6996 47.1916 41.0896 46.8016 41.7278 46.8371C39.6005 47.2625 38.9268 51.0208 40.4869 52.7936C40.4514 52.0136 40.5933 51.1272 40.9478 50.5954C40.8414 51.1981 40.7705 52.4391 40.9833 53.1127C41.5506 54.8855 43.9615 56.0201 46.1952 56.1973C45.628 55.1691 45.3443 53.8927 44.2806 53.3609C44.387 53.6091 44.7061 53.6091 44.777 53.8927C43.3942 54.7791 41.6924 53.5027 41.6215 52.0136C42.4369 52.12 43.3233 51.6945 44.0324 51.9781C44.5643 52.1909 44.7061 52.6518 44.9543 53.1836C44.9188 53.3964 44.7416 53.0418 44.5288 53.0773C44.6707 53.29 44.9543 53.3609 45.1316 53.5382C45.1316 53.2191 45.0252 52.4745 45.0961 51.9427C45.2025 50.6663 45.9471 49.4608 45.2379 48.078C45.4152 48.1844 45.4861 48.3971 45.5925 48.5389C45.6634 48.2553 45.3089 48.0426 45.1316 47.8653C45.0961 48.3617 45.4152 48.858 45.4507 49.4253C44.1034 49.2126 43.7488 47.5816 44.2452 46.2698C44.7416 46.8371 45.8761 46.9434 46.018 47.8653C46.0534 48.1489 46.0534 48.6808 45.9116 48.9999C45.7343 48.929 45.7698 48.6453 45.6279 48.5389C45.557 48.7162 45.8052 48.9999 45.8052 49.2126C46.3016 48.5035 46.6562 47.6526 47.6489 47.4398C47.0107 48.1844 46.2661 49.2835 45.9825 50.5245C45.4152 53.2545 46.408 55.5591 48.819 55.8783C48.7126 55.7364 48.3935 55.4528 48.1808 55.2755C48.1808 55.4882 48.3935 55.5237 48.4644 55.6301C47.6489 55.5592 47.1171 54.85 47.0816 53.9636C47.0816 53.2545 47.578 52.6163 47.578 51.9781C48.2871 52.8291 49.6344 53.6446 48.9962 55.3819C48.8544 55.3819 48.8899 55.2046 48.7126 55.24C49.7408 56.3037 51.9036 55.7364 52.6836 54.8146C52.79 53.8927 52.2227 53.3609 51.7263 52.51C51.0881 51.4463 50.2372 50.3472 48.3935 50.6663C48.1453 50.7017 47.8971 50.879 47.6135 50.9499C48.0389 50.1699 49.5281 50.099 50.4854 50.3826C49.9535 47.4398 48.358 45.0998 45.4861 44.3197C45.6634 44.0361 46.2307 43.2561 46.6207 43.2206C47.0107 43.1852 47.9326 43.717 48.4644 44.0006C49.3862 44.497 49.9535 44.9934 50.5563 45.5961C51.4781 43.2915 52.7191 41.3769 54.5273 39.9587C54.9528 40.0651 55.2719 40.2423 55.6619 40.3842C54.1727 41.9797 52.2581 43.8943 52.01 46.8016C51.8681 48.2553 52.3291 49.6735 52.8254 50.7017C52.9318 48.7871 54.2437 47.1562 53.4636 45.1707C53.8536 45.2416 53.96 46.0571 54.1018 46.5534C54.4564 45.8443 54.9173 45.277 55.3428 44.6743C55.7682 44.9579 56.0519 45.3479 56.4064 45.667C55.2364 47.1562 54.2082 49.0353 54.3855 51.7654C54.74 50.9145 55.2719 50.2408 55.9101 49.6735C55.591 50.6663 54.3146 51.5881 54.7046 53.2545C54.9882 54.4955 56.0164 55.6301 57.3992 55.7719C58.1438 54.6018 57.5056 52.6872 56.6546 52.12C56.7965 52.0136 56.9383 52.3327 57.1156 52.3327C57.151 52.12 56.6901 51.9781 56.4419 51.8718C56.761 52.4391 57.541 52.9709 57.5765 53.9636C56.9383 53.8218 56.5128 53.8218 56.1583 53.5027C55.591 53.0063 55.9101 51.8363 55.5201 51.1627C57.3992 50.9499 58.5338 51.9072 58.1438 53.68C57.8956 53.2545 57.7183 52.7582 57.3637 52.4391C57.6119 52.9354 58.1438 53.5382 58.1438 54.46C58.5692 53.1127 58.4983 51.3754 58.2856 49.8508C57.8247 46.5534 55.981 44.497 53.4636 43.2561C53.7118 42.8306 53.9955 42.476 54.2791 42.0506C56.1937 42.937 57.5765 44.3197 58.8529 45.8443C58.8883 45.0998 59.1011 44.5679 59.4911 44.1779C59.172 44.9225 58.9947 46.7662 59.8102 47.2625C60.3066 46.8371 60.6257 46.2343 61.0157 45.7025C62.1503 44.1779 63.5685 42.8661 65.4122 41.9797C65.6604 42.4051 65.944 42.7951 66.2276 43.1852C63.0012 44.9225 60.8384 47.9007 61.2639 53.1836C61.5475 52.1909 62.0793 51.4463 62.8594 50.9499C62.2566 51.7654 61.3702 52.9 61.6184 54.5664C61.9021 54.1055 62.3275 53.5736 62.8594 53.5027C62.3984 53.9991 61.9021 54.5309 61.8666 55.4173C62.3984 56.1619 63.6039 55.3819 64.1712 54.7437C64.774 54.07 65.3413 52.7936 65.3058 51.659C65.2703 50.1344 64.2067 49.2126 63.4267 48.5035C63.8521 48.5035 64.2067 48.9644 64.5612 49.1417C64.2067 48.6808 63.7458 48.3617 63.0366 48.2553C63.4976 48.7162 64.1003 49.0708 64.4194 49.6735C64.0294 49.6381 63.7458 49.709 63.4976 49.6735C62.4694 49.4962 62.6466 48.2553 62.0793 47.6171C63.4621 47.0498 64.9512 47.7235 64.8449 49.2835C64.6321 49.3544 64.7385 49.1062 64.5612 49.1417C64.7385 49.4962 65.0576 49.709 65.1994 50.0635C65.0222 48.3617 64.2067 46.8725 63.3203 45.738C63.4267 45.5252 63.533 45.3479 63.7458 45.1352C63.8167 45.0288 64.1712 44.6388 64.2421 44.6388C64.4194 44.6388 64.8449 45.3125 64.9867 45.5252C65.2349 45.8798 65.4122 46.2343 65.554 46.518C65.6958 46.0216 65.8022 45.4543 66.0858 45.0998C66.1567 45.4189 65.9795 45.7025 65.944 45.9861C65.7313 47.7944 66.8304 48.929 66.7595 50.7017C67.965 49.2481 67.8941 45.2416 66.6177 43.7879C66.8304 43.7879 66.7949 43.5397 66.8304 43.3624C66.9368 43.3624 67.1849 43.4333 67.114 43.2206C67.2913 43.3979 67.3622 43.717 67.2913 43.9652C67.3268 44.1779 66.8658 43.8943 66.9722 44.1779C67.0786 44.4261 67.4686 44.1779 67.5395 44.0715C68.1068 45.5607 68.4613 47.5462 68.0004 49.2481C67.7522 50.1344 67.1495 51.1981 66.6531 52.2263C66.0504 53.5382 65.6249 54.6728 64.5612 55.311C65.1285 55.2755 65.3767 54.5309 65.8022 54.2118C66.5822 52.1554 68.3195 50.2408 68.3195 47.4398C68.3195 46.0216 67.9295 44.9225 67.5395 43.717C66.6886 42.0151 65.554 40.5969 64.1358 39.4623C65.1285 40.4905 66.4049 41.6251 67.0786 43.1142C66.724 43.0788 66.5467 43.2206 66.5822 43.5752C65.1285 41.2706 63.4267 39.2141 60.2002 38.6823C61.0511 38.4341 61.8312 38.115 62.6821 38.3986C65.5894 39.3914 68.0004 42.7597 69.0995 45.5961C70.0923 44.6034 71.3687 43.8234 72.8578 43.2561C73.8506 42.9015 74.8788 42.8661 75.1624 41.8378C74.9497 42.0151 74.8433 42.2633 74.6661 42.476C74.1697 41.4833 75.127 40.8451 75.4461 40.2423C76.297 40.5614 76.5098 42.6888 75.2334 42.6533C75.4106 42.2988 75.5879 41.9442 75.5525 41.3769C75.3752 41.4478 75.3043 41.6251 75.1979 41.8024C75.3397 41.9797 75.3752 41.4833 75.4816 41.6251C75.4461 42.086 75.3397 42.4406 75.0561 42.6888C76.0843 42.7951 77.4671 42.7951 78.3534 43.1497C78.7435 43.7524 79.098 44.3906 79.4526 45.0288C78.2116 44.3906 76.3325 43.8234 74.5597 44.2134C73.3188 44.497 71.8296 45.4189 71.0851 46.2698C70.1632 47.3335 69.5959 48.8935 69.2414 50.3826C70.305 50.0635 71.6878 50.2054 72.2196 50.9499C71.3332 50.489 69.7023 50.5599 68.8868 51.3045C68.6032 51.5881 68.2486 52.1554 67.965 52.6163C67.6459 53.1127 67.2559 53.5736 67.0786 53.9991C66.724 55.0628 67.965 55.4882 68.8514 55.7364C70.1987 56.1264 71.6523 55.1691 71.8651 53.9636C72.0069 54.921 71.4396 55.5591 70.766 55.8428C72.7869 55.5946 74.1342 53.9282 73.9215 51.6236C73.7797 50.0281 73.1415 48.5744 72.326 47.6526C72.4678 48.078 72.9642 48.5035 73.1415 49.0353C71.5814 49.2481 71.2623 47.7944 70.9432 46.6243C72.3969 46.1989 73.6733 47.0144 73.6379 48.5035C73.1415 48.0426 72.7869 47.4753 71.9714 47.298C71.9005 47.4398 72.1133 47.5462 72.1842 47.6526C72.2906 47.688 72.2551 47.4398 72.1487 47.5107C72.5033 47.4398 72.8933 47.7944 73.1415 48.1135C73.4251 48.4326 73.6379 48.858 73.8151 49.1771C74.0633 48.7871 74.1697 48.3262 74.4888 48.0426C74.3824 48.6099 74.0988 49.2126 74.1697 49.9217C74.2051 50.3117 74.4533 50.7017 74.5242 51.1272C74.7015 51.9072 74.7015 52.6518 74.5597 53.4673C75.0561 53.1836 75.517 52.8291 76.2616 52.7936C74.8079 53.3609 74.1697 54.7791 73.496 56.1264C75.8007 56.0555 78.4953 54.7791 78.8853 52.7227C79.0271 52.0845 78.8853 51.3754 78.8498 50.6308C79.2044 51.1627 79.3462 52.0136 79.2753 52.7227C79.6299 52.1554 80.0553 51.4818 80.1617 50.7017C80.3744 48.858 79.4171 47.4044 78.0698 46.9789C78.1407 46.908 78.6726 46.9789 78.4244 47.0853C78.6016 47.1207 78.708 47.0144 78.7789 47.0853C79.8426 47.4044 80.6581 48.468 80.9772 49.8508C81.2608 50.9854 81.119 52.2263 80.339 52.9354C81.6154 52.3327 81.2253 49.1417 80.3035 48.3262C80.2326 46.4471 79.488 44.9225 78.6016 43.6106C77.2898 41.6251 75.6588 39.8523 73.3897 38.895C72.326 38.4341 70.8369 38.3277 69.915 37.4413C69.4186 36.945 69.1705 36.2359 69.0286 35.5267C69.2768 35.704 69.3477 35.9877 69.525 36.2004C69.915 35.6686 69.4896 35.314 69.3123 34.9949ZM43.2524 52.6518C43.6779 52.7936 43.997 53.0418 44.387 53.2191C44.2097 52.9354 43.7843 52.9 43.5715 52.6518C43.997 52.6872 44.2806 52.8291 44.6706 52.9354C44.4225 52.6872 43.7488 52.5454 43.2524 52.6518ZM48.1098 53.3964C47.8971 53.9991 47.968 54.8146 48.3935 55.1337C48.2871 54.7791 47.968 54.4246 48.1808 53.9282C48.3226 54.46 48.5353 54.8855 48.9608 55.1337C48.4999 54.7082 48.2162 54.1409 48.1098 53.3964ZM74.0633 38.505C73.8861 38.5405 73.6733 38.3632 73.5669 38.505C73.7088 38.4696 74.0988 38.6468 74.0633 38.505ZM81.119 45.8443C81.119 45.9152 81.1899 45.8443 81.1544 45.738C80.4453 43.327 78.8498 41.1287 76.8998 39.8169C76.2261 39.356 75.4106 38.8241 74.6661 38.6114C74.5243 38.5759 73.8151 38.5405 74.347 38.6114C77.7507 39.8523 79.949 42.2988 81.119 45.8443ZM52.1872 46.518C52.1518 47.0498 52.2227 47.2625 52.2227 46.8371C52.2936 44.2488 53.2154 42.1569 54.3146 40.7033C54.3146 40.6324 54.2791 40.5969 54.2791 40.7033C53.0736 42.1215 52.3291 44.0361 52.1872 46.518ZM62.7885 44.5679C62.1857 45.3834 61.5121 46.3762 61.3348 47.3335C61.1575 48.1135 61.4057 48.9999 61.193 49.7444C61.193 49.8863 61.193 49.9926 61.193 50.099C61.193 50.8436 61.1575 49.9926 61.2284 49.6735C61.2993 49.319 61.2639 48.3971 61.3348 47.8298C61.4766 46.6243 62.1502 45.5961 62.753 44.7452C63.0721 44.3197 63.3912 43.8588 63.7458 43.5043C64.1358 43.1142 64.5612 42.8306 64.8803 42.4406C64.1712 42.9724 63.3912 43.717 62.7885 44.5679ZM76.6516 43.1852C77.3607 43.1142 77.2543 43.1852 76.5098 43.1497C74.347 43.3624 72.6806 44.2134 71.6169 45.4898C71.4396 45.7025 71.1914 45.8798 71.1914 46.1634C72.1487 44.497 74.347 43.3979 76.6516 43.1852ZM61.0511 50.6308C61.1929 51.5881 61.122 52.2972 61.193 53.29C61.3348 54.9919 62.1148 55.8073 62.7175 57.0837C62.753 57.1901 62.6466 57.4028 62.753 57.4383C62.753 56.4101 62.1148 55.9492 61.7957 55.24C61.2284 53.9991 61.4411 52.4391 61.193 50.6663C61.0866 49.8508 60.732 49.0708 60.4129 48.3617C59.4202 46.2698 57.7892 44.6034 56.3355 43.2206C56.2646 43.2206 56.2292 43.2561 56.3355 43.2561C58.1792 45.3479 60.5193 47.3335 61.0511 50.6308ZM49.3508 45.9152C48.8544 45.1352 48.3226 44.3197 47.6135 43.8234C47.6135 43.8234 47.3298 43.5397 47.5071 43.7879C47.8262 44.1779 48.2162 44.497 48.4999 44.887C49.4217 46.128 50.0244 47.4398 50.7336 48.9644C50.3435 47.8653 49.9181 46.8371 49.3508 45.9152ZM66.9368 53.9282C66.7595 54.5664 66.5822 55.1337 66.2986 55.6655C66.0149 56.1619 65.6604 56.5874 65.4122 57.0837C65.7313 56.5519 66.2276 56.0555 66.5113 55.5237C66.9722 54.6018 67.114 53.4318 67.4686 52.4036C68.5323 49.3899 69.9505 46.5889 71.5814 44.3552C69.6314 46.9434 67.9295 50.3826 66.9368 53.9282ZM61.6184 58.4665C60.4484 57.1547 60.6257 55.0273 60.342 52.9709C59.9875 50.5954 59.2429 48.2908 58.1438 46.8016C58.1438 46.7662 58.0729 46.7662 58.1083 46.8371C59.2784 48.5389 60.0584 51.0563 60.342 53.7509C60.4129 54.4246 60.3775 55.1337 60.4838 55.8073C60.6966 57.3674 61.512 58.5374 62.4693 59.3883C62.2212 59.0338 61.9021 58.7856 61.6184 58.4665ZM54.1018 49.4962C54.1018 49.8508 54.1373 49.4608 54.1373 49.1771C54.1373 49.0708 54.2437 48.8935 54.1373 48.7162C54.1373 49.0353 54.1018 49.3544 54.1018 49.4962ZM39.636 51.5172C39.8487 52.51 40.026 53.5382 40.5933 54.2118C41.9051 55.8428 44.387 56.6937 46.7625 57.2256C44.5643 56.5519 42.2951 55.9846 40.8414 54.3891C39.565 53.0063 39.8487 50.4181 38.6787 48.7871C39.0687 49.6735 39.4232 50.5245 39.636 51.5172ZM51.2654 49.2835C51.2654 49.1771 51.3008 48.7517 51.2299 48.858C51.2299 48.9644 51.1945 49.3899 51.2654 49.2835ZM59.2783 58.5374C59.2429 58.0056 58.9238 57.5447 58.8174 56.9774C58.4629 55.1691 59.2429 52.9709 59.1011 50.9854C59.0656 50.4181 58.8883 49.8863 58.782 49.319C59.5975 52.2618 57.8956 56.091 59.2783 58.5374ZM51.3363 49.5317C51.3363 49.2126 51.2654 49.4253 51.3008 49.6381C51.4427 49.7444 51.4072 50.0281 51.4781 50.2054C51.4781 49.9217 51.4072 49.7444 51.3363 49.5317ZM61.9375 62.3312C61.3702 61.7284 59.9875 61.7993 59.4911 61.232C59.172 60.842 59.1011 60.0266 58.9592 59.5656C58.8174 59.1402 58.6401 58.7502 58.321 58.3601C57.7538 57.651 57.3637 56.9774 56.6192 56.3392C55.5555 54.9919 54.3146 53.6091 54.1373 51.3754C54.1018 50.9499 54.1018 50.7726 54.0309 50.5599C53.9955 50.3472 54.0664 49.7799 53.9955 49.7799C53.9246 51.9781 54.5628 53.4673 55.2719 54.9209C56.3001 56.2683 57.7892 57.0837 58.1083 59.1047C58.2147 59.6365 58.1792 60.0975 58.2501 60.5229C58.782 64.3876 61.6184 65.3094 64.2421 66.9404C65.0222 67.4368 65.7313 67.9686 66.4758 68.465C63.7458 65.9122 59.0302 65.3094 58.3565 60.8066C58.2147 59.8138 58.1792 58.8211 57.931 58.0056C59.0302 59.2111 58.9592 61.232 60.0938 62.4021C60.4129 62.7212 60.8029 62.9694 61.1575 63.2176C61.5121 63.4657 61.8666 63.7494 62.2566 63.8912C61.2284 63.1466 59.952 62.4375 59.4911 61.2675C60.0938 61.8702 61.122 61.7284 61.7248 62.2603C62.1503 62.6857 62.1857 63.253 62.5048 63.8558C62.3984 63.253 62.363 62.7921 61.9375 62.3312ZM51.549 50.5954C51.6909 50.5599 51.6199 50.7372 51.6909 50.7726C51.6554 51.0208 51.7618 50.9145 51.7263 50.7372C51.5845 50.5954 51.5845 50.3472 51.4781 50.1699C51.4781 50.3826 51.5845 50.4181 51.549 50.5954ZM59.6684 66.7277C58.8883 65.8058 58.0729 64.7421 57.8956 63.4303C57.6828 62.0475 58.002 60.7002 57.7538 59.2465C57.5765 58.1829 57.151 57.5447 56.6192 56.9065C56.1937 56.4101 55.7328 55.9846 55.3782 55.4528C54.9882 55.3464 54.7755 55.0628 54.5982 54.7791C53.3927 53.9282 52.5772 52.6873 51.939 51.3045C51.939 51.3399 51.939 51.3754 51.939 51.4108C52.5063 52.7936 53.3573 53.8927 54.35 54.8146C54.4564 54.9209 54.4564 55.0273 54.4918 55.0982C54.4918 54.9919 54.6337 55.0982 54.6691 55.0982C55.7682 56.3037 57.2219 57.2256 57.6119 59.0693C57.8601 60.3102 57.5765 61.6575 57.7538 63.253C57.9665 65.0967 59.1011 66.1249 60.0938 67.2949C60.8738 68.1813 61.7248 69.0677 62.7175 69.4932C62.5048 69.4223 62.4693 69.2095 62.2921 69.2095C62.3984 69.1741 62.2921 68.9968 62.2566 68.9968C62.2212 69.1032 62.3275 69.1032 62.2921 69.2095C61.3702 68.5359 60.4484 67.685 59.6684 66.7277ZM32.2967 58.9274C32.013 55.2046 34.5658 53.5027 37.5795 52.9354C37.8277 52.9354 38.0759 52.9354 38.3241 52.9354C38.4305 52.9354 38.5723 52.9354 38.6787 52.9354C38.7496 52.9354 38.785 52.9354 38.8559 52.9354C38.8914 52.9354 38.8914 52.8645 38.8205 52.9C35.4877 52.8291 32.793 54.46 32.3321 57.2965C32.1548 58.3601 32.2967 59.8138 32.6512 60.6293C32.5448 59.9911 32.3676 59.5656 32.2967 58.9274ZM81.7926 53.6091C82.5018 53.7509 83.5654 53.7864 84.1327 53.6445C84.2745 53.6445 84.4164 53.6445 84.5582 53.6445C83.14 53.6445 81.4026 53.5027 80.4453 53.0418C80.1262 53.2191 79.5589 53.3609 79.488 53.6445C80.1617 52.8291 80.9772 53.4673 81.7926 53.6091ZM78.0344 54.9919C76.8643 56.0201 75.4106 56.9774 73.957 57.651C76.2261 56.8356 77.9634 55.2755 79.3108 53.7155C79.3108 53.7509 79.2753 53.7509 79.2044 53.7509C79.2044 53.6445 79.4171 53.5027 79.3108 53.3964C79.0271 54.07 78.5307 54.5309 78.0344 54.9919ZM51.9745 56.6937C50.1308 56.2328 47.0107 56.6583 46.1243 55.0982C46.1598 54.9209 45.947 54.7437 46.0889 54.9564C46.798 56.7646 49.7053 56.3746 51.9745 56.6937ZM71.9714 57.0483C71.2978 57.1901 70.5532 56.9774 69.6668 57.0128C69.7023 57.1192 69.9505 57.0128 70.0923 57.0483C72.1842 57.6865 73.496 56.3392 74.0633 55.2046C73.4606 55.8428 73.0351 56.8356 71.9714 57.0483ZM55.981 58.4665C55.5201 57.1192 54.4564 56.4101 53.3218 55.701C53.0382 55.7719 52.79 55.4882 52.5418 55.6655C54.2437 56.0555 55.2719 57.1192 55.981 58.4665ZM59.562 59.7784C59.8811 60.1329 60.3066 60.6293 60.8029 60.7711C60.9093 60.8066 61.583 60.8066 61.2993 60.7711C59.4202 60.4875 58.8174 58.2183 57.8247 56.871C57.6119 56.5874 56.9737 55.7719 56.8319 55.8073H56.8674C57.9665 56.8001 58.6047 58.6083 59.562 59.7784ZM70.8369 55.8073C69.915 55.9492 68.745 56.6228 67.6813 56.481C67.3622 56.4455 67.0786 56.1974 66.7595 56.2683C68.1068 56.9419 69.8087 56.1974 71.0141 55.8073C70.9432 55.8073 70.9078 55.8073 70.8369 55.8073ZM64.0648 56.9065C64.2421 57.5447 63.8876 58.112 63.7458 58.7502C63.7103 58.8565 63.7812 59.0338 63.7812 58.8565C63.8876 58.2183 64.3485 57.7219 64.2067 57.0128C64.1003 56.4101 63.533 56.1264 62.9657 55.9137C62.8948 55.9137 62.8594 55.9492 62.9657 55.9492C63.3912 56.2328 63.8876 56.3746 64.0648 56.9065ZM77.9989 56.091C77.8571 56.091 76.297 56.091 77.1834 56.1264C77.3607 56.1264 77.5025 56.1264 77.6798 56.1264C79.3817 56.3392 80.7644 56.871 81.1544 58.431C80.9772 56.9419 79.4171 56.2328 77.9989 56.091ZM52.8254 57.0128C52.5063 56.8001 52.2227 56.5874 52.0454 56.8001C52.4 56.7292 52.5418 57.1546 52.8254 57.0128ZM47.3298 57.3319C47.1525 57.3674 46.9398 57.1901 46.8334 57.3319C47.0107 57.2965 47.3653 57.4738 47.3298 57.3319ZM62.8239 58.6792C62.7884 58.3601 62.8948 57.6865 62.7885 57.5801C62.7885 57.8992 62.7175 58.5729 62.8239 58.6792ZM62.2212 60.8775C61.973 60.9129 61.583 60.8066 61.4057 60.9129C61.6539 60.8775 62.0439 60.9839 62.2212 60.8775ZM59.8102 64.8485C60.2002 65.3449 60.8738 65.6994 61.2284 66.1249C61.7602 66.7631 61.6539 67.7559 62.0439 68.6423C61.7957 67.6495 61.7957 66.5858 61.1575 65.9476C61.0157 65.8058 60.8384 65.6994 60.6966 65.5931C59.8811 64.884 59.2784 64.1039 58.8174 63.0403C58.8174 63.0757 58.8174 63.1466 58.8174 63.1821C59.172 63.7848 59.3847 64.3521 59.8102 64.8485ZM57.2219 65.6285C57.2219 65.5222 57.2574 65.0967 57.1865 65.2031C57.1865 65.3094 57.151 65.7349 57.2219 65.6285ZM57.7183 68.5713C57.6119 69.3868 57.0801 69.9896 56.8319 70.5569C56.4774 72.4005 56.8674 74.7052 57.6119 76.017C57.0801 74.3861 56.4065 72.6842 56.8674 70.8405C57.0092 70.2378 57.541 69.635 57.6828 69.0677C58.0729 67.7559 57.3283 66.7631 57.2219 65.8058C57.2928 66.7277 57.8601 67.5786 57.7183 68.5713ZM58.9592 68.4295C59.1365 69.4223 58.7465 70.4505 58.8174 71.6205C58.782 71.7623 58.8883 71.9751 58.8529 71.7269C58.8529 71.5851 58.8529 71.4432 58.8529 71.3014C58.8883 70.3441 59.2074 69.4577 59.0656 68.5359C58.9238 67.614 58.1438 67.2949 57.6474 66.7631C58.0729 67.4013 58.8174 67.5786 58.9592 68.4295ZM66.8658 68.8195C66.8658 68.6777 66.5113 68.5004 66.5822 68.6068C66.6177 68.7486 67.1849 69.0323 66.8658 68.8195ZM61.7957 73.3224C61.6893 73.3578 61.7248 73.5351 61.6539 73.606C61.6893 73.8542 61.8312 73.3933 61.8312 73.3933C62.4694 71.656 61.4057 70.415 60.732 69.4577C60.6257 69.3159 60.3775 68.855 60.4484 69.0323C61.1929 70.1668 62.3275 71.3723 61.7957 73.3224ZM52.9318 74.7406C52.9318 74.7761 52.8963 74.9179 52.8963 75.0243C52.8609 75.4497 52.8609 75.237 52.9318 75.0243C53.2154 74.2442 53.4636 73.5351 53.9246 73.0033C54.7755 72.046 56.0519 71.656 56.761 70.5214C55.3782 72.0105 53.3573 72.6842 52.9318 74.7406ZM52.8254 75.7688C52.8254 75.6625 52.8609 75.2725 52.79 75.4143C52.79 75.4852 52.7545 75.8752 52.8254 75.7688Z" fill="#5C443C"/>
<path fill-rule="evenodd" clip-rule="evenodd" d="M36.6931 54.5308C36.4095 54.9917 35.984 55.7008 36.0195 56.6226C36.4095 56.0199 36.5868 55.2044 37.225 54.8499C38.3595 56.339 36.3031 57.2608 36.2322 58.5727C35.7358 58.0054 35.1331 57.119 35.2394 56.1617C35.2749 55.2399 35.9486 54.8499 36.6931 54.5308ZM36.374 57.3318C36.4449 57.3318 36.5158 57.3318 36.5868 57.3318C36.5868 57.1899 36.5513 57.0481 36.6222 56.9772C36.7286 56.9772 36.7995 56.9772 36.9059 56.9772C36.9059 56.9063 36.9059 56.8354 36.9059 56.7645C36.4804 56.6936 36.3031 56.8708 36.374 57.3318Z" fill="#32513A"/>
<path fill-rule="evenodd" clip-rule="evenodd" d="M68.674 68.4648C69.0286 68.3939 69.3831 68.7485 69.7377 68.8903C69.454 68.8903 69.0995 68.5358 68.674 68.4648Z" fill="#32513A"/>
<path fill-rule="evenodd" clip-rule="evenodd" d="M66.4759 38.3988C68.0714 38.2215 69.0287 38.576 69.9151 39.1788C70.6596 39.6752 71.7233 40.7034 72.6806 39.6043C72.6451 40.3488 71.6169 40.7034 70.8015 40.4197C69.7732 40.0652 68.9578 38.647 67.0786 39.2852C67.2559 39.3915 67.4332 39.5333 67.6105 39.6043C67.6105 39.3915 67.3268 39.4624 67.3268 39.2852C68.5323 39.1788 68.8869 39.9234 69.0996 40.8452C68.9932 40.7743 68.8869 40.7388 68.745 40.7034C67.8232 40.987 67.0432 40.5616 66.9723 39.7461C67.3268 39.7106 67.6814 40.0297 68.0359 40.1715C68.0005 39.9943 67.9296 39.8524 67.8232 39.7461C67.7168 39.7461 67.7523 39.9588 67.8586 39.8879C67.2914 39.7106 66.2277 39.2852 65.5186 39.7461C65.1995 39.4979 64.8449 39.2497 64.5258 39.0015C65.5895 38.576 66.6532 38.1151 67.0786 37.0869C67.1495 37.6187 66.795 38.1151 66.4759 38.3988ZM65.6959 39.4979C66.3695 39.037 67.1495 38.6824 68.1423 38.5051C67.0077 38.5406 66.2986 38.9661 65.6959 39.4979Z" fill="#32513A"/>
<path fill-rule="evenodd" clip-rule="evenodd" d="M53.6054 37.6896C55.2009 39.2497 58.1083 39.5333 59.9165 40.8452C59.491 41.0225 59.1719 41.3416 58.7819 41.5897C58.0019 41.1288 56.8319 40.597 55.8391 40.1715C55.3782 39.9942 55.0591 39.9233 54.5627 39.7461C54.3854 39.6751 54.2791 39.5333 54.1018 39.5333C53.5345 39.4624 52.9672 39.7461 52.4354 39.9588C52.6127 39.6751 52.8254 39.4624 53.18 39.356C51.3008 38.2215 50.0244 41.377 48.2162 40.1715C48.0034 40.0297 47.9325 39.817 47.7552 39.5333C48.1098 39.7461 48.5353 40.1006 49.138 40.0297C49.6344 39.9942 49.989 39.5688 50.4144 39.2497C51.2654 38.6469 52.1872 38.2215 53.8182 38.4342C53.6409 38.1151 53.57 38.3633 53.3218 38.3278C51.8326 38.186 51.5845 36.4132 52.2227 35.0659C53.0381 35.8459 54.74 36.3423 54.1018 38.0087C53.8536 37.9733 53.8536 37.7251 53.6054 37.6896ZM53.6054 37.6896C53.4991 37.5124 53.3927 37.3705 53.18 37.2642C53.2509 37.4769 53.4281 37.5833 53.6054 37.6896ZM53.0736 37.0514C52.9318 36.9805 52.8254 36.6969 52.719 36.7678C52.8963 37.2642 53.0736 37.796 53.4991 38.0796C53.3218 37.7251 53.0381 37.5124 52.9318 37.0869C52.9672 37.1223 53.109 37.1933 53.0736 37.0514ZM58.4274 40.8806C57.6474 39.7815 56.3355 39.2497 54.8464 38.8951C54.7755 38.7888 54.5982 38.7533 54.4918 38.7178C54.4209 38.7178 54.3854 38.7533 54.4918 38.7533C55.91 39.3915 57.541 39.7461 58.4274 40.8806Z" fill="#32513A"/>
<path fill-rule="evenodd" clip-rule="evenodd" d="M54.5273 35.1011C55.3428 36.2002 56.4773 36.9802 58.0019 37.4057C56.4773 37.193 55.2009 36.3066 54.5273 35.1011Z" fill="#32513A"/>
<path fill-rule="evenodd" clip-rule="evenodd" d="M45.238 38.4697C43.8197 39.427 42.2597 40.278 41.7988 42.1926C42.0824 40.278 43.7134 39.3207 45.238 38.4697Z" fill="#32513A"/>
<path fill-rule="evenodd" clip-rule="evenodd" d="M73.5315 38.5051C73.6733 38.3633 73.8506 38.5405 74.0279 38.5051C74.0988 38.6469 73.7088 38.4696 73.5315 38.5051Z" fill="#32513A"/>
<path fill-rule="evenodd" clip-rule="evenodd" d="M68.1422 38.5049C67.1849 38.6822 66.3695 39.0367 65.6958 39.4976C66.2985 38.9658 67.0077 38.5403 68.1422 38.5049Z" fill="#32513A"/>
<path fill-rule="evenodd" clip-rule="evenodd" d="M74.3115 38.6464C73.7796 38.5755 74.4888 38.611 74.6306 38.6464C75.4106 38.8237 76.2261 39.391 76.8643 39.8519C78.8143 41.1638 80.4453 43.3265 81.1189 45.773C81.1544 45.8439 81.0835 45.9503 81.0835 45.8793C79.9489 42.2983 77.7507 39.8519 74.3115 38.6464Z" fill="#32513A"/>
<path fill-rule="evenodd" clip-rule="evenodd" d="M54.4918 38.789C54.3854 38.789 54.4208 38.7181 54.4918 38.7536C54.6336 38.8245 54.7754 38.8245 54.8463 38.9309C56.3354 39.2854 57.6473 39.8172 58.4273 40.9164C57.5409 39.7463 55.91 39.3918 54.4918 38.789Z" fill="#32513A"/>
<path fill-rule="evenodd" clip-rule="evenodd" d="M58.2856 43.6461C58.5692 42.7951 59.2783 42.1215 59.9874 41.5542C60.6966 40.9514 61.4411 40.3842 62.3275 39.9941C62.5403 40.0296 62.2212 40.0651 62.1857 40.1005C60.6966 40.916 59.172 42.1215 58.2856 43.6461Z" fill="#32513A"/>
<path fill-rule="evenodd" clip-rule="evenodd" d="M54.3146 40.7034C54.3146 40.597 54.3855 40.6325 54.35 40.7034C53.2155 42.157 52.2936 44.2489 52.2582 46.8372C52.2582 47.2626 52.1872 47.0499 52.2227 46.5181C52.3291 44.0362 53.0736 42.1216 54.3146 40.7034Z" fill="#E7D200"/>
<path fill-rule="evenodd" clip-rule="evenodd" d="M44.6707 44.9935C44.7416 44.568 45.0252 44.178 45.2734 43.8589C46.5498 42.2279 48.5708 41.2352 51.4427 41.1997C51.4072 41.3061 51.1945 41.1997 51.0881 41.2352C47.9326 41.4834 45.8407 42.7952 44.6707 44.9935Z" fill="#32513A"/>
<path fill-rule="evenodd" clip-rule="evenodd" d="M32.3675 52.7227C32.4739 51.8364 33.0057 50.95 33.5021 50.3118C33.0412 50.3827 32.3321 50.3118 31.8002 50.2054C32.8639 50.0281 34.0339 49.9218 34.6012 49.2481C35.2394 47.688 36.1967 46.4826 37.2958 45.3834C36.1967 45.6671 35.3103 46.1635 34.4949 46.7662C34.4949 46.518 34.9558 46.3407 35.0621 46.0925C34.6012 46.3053 34.3885 46.8017 33.9985 47.0853C34.1758 47.2271 34.353 46.908 34.4949 46.8017C34.9912 46.4471 35.6649 46.0925 36.2676 45.8444C35.984 47.0498 35.1685 47.7235 33.573 47.5817C33.3603 47.5462 33.3957 47.7235 33.2185 47.7235C33.3248 46.1989 34.2821 44.7452 35.984 45.3834C35.7003 45.6316 35.2749 45.738 35.0621 46.0571C35.984 45.2771 37.3668 44.958 38.5368 44.4616C37.9695 44.3198 37.4377 44.107 36.9767 43.8588C37.154 44.107 37.4731 44.2134 37.7922 44.3198C36.1258 45.1707 34.8494 43.6816 35.1331 41.8024C35.5585 42.1215 36.1967 41.9797 36.6931 42.0861C37.5795 42.2988 37.8986 42.9725 38.0759 43.8588C37.2958 43.7879 36.7995 43.3979 36.2322 43.1143C36.3031 43.327 36.6222 43.6816 36.9058 43.8588C36.9767 43.717 36.6576 43.6107 36.5867 43.5043C37.2958 43.717 38.2886 44.2843 39.2814 44.0007C39.6359 43.8943 40.0259 43.6107 40.4159 43.4334C41.586 43.0079 43.0751 42.7243 44.5997 42.6534C44.4579 42.3697 44.1033 41.9442 44.1033 41.377C44.5288 41.8379 44.8479 42.4052 45.3443 42.7597C45.3797 42.9015 45.0961 43.1497 44.9188 43.3625C44.7415 43.5752 44.5288 43.7879 44.4224 44.0007C41.6214 44.107 39.565 45.2416 37.8277 46.8017C36.1613 48.2908 34.9912 50.6663 34.8849 53.3255C34.4949 53.68 33.963 53.8928 33.6439 54.2828C33.3957 52.8646 33.8567 51.3045 34.2112 50.1699C33.4312 50.8081 32.8994 51.7654 32.3675 52.7227ZM34.814 50.7018C35.4876 47.4044 38.5013 44.0007 41.8342 43.3625C42.0114 43.327 42.5433 43.2561 42.6496 43.2561C42.4369 43.1852 42.0114 43.2561 41.7632 43.2916C38.1113 43.9298 35.3458 47.5108 34.7076 51.0918C34.7785 51.73 34.814 50.7727 34.814 50.7018ZM34.6721 51.9782C34.6721 51.8718 34.7076 51.4463 34.6367 51.5527C34.6721 51.6591 34.6012 52.0845 34.6721 51.9782Z" fill="#32513A"/>
<path fill-rule="evenodd" clip-rule="evenodd" d="M32.793 51.0913C32.5803 51.5877 32.1903 52.3323 32.1548 53.1477C32.5448 52.545 32.8994 51.9068 33.2539 51.2686C33.4312 51.5522 33.5376 51.9422 33.5376 52.3323C33.5376 53.8568 32.1903 54.2469 31.1975 54.8851C30.7011 53.1477 31.2684 51.3395 32.793 51.0913Z" fill="#32513A"/>
<path fill-rule="evenodd" clip-rule="evenodd" d="M42.0115 40.5614C42.9333 39.7105 44.0679 38.7532 45.3088 38.3631C45.9825 37.8668 46.4434 37.1931 46.9398 36.5195C46.8334 37.0513 46.6207 37.4768 46.337 37.8313C47.0107 37.654 47.7553 37.5831 48.4289 37.3704C49.6344 37.0158 50.1662 36.2358 50.8044 35.314C50.5917 37.2995 49.0671 37.8668 47.3653 38.3277C44.777 39.0723 42.8269 40.9514 41.586 42.9015C40.9123 43.0787 40.345 43.3624 39.7068 43.5397C39.8487 43.0433 40.4869 42.6178 40.6287 42.0151C40.8414 41.0578 40.345 40.3132 40.0614 39.6041C40.5578 39.9941 40.8769 40.6323 41.0187 41.3769C41.6215 40.5259 41.976 39.4623 42.3306 38.3986C42.5433 39.2141 42.1887 39.9586 42.0115 40.5614ZM41.7987 42.1569C42.2597 40.2423 43.8197 39.4268 45.2379 38.4341C43.7133 39.3204 42.0824 40.2777 41.7987 42.1569Z" fill="#32513A"/>
<path fill-rule="evenodd" clip-rule="evenodd" d="M64.8803 42.4761C64.5612 42.8661 64.1358 43.1497 63.7457 43.5397C63.3912 43.8943 63.0366 44.3198 62.753 44.7807C62.1502 45.6316 61.4766 46.6244 61.3348 47.8653C61.2639 48.4326 61.3348 49.3545 61.2284 49.709C61.1575 50.0281 61.1929 50.8436 61.1929 50.1345C61.1929 50.0281 61.1929 49.9217 61.1929 49.7799C61.3702 49.0354 61.1575 48.1135 61.3348 47.3689C61.5475 46.4116 62.1857 45.4189 62.7884 44.6034C63.3912 43.717 64.1712 42.9725 64.8803 42.4761Z" fill="#32513A"/>
<path fill-rule="evenodd" clip-rule="evenodd" d="M71.1914 46.1631C71.1914 45.8795 71.4396 45.6668 71.6169 45.4895C72.6805 44.2131 74.3824 43.3621 76.5097 43.1494C77.2543 43.1849 77.3607 43.114 76.6516 43.1849C74.347 43.3976 72.1487 44.4967 71.1914 46.1631Z" fill="#32513A"/>
<path fill-rule="evenodd" clip-rule="evenodd" d="M34.7431 51.0916C35.3813 47.5461 38.1468 43.965 41.7988 43.2914C42.0115 43.2559 42.437 43.185 42.6852 43.2559C42.5788 43.2205 42.047 43.3268 41.8697 43.3623C38.5369 44.0005 35.5231 47.4042 34.8495 50.7016C34.814 50.7725 34.7786 51.7298 34.7431 51.0916Z" fill="#32513A"/>
<path fill-rule="evenodd" clip-rule="evenodd" d="M56.3 43.3271C56.1937 43.3271 56.2291 43.2562 56.3 43.2917C57.7537 44.6744 59.3847 46.3408 60.3774 48.4327C60.6965 49.1064 61.0511 49.9219 61.1575 50.7373C61.4056 52.5101 61.1575 54.0702 61.7602 55.3111C62.0793 56.0202 62.7175 56.4811 62.7175 57.5094C62.6111 57.4739 62.7175 57.2612 62.682 57.1548C62.1148 55.8784 61.2993 55.0629 61.1575 53.361C61.0865 52.3683 61.1575 51.6592 61.0156 50.7019C60.5193 47.3336 58.1792 45.3481 56.3 43.3271Z" fill="#E7D200"/>
<path fill-rule="evenodd" clip-rule="evenodd" d="M50.769 48.9642C50.0599 47.4396 49.4571 46.1278 48.5353 44.8868C48.2517 44.4968 47.8616 44.1777 47.5425 43.7877C47.3653 43.5395 47.6489 43.8586 47.6489 43.8231C48.358 44.3195 48.8899 45.135 49.3862 45.915C49.9181 46.8369 50.3435 47.8651 50.769 48.9642Z" fill="#E7D200"/>
<path fill-rule="evenodd" clip-rule="evenodd" d="M85.2318 46.0568C85.3737 46.3404 85.6573 46.4823 85.8346 46.695C85.0191 46.2695 84.0618 45.6313 82.9627 45.3831C84.0618 46.305 84.8773 47.7232 85.5864 49.0351C86.0119 49.8505 87.2528 50.0278 88.4583 50.1342C87.9974 50.276 87.2883 50.4178 86.7564 50.2406C87.2173 50.9851 87.7492 51.6588 87.891 52.7225C87.3237 51.8006 86.8273 50.8433 86.0119 50.1696C86.6501 52.0488 86.8273 54.247 86.6146 56.5517C86.4019 58.9272 84.2036 61.1609 85.5509 63.6073C85.48 63.9619 85.2318 64.1037 85.2318 64.5292C84.5582 63.7491 84.0973 62.7209 84.2745 61.2318C84.4164 59.9199 85.3027 58.5726 85.5155 57.0126C85.6573 55.9135 85.6218 54.8143 85.5155 53.8216C85.1964 50.5951 84.0973 47.865 81.7926 46.4114C81.5799 45.5604 81.2608 44.8159 80.9062 44.0713C81.3672 44.1422 81.6508 44.6031 82.1117 44.8159C82.289 44.8868 82.5018 44.8513 82.7145 44.9222C83.6718 45.1704 84.4873 45.7022 85.1964 46.1632C85.2318 45.9504 84.7709 45.8441 84.5936 45.6668C86.4019 45.0286 87.3946 46.5532 87.5364 48.1487C87.0755 47.9005 86.4728 48.0423 85.9764 47.9714C84.9482 47.8296 84.4873 47.0141 84.2391 46.0923C84.8773 46.2695 85.5509 46.8368 86.2246 47.1914C85.9409 46.695 85.6573 46.305 85.2318 46.0568ZM86.0119 56.0198C86.1182 55.6298 86.2955 54.9207 86.331 54.4243C86.721 49.9569 84.1682 47.085 82.2181 45.135C84.5582 47.5105 87.0755 51.0206 86.0119 56.0198Z" fill="#32513A"/>
<path fill-rule="evenodd" clip-rule="evenodd" d="M71.6169 44.355C69.9859 46.5887 68.5677 49.4251 67.5041 52.4034C67.1495 53.4316 67.0077 54.6016 66.5468 55.5235C66.2631 56.0553 65.7667 56.5517 65.4476 57.0835C65.6958 56.5872 66.0504 56.1617 66.334 55.6653C66.6177 55.1335 66.7949 54.5662 66.9722 53.928C67.9295 50.3824 69.6314 46.9432 71.6169 44.355Z" fill="#E7D200"/>
<path fill-rule="evenodd" clip-rule="evenodd" d="M82.2181 45.0996C84.1682 47.0497 86.721 49.9216 86.331 54.389C86.2955 54.8853 86.1183 55.5945 86.0119 55.9845C87.0756 51.0207 84.5582 47.5106 82.2181 45.0996Z" fill="#32513A"/>
<path fill-rule="evenodd" clip-rule="evenodd" d="M62.4693 59.3881C61.512 58.5371 60.732 57.3671 60.4838 55.8071C60.3774 55.1334 60.4129 54.4243 60.342 53.7506C60.0583 51.056 59.2783 48.5387 58.1083 46.8368C58.1083 46.7659 58.1437 46.7304 58.1437 46.8013C59.2429 48.3259 59.9874 50.6306 60.342 52.9706C60.6256 55.027 60.4483 57.1544 61.6184 58.4662C61.902 58.7853 62.2211 59.0335 62.4693 59.3881Z" fill="#E7D200"/>
<path fill-rule="evenodd" clip-rule="evenodd" d="M54.1726 48.7163C54.279 48.8936 54.1726 49.0709 54.1726 49.1772C54.1726 49.4609 54.1372 49.8509 54.1372 49.4963C54.1017 49.3545 54.1372 49.0354 54.1726 48.7163Z" fill="#32513A"/>
<path fill-rule="evenodd" clip-rule="evenodd" d="M38.7141 48.8228C39.8487 50.4537 39.6005 53.0065 40.8769 54.4247C42.3306 56.0202 44.5643 56.5875 46.798 57.2612C44.387 56.7293 41.9406 55.8784 40.6287 54.2475C40.0614 53.5738 39.8841 52.5101 39.6714 51.5528C39.4232 50.5246 39.0687 49.6737 38.7141 48.8228Z" fill="#E7D200"/>
<path fill-rule="evenodd" clip-rule="evenodd" d="M58.7819 49.3188C58.8883 49.8861 59.0656 50.418 59.101 50.9853C59.2783 52.9708 58.4983 55.2045 58.8174 56.9773C58.9238 57.5445 59.2429 58.0055 59.2783 58.5373C57.8956 56.0909 59.5974 52.2617 58.7819 49.3188Z" fill="#E7D200"/>
<path fill-rule="evenodd" clip-rule="evenodd" d="M51.4427 50.1698C51.3363 50.028 51.4072 49.7089 51.2654 49.6025C51.2299 49.4252 51.3363 49.2125 51.3009 49.4961C51.4072 49.7443 51.4781 49.9216 51.4427 50.1698Z" fill="#32513A"/>
<path fill-rule="evenodd" clip-rule="evenodd" d="M62.5757 63.9264C62.292 63.3237 62.2211 62.721 61.7956 62.3309C61.1929 61.7637 60.1647 61.9055 59.5619 61.3382C60.0229 62.5082 61.2993 63.2173 62.3275 63.9619C61.9375 63.8201 61.5829 63.5364 61.2283 63.2882C60.8738 63.0401 60.4838 62.7919 60.1647 62.4728C59.0301 61.3027 59.1365 59.2818 58.0019 58.0763C58.2146 58.8918 58.2855 59.8845 58.4274 60.8773C59.0656 65.3801 63.8166 65.9829 66.5467 68.5357C65.8021 68.0748 65.093 67.5075 64.313 67.0111C61.6893 65.3801 58.8528 64.4583 58.321 60.5936C58.2501 60.1682 58.2855 59.7072 58.1792 59.1754C57.8601 57.1899 56.3709 56.3744 55.3427 54.9916C54.6336 53.538 53.9954 52.0488 54.0663 49.8506C54.1727 49.8506 54.1018 50.4179 54.1018 50.6306C54.1727 50.8433 54.1727 51.0561 54.2081 51.4461C54.3854 53.6443 55.6264 55.0271 56.69 56.4099C57.3991 57.0481 57.8246 57.7217 58.3919 58.4308C58.711 58.8208 58.8883 59.1754 59.0301 59.6363C59.1719 60.0972 59.2783 60.9127 59.5619 61.3027C60.0583 61.87 61.4056 61.7991 62.0084 62.4019C62.3629 62.7919 62.3984 63.2528 62.5757 63.9264Z" fill="#E7D200"/>
<path fill-rule="evenodd" clip-rule="evenodd" d="M51.5136 50.1699C51.62 50.3472 51.6199 50.5954 51.7618 50.7372C51.7972 50.9499 51.6909 51.0563 51.7263 50.7727C51.6554 50.7372 51.7263 50.5599 51.5845 50.5954C51.5845 50.4181 51.4781 50.3827 51.5136 50.1699Z" fill="#32513A"/>
<path fill-rule="evenodd" clip-rule="evenodd" d="M62.2567 69.1385C62.2921 68.9966 62.1857 69.0321 62.2212 68.9257C62.2921 68.9257 62.3985 69.1385 62.2567 69.1385C62.4339 69.1385 62.4694 69.3512 62.6821 69.4221C61.7248 68.9966 60.8384 68.1103 60.0584 67.2239C59.0657 66.0538 57.9311 65.0611 57.7183 63.1819C57.5411 61.5864 57.8247 60.2746 57.5765 58.9982C57.1865 57.119 55.7683 56.1972 54.6337 55.0271C54.5982 55.0271 54.4564 54.9208 54.4564 55.0271C54.421 54.9917 54.421 54.8499 54.3146 54.7435C53.2864 53.8217 52.4355 52.7225 51.9036 51.3398C51.9036 51.3043 51.9036 51.2689 51.9036 51.2334C52.5418 52.6162 53.3573 53.8571 54.5628 54.708C54.7401 55.0271 54.9528 55.2753 55.3428 55.3817C55.6974 55.9135 56.1583 56.339 56.5838 56.8354C57.1156 57.4736 57.5765 58.1118 57.7183 59.1755C57.9311 60.5937 57.6474 61.941 57.8602 63.3592C58.0374 64.6711 58.8529 65.7347 59.6329 66.6566C60.4484 67.6848 61.3703 68.5357 62.2567 69.1385Z" fill="#E7D200"/>
<path fill-rule="evenodd" clip-rule="evenodd" d="M32.6157 60.629C32.2611 59.8135 32.1193 58.3598 32.2966 57.2962C32.793 54.4597 35.4876 52.8288 38.785 52.8997C38.8559 52.8997 38.8913 52.9351 38.8204 52.9351C38.7495 52.9351 38.7141 52.9351 38.6431 52.9351C38.5368 52.9351 38.395 52.9351 38.2886 52.9351C38.0404 52.9351 37.7922 52.9351 37.544 52.9351C34.5303 53.5379 32.0129 55.2043 32.2611 58.9271C32.3675 59.5653 32.5448 59.9908 32.6157 60.629Z" fill="#32513A"/>
<path fill-rule="evenodd" clip-rule="evenodd" d="M79.4525 53.6799C79.5234 53.3962 80.0907 53.2544 80.4098 53.0771C81.4026 53.5381 83.1399 53.6799 84.5227 53.6799C84.3808 53.6799 84.239 53.6799 84.0972 53.6799C83.5654 53.7863 82.4662 53.7863 81.7571 53.6444C80.9771 53.4672 80.1616 52.829 79.4525 53.6799Z" fill="#E7D200"/>
<path fill-rule="evenodd" clip-rule="evenodd" d="M79.3108 53.3965C79.4526 53.5029 79.2399 53.6447 79.2044 53.751C79.2753 53.751 79.2753 53.751 79.3108 53.7156C77.9634 55.3111 76.1907 56.8357 73.957 57.6512C75.4106 56.9775 76.8643 56.0202 78.0344 54.992C78.5307 54.5311 79.0271 54.0701 79.3108 53.3965Z" fill="#E7D200"/>
<path fill-rule="evenodd" clip-rule="evenodd" d="M46.0534 54.9563C45.9116 54.7436 46.1243 54.8854 46.0889 55.0981C46.9753 56.6582 50.0953 56.2682 51.939 56.6936C49.7053 56.3745 46.798 56.7645 46.0534 54.9563Z" fill="#E7D200"/>
<path fill-rule="evenodd" clip-rule="evenodd" d="M74.0988 55.2397C73.4961 56.3743 72.1842 57.7216 70.1278 57.0834C69.986 57.048 69.7732 57.1543 69.7023 57.048C70.5887 57.0125 71.3333 57.2607 72.0069 57.0834C73.0352 56.8352 73.4606 55.8425 74.0988 55.2397Z" fill="#E7D200"/>
<path fill-rule="evenodd" clip-rule="evenodd" d="M52.5417 55.7008C52.7899 55.559 53.0381 55.8072 53.3218 55.7363C54.4564 56.41 55.52 57.1545 55.9809 58.5018C55.2718 57.1191 54.2436 56.0554 52.5417 55.7008Z" fill="#E7D200"/>
<path fill-rule="evenodd" clip-rule="evenodd" d="M56.8674 55.8073H56.8319C57.0092 55.7718 57.6474 56.5873 57.8247 56.8709C58.8174 58.2183 59.4556 60.4874 61.2993 60.7711C61.583 60.8065 60.9093 60.8065 60.8029 60.7711C60.342 60.6292 59.8811 60.1329 59.562 59.7783C58.6047 58.6083 57.9665 56.8 56.8674 55.8073Z" fill="#32513A"/>
<path fill-rule="evenodd" clip-rule="evenodd" d="M71.0142 55.8071C69.7732 56.1971 68.1068 56.9417 66.7595 56.2681C67.0786 56.1971 67.3623 56.4453 67.6814 56.4808C68.745 56.6226 69.9151 55.949 70.8369 55.8071C70.9078 55.8071 70.9433 55.8071 71.0142 55.8071Z" fill="#E7D200"/>
<path fill-rule="evenodd" clip-rule="evenodd" d="M62.9657 55.9492C62.8593 55.9492 62.8948 55.8783 62.9657 55.9137C63.533 56.1265 64.0648 56.4101 64.2066 57.0129C64.3485 57.722 63.8875 58.2183 63.7812 58.8565C63.7812 59.0693 63.7103 58.8565 63.7457 58.7502C63.8875 58.1474 64.2421 57.5801 64.0648 56.9065C63.8875 56.3747 63.3912 56.2328 62.9657 55.9492Z" fill="#E7D200"/>
<path fill-rule="evenodd" clip-rule="evenodd" d="M81.1544 58.4314C80.7644 56.9068 79.3817 56.3395 77.6798 56.1268C77.5025 56.1268 77.3607 56.1268 77.1834 56.1268C76.3325 56.0913 77.8571 56.0559 77.9989 56.0913C79.4171 56.2332 80.9772 56.9423 81.1544 58.4314Z" fill="#E7D200"/>
<path fill-rule="evenodd" clip-rule="evenodd" d="M52.0453 56.8001C52.2226 56.6228 52.5063 56.8355 52.8254 57.0128C52.5417 57.1546 52.3999 56.7292 52.0453 56.8001Z" fill="#32513A"/>
<path fill-rule="evenodd" clip-rule="evenodd" d="M82.8917 57.3318C82.9981 57.3673 82.9626 57.2609 82.9981 57.19C83.1045 57.0127 82.9626 57.4736 83.1045 57.4736C83.069 57.5446 82.8563 57.4382 82.8917 57.3318Z" fill="#32513A"/>
<path fill-rule="evenodd" clip-rule="evenodd" d="M46.8334 57.3322C46.9753 57.1904 47.1525 57.3677 47.3298 57.3322C47.3653 57.474 47.0107 57.2968 46.8334 57.3322Z" fill="#32513A"/>
<path fill-rule="evenodd" clip-rule="evenodd" d="M35.3458 63.7848C35.4876 62.9693 35.7004 62.012 35.6294 61.0192C35.4876 59.4592 34.4949 58.5019 34.0694 57.2964C34.424 58.2182 35.3813 59.1401 35.6294 60.2747C35.8422 61.5156 35.6294 62.7211 35.3458 63.7848Z" fill="#32513A"/>
<path fill-rule="evenodd" clip-rule="evenodd" d="M58.8174 63.1467C58.8174 63.1112 58.8174 63.0403 58.8174 63.0049C59.2784 64.0686 59.8811 64.8486 60.6966 65.5577C60.8384 65.6641 61.0157 65.8059 61.1575 65.9122C61.7603 66.5504 61.7957 67.6141 62.0439 68.6069C61.6539 67.7205 61.7603 66.7277 61.2284 66.0895C60.8739 65.6286 60.2002 65.3095 59.8102 64.8131C59.3847 64.3522 59.172 63.7849 58.8174 63.1467Z" fill="#E7D200"/>
<path fill-rule="evenodd" clip-rule="evenodd" d="M57.2929 65.7705C57.3992 66.7278 58.1438 67.7206 57.7538 69.0324C57.5765 69.5997 57.0801 70.2025 56.9383 70.8052C56.4774 72.6489 57.151 74.3508 57.6829 75.9817C56.9383 74.6699 56.5483 72.3652 56.9028 70.5216C57.151 69.9897 57.6829 69.3515 57.7892 68.536C57.8601 67.5787 57.2929 66.7278 57.2929 65.7705Z" fill="#E7D200"/>
<path fill-rule="evenodd" clip-rule="evenodd" d="M57.6829 66.7632C58.1792 67.295 58.9593 67.6141 59.1011 68.536C59.2429 69.4224 58.8884 70.3442 58.8884 71.3015C58.8884 71.4433 58.8884 71.5851 58.8884 71.727C58.8884 71.9752 58.8174 71.7979 58.8529 71.6206C58.7465 70.4506 59.172 69.3869 58.9947 68.4296C58.8174 67.5787 58.0729 67.4014 57.6829 66.7632Z" fill="#E7D200"/>
<path fill-rule="evenodd" clip-rule="evenodd" d="M66.5822 68.6072C66.5113 68.5008 66.8658 68.6781 66.8658 68.8199C67.1849 69.0326 66.6176 68.749 66.5822 68.6072Z" fill="#32513A"/>
<path fill-rule="evenodd" clip-rule="evenodd" d="M60.4838 69.0322C60.4129 68.8195 60.6611 69.3159 60.7674 69.4577C61.4411 70.415 62.5048 71.6559 61.8666 73.3933C61.8666 73.4287 61.6893 73.8542 61.6893 73.606C61.7602 73.5351 61.7247 73.3933 61.8311 73.3224C62.3275 71.3723 61.1929 70.1668 60.4838 69.0322Z" fill="#E7D200"/>
<path fill-rule="evenodd" clip-rule="evenodd" d="M56.7611 70.521C56.0519 71.6556 54.7401 72.0456 53.9246 73.0029C53.4637 73.5347 53.2155 74.2438 52.9319 75.0239C52.8609 75.2366 52.8609 75.4493 52.8964 75.0239C52.8964 74.9175 52.9319 74.7757 52.9319 74.7402C53.3573 72.6838 55.3783 72.0101 56.7611 70.521Z" fill="#32513A"/>
<path fill-rule="evenodd" clip-rule="evenodd" d="M52.9318 37.0867C53.0382 37.5122 53.3218 37.7604 53.4991 38.0795C53.0736 37.7958 52.8963 37.264 52.7191 36.7676C52.8254 36.6967 52.9672 36.9804 53.0736 37.0513C53.1091 37.1931 52.9672 37.1222 52.9318 37.0867Z" fill="#32513A"/>
<path fill-rule="evenodd" clip-rule="evenodd" d="M64.0293 40.2776C61.7602 41.3058 59.3847 42.2276 58.0374 44.1777C57.5764 43.965 57.3637 43.5395 56.9382 43.2913C58.321 41.6958 60.8029 40.4903 62.7884 39.5685C63.143 39.4266 63.6748 40.2067 64.0293 40.2776ZM62.1857 40.0648C62.2211 40.0648 62.5402 39.9939 62.3275 39.9585C61.4411 40.3485 60.6965 40.9158 59.9874 41.5185C59.2783 42.1213 58.6046 42.7595 58.2855 43.6104C59.1719 42.1213 60.6965 40.9158 62.1857 40.0648Z" fill="#32513A"/>
<path fill-rule="evenodd" clip-rule="evenodd" d="M53.1445 41.3059C52.8609 41.7314 52.5063 42.0859 52.2227 42.5114C49.599 41.4832 46.9044 42.5468 45.4507 44.2842C44.2097 45.7378 43.2879 47.5461 43.217 49.8152C42.9333 49.0352 42.8979 48.2552 43.0397 47.4752C43.3233 45.7378 44.3516 43.9651 45.5925 42.795C47.3298 41.1995 50.2372 40.3486 53.1445 41.3059ZM51.0881 41.2704C51.1945 41.235 51.4072 41.3414 51.4427 41.235C48.5708 41.2704 46.5144 42.2632 45.2734 43.8942C45.0252 44.2133 44.777 44.6033 44.6707 45.0287C45.8407 42.795 47.9326 41.4832 51.0881 41.2704Z" fill="#32513A"/>
<path fill-rule="evenodd" clip-rule="evenodd" d="M79.5944 46.341C79.5944 46.3764 79.6298 46.3764 79.6298 46.4473C79.8426 46.2701 80.1262 47.0501 80.2326 47.4046C79.7008 47.0146 79.098 46.731 78.1407 46.7664C78.6725 47.1919 79.488 47.4046 79.8071 47.9719C77.9989 48.6101 76.8289 47.0146 77.3961 44.9937C77.7152 45.7737 79.4171 45.49 79.5944 46.341Z" fill="#32513A"/>
<path fill-rule="evenodd" clip-rule="evenodd" d="M77.2543 47.6523C77.2898 47.6878 77.3252 47.6878 77.3962 47.6878C77.6443 48.2196 78.1762 48.7515 78.0698 49.5669C77.9989 50.4888 77.1834 50.9852 76.4743 51.3043C76.4743 50.5597 75.6943 49.8151 76.0134 48.7515C76.1198 48.3969 76.4389 48.1842 76.6161 47.8296C76.8643 48.5033 76.7225 49.4606 76.758 50.1697C77.2543 49.7088 77.3962 48.5033 77.2543 47.6523Z" fill="#32513A"/>
<path fill-rule="evenodd" clip-rule="evenodd" d="M74.7724 44.32C75.0915 44.2846 75.4106 44.1782 75.7652 44.1782C76.6515 45.4901 77.6798 47.6529 76.9706 49.532C76.6161 49.2838 77.0416 48.6811 76.8643 48.6456C76.7225 46.6956 75.8006 45.4546 74.7724 44.32Z" fill="#32513A"/>
<path fill-rule="evenodd" clip-rule="evenodd" d="M34.7431 55.4175C34.7785 55.4175 34.7785 55.4529 34.7785 55.4529C34.3885 58.5376 36.9413 60.9486 35.594 63.7495C35.0976 64.7778 33.7503 66.4442 31.9775 65.8414C33.183 65.5223 33.9276 64.8487 34.4949 63.9977C34.9913 63.2886 35.3458 61.9059 35.0622 60.6649C34.9204 60.0622 34.5658 59.3885 34.3176 58.7503C34.0694 58.1476 33.644 57.3321 33.7149 56.7293C33.7858 56.2684 34.5303 55.6302 34.7431 55.4175ZM35.594 60.3104C35.3458 59.1758 34.3885 58.2539 34.034 57.3321C34.4594 58.5021 35.4522 59.4949 35.594 61.0549C35.6649 62.0477 35.4522 62.9695 35.3104 63.8205C35.6295 62.7213 35.8422 61.5158 35.594 60.3104Z" fill="#32513A"/>
<path fill-rule="evenodd" clip-rule="evenodd" d="M48.5353 58.2891C49.1735 58.5727 49.7408 58.6436 49.9181 59.2109C50.1663 59.9909 49.4217 61.2319 50.0245 61.8346C48.3226 62.0119 46.9044 60.2037 47.8262 58.5727C47.7553 59.4236 48.0744 60.1328 48.6417 60.4873C48.4289 59.9555 48.0035 58.9627 48.5353 58.2891Z" fill="#32513A"/>
</svg>
