<svg width="100" height="100" viewBox="0 0 100 100" fill="none" xmlns="http://www.w3.org/2000/svg">
<g clip-path="url(#clip0_75_2)">
<path d="M49.9849 99.5478C77.3289 99.5478 99.5478 77.2988 99.5478 49.9849C99.5478 22.6711 77.3289 0.422089 49.9849 0.422089C22.6711 0.422089 0.422058 22.6711 0.422058 49.9849C0.422058 77.2988 22.6711 99.5478 49.9849 99.5478Z" fill="black"/>
<path d="M20.1387 50.1056C20.1387 33.7957 33.3735 20.5608 49.6834 20.5608C65.9934 20.5608 79.2282 33.7957 79.2282 50.1056C79.2282 66.4155 65.9934 79.6504 49.6834 79.6504C33.3735 79.6504 20.1387 66.4155 20.1387 50.1056Z" fill="#F2E8DB"/>
<path d="M21.013 50.1056C21.013 34.3082 33.886 21.4351 49.6835 21.4351C65.4809 21.4351 78.3539 34.3082 78.3539 50.1056C78.3539 65.903 65.4809 78.7761 49.6835 78.7761C33.8559 78.7761 21.013 65.903 21.013 50.1056ZM49.6835 80.5246C66.4456 80.5246 80.1025 66.8677 80.1025 50.1056C80.1025 33.3434 66.4456 19.6865 49.6835 19.6865C32.9213 19.6865 19.2644 33.3434 19.2644 50.1056C19.2644 66.8677 32.8912 80.5246 49.6835 80.5246Z" fill="#5C443C"/>
<path d="M22.1586 50.1056C22.1586 34.9111 34.4588 22.6109 49.6533 22.6109C64.8478 22.6109 77.148 34.9111 77.148 50.1056C77.148 65.3 64.8478 77.6003 49.6533 77.6003C34.4588 77.6003 22.1586 65.3 22.1586 50.1056Z" fill="#F2E8DB"/>
<path d="M22.4601 50.1056C22.4601 35.092 34.6699 22.8822 49.6835 22.8822C64.697 22.8822 76.9069 35.092 76.9069 50.1056C76.9069 65.1191 64.697 77.329 49.6835 77.329C34.6699 77.329 22.4601 65.1191 22.4601 50.1056ZM49.6835 77.9018C64.9985 77.9018 77.4797 65.4206 77.4797 50.1056C77.4797 34.7905 64.9985 22.3094 49.6835 22.3094C34.3684 22.3094 21.8873 34.7905 21.8873 50.1056C21.8873 65.4206 34.3383 77.9018 49.6835 77.9018Z" fill="#5C443C"/>
<path d="M19.2945 58.5771C18.7519 60.0845 17.8776 61.411 16.732 62.5566C15.4055 63.8529 14.0187 64.5463 12.5414 64.6368C11.2149 64.6971 9.88843 64.3051 8.62223 63.4309C6.9641 62.2852 5.81849 61.0793 5.15524 59.8433C4.43169 58.4866 4.55228 56.8888 5.45671 55.0196C6.45159 53.0299 7.44646 51.5225 8.38104 50.5276C9.58695 49.2614 10.9737 48.5379 12.5716 48.3269C14.2598 48.0857 15.7672 48.5379 17.0033 49.6232C17.0334 49.6534 17.0636 49.6835 17.1239 49.7438L17.2445 49.8644C17.3651 49.9548 17.4555 50.0453 17.546 50.1357C17.757 50.3769 17.8776 50.5879 17.9077 50.7688C17.9077 50.8894 17.7871 50.8894 17.546 50.7387C17.4555 50.7085 17.3651 50.6482 17.2746 50.5578C17.2445 50.5276 17.2143 50.4975 17.1842 50.4673L17.1239 50.4372C16.6415 50.0151 15.9481 49.8041 15.0437 49.8342C14.3201 49.8644 13.5966 50.0151 12.8429 50.2865C11.5466 50.799 10.5215 51.5225 9.73769 52.5174C8.86341 53.6027 8.10971 54.8086 7.41632 56.0748C6.99425 56.8587 6.72292 57.4918 6.57218 58.0344C6.331 58.8183 6.30085 59.5117 6.42144 60.1448C6.57218 60.7779 6.87366 61.2904 7.32587 61.7727C7.74794 62.1948 8.26045 62.5264 8.89355 62.7375C9.49651 62.9485 10.0995 63.0389 10.7627 63.0389C11.426 63.0088 12.0289 62.8882 12.6017 62.647C13.687 62.1647 14.7121 61.3808 15.6165 60.3257C16.4908 59.3308 17.154 58.2153 17.5761 57.0697C17.5761 57.0395 17.6967 57.0998 17.8776 57.1903C18.0886 57.3109 18.2996 57.4616 18.5107 57.6124C18.7519 57.8234 18.9629 57.9741 19.0835 58.155C19.2945 58.2756 19.3548 58.4565 19.2945 58.5771Z" fill="#F2E8DB"/>
<path d="M24.3292 68.6766C25.0527 69.37 25.5954 70.184 25.9572 71.0884C26.2888 71.9627 26.4395 72.8671 26.4094 73.8017C26.3491 74.7363 26.1381 75.6407 25.716 76.4848C25.2939 77.3591 24.691 78.1128 23.9071 78.7158C22.3997 79.8312 20.621 80.2834 18.5107 80.1026C16.4606 79.8915 14.7422 79.1378 13.3554 77.8415C12.6319 77.1782 12.1194 76.3642 11.7576 75.4598C11.426 74.5855 11.2451 73.6509 11.2752 72.7164C11.3054 71.7516 11.5466 70.8774 11.9686 70.0332C12.4208 69.1589 13.0238 68.4354 13.8076 67.8324C15.315 66.717 17.0937 66.2647 19.2041 66.4456C21.224 66.6265 22.9424 67.3802 24.3292 68.6766ZM17.6665 79.168C19.0835 79.2283 20.41 78.8062 21.646 77.8716C22.7917 76.937 23.5152 75.7311 23.8468 74.2539C24.1785 72.7164 23.9674 71.2994 23.2137 70.0031C22.8218 69.2795 22.3394 68.7067 21.8269 68.2545C21.1938 67.6817 20.5306 67.3802 19.8372 67.3199C18.3298 67.2596 17.0033 67.6817 15.8577 68.6163C14.7121 69.5509 13.9885 70.7568 13.6569 72.234C13.3253 73.7715 13.5363 75.1885 14.29 76.4848C14.7121 77.2084 15.1643 77.7812 15.6768 78.2635C16.34 78.8364 17.0033 79.1378 17.6665 79.168Z" fill="#F2E8DB"/>
<path d="M30.5698 89.6594C30.6904 89.7197 30.6 89.8101 30.2985 89.9006C30.208 89.9307 30.1176 89.9609 29.9669 89.991C29.9367 89.991 29.8764 90.0212 29.8463 90.0212H29.8161H29.786H29.6955H29.6051L29.4242 90.0513C29.2735 90.0815 29.1529 90.0814 29.0323 90.0814C28.7308 90.1116 28.4896 90.0513 28.3087 89.9609L22.8821 86.7351L28.4595 77.329C28.6404 77.0275 28.7007 76.6356 28.6102 76.1833C28.5499 75.8517 28.369 75.5201 28.0073 75.2186C27.9168 75.1282 28.2183 75.0076 28.9418 74.887C29.6654 74.7664 30.0874 74.7664 30.208 74.8569C30.8411 75.4297 30.9919 76.0929 30.7507 76.8466C30.6603 77.1179 30.4794 77.4797 30.2382 77.8415L25.1131 86.4336L30.5698 89.6594Z" fill="#F2E8DB"/>
<path d="M48.7789 85.2879C49.1709 88.4535 49.0804 91.4984 48.4775 94.3624C48.4775 94.6036 48.1458 94.9051 47.5127 95.2367C47.2716 95.3573 47.0605 95.4477 46.8495 95.5382C46.6385 95.5985 46.4877 95.5985 46.3973 95.5382C46.7289 92.8852 46.9399 90.8653 47.0605 89.4483C47.1811 88.0314 47.0304 86.6747 46.6385 85.3482C46.3671 84.4438 45.9752 83.7203 45.4325 83.1776C44.7994 82.5143 44.0457 82.2129 43.1715 82.243C42.2972 82.2732 41.4832 82.6952 40.7596 83.4791C40.1567 84.1122 39.6743 84.896 39.2824 85.8607C39.2824 85.8909 39.2523 85.9512 39.2221 85.9813L39.1015 93.9403C39.1015 94.1815 38.7699 94.483 38.1368 94.8146C37.8956 94.9352 37.6846 95.0257 37.4735 95.1161C37.2625 95.1764 37.1721 95.1764 37.1721 95.1161L37.353 84.1122C37.3228 83.4791 37.2022 83.0269 36.9912 82.7857C36.7801 82.5144 36.4485 82.3335 35.9963 82.243C35.8757 82.2129 35.9059 82.0923 36.0867 81.8813C36.147 81.821 36.2375 81.7305 36.3279 81.6401C36.3581 81.6099 36.3882 81.5798 36.4184 81.5496L36.4485 81.5195L36.4787 81.4893L36.539 81.4592L36.5993 81.3989C36.6596 81.3687 36.6897 81.3386 36.75 81.2783C36.8706 81.1879 36.9912 81.0974 37.0816 81.0371C37.3831 80.8562 37.5941 80.7658 37.775 80.7959C38.2574 80.9165 38.589 81.0673 38.8302 81.3084C39.1015 81.5496 39.2523 81.9114 39.2824 82.3636C39.3126 82.7555 39.3427 83.3585 39.3126 84.1122C40.6993 82.5144 42.1464 81.4592 43.5634 80.9768C45.312 80.3739 46.6987 80.7959 47.7238 82.2129C48.0855 82.7254 48.3569 83.3585 48.5981 84.082C49.1106 83.4791 49.6834 82.9364 50.3165 82.4842C51.6128 81.5195 52.9393 80.9768 54.2658 80.8864C55.7732 80.7959 57.0696 81.2783 58.185 82.3636C59.2402 83.3886 59.7829 84.7151 59.7829 86.2828C59.813 87.8204 59.3306 89.177 58.3961 90.3528C57.3409 91.6793 55.9842 92.7646 54.3563 93.6389L59.9035 93.7293C60.024 93.7293 59.8733 93.9705 59.4211 94.4227C58.9689 94.8749 58.5468 95.1161 58.185 95.1161L50.4974 94.9955C49.8643 94.9955 49.8944 94.6639 50.5878 94.0911C50.8591 93.9102 51.1003 93.7896 51.3113 93.7595L51.8842 93.669C51.9746 93.6389 52.0952 93.6087 52.1555 93.6087C54.9291 93.0661 56.6475 91.8601 57.4012 89.991C57.8233 88.9358 57.974 87.8806 57.8534 86.7953C57.7027 85.6196 57.2505 84.6548 56.4968 83.9011C55.6828 83.1173 54.7482 82.5746 53.6327 82.3335C52.3665 82.032 51.0702 82.6048 49.7135 84.0519C49.3216 84.4438 49.0201 84.8357 48.7789 85.2879Z" fill="#F2E8DB"/>
<path d="M80.4642 83.2379L80.615 83.1475L80.7657 83.057H80.7958L80.826 83.0269C80.8561 82.9967 80.8863 82.9967 80.8863 83.0269C80.8863 83.057 80.8863 83.0872 80.8561 83.1173L80.826 83.1475L80.7958 83.1776C80.2532 83.8409 79.6201 84.3232 78.8965 84.6247C78.1127 84.9563 77.3289 85.0468 76.545 84.896C76.1531 84.8056 75.731 84.685 75.2788 84.5343C74.4648 87.2174 73.1082 89.0866 71.1787 90.1116C69.611 90.9256 68.0434 91.2874 66.4154 91.1668C66.3551 91.1065 66.3249 91.0462 66.3551 90.9557L66.0536 79.6805C65.4808 79.4091 64.9683 79.168 64.5161 79.0172C63.5513 78.7158 62.7977 78.5952 62.2248 78.7158C61.9535 78.7761 61.6219 78.9268 61.2601 79.168L60.8079 79.4694C60.627 79.59 60.4763 79.6805 60.3557 79.7408C60.3557 79.7408 60.3255 79.7709 60.2954 79.7709C60.2652 79.7709 60.2351 79.8011 60.2049 79.8312C60.1145 79.8614 60.0241 79.8915 59.9638 79.9217C59.7527 79.982 59.7226 79.9518 59.8733 79.7709C60.205 79.4092 60.627 79.0172 61.1395 78.5952C61.9837 77.9319 62.9182 77.5098 63.9734 77.3591C65.0587 77.2084 66.0536 77.3591 67.0183 77.8113H67.0485C67.0786 77.8113 67.1088 77.8415 67.1389 77.8415C67.2294 77.8716 67.3198 77.9319 67.4404 77.9621C67.772 78.1128 68.1037 78.2635 68.4051 78.4143C69.4 78.8966 70.1236 79.2584 70.6059 79.5599L71.4802 80.0423L72.3545 80.5548L73.0479 80.9467L73.7413 81.3386C74.2839 81.6702 74.7663 81.9416 75.1582 82.1224C76.2435 82.6953 77.2384 83.0872 78.1429 83.2982C78.6252 83.4188 79.0473 83.4791 79.3186 83.4791C79.5598 83.5092 79.801 83.4791 80.012 83.3887C80.1024 83.4188 80.2833 83.3585 80.4642 83.2379ZM72.7765 87.2476C73.7714 86.4637 74.4347 85.499 74.7362 84.3232C73.8619 83.9916 72.7766 83.4188 71.4501 82.6651L70.4853 82.0923L69.5206 81.5195C68.7368 81.0673 68.0735 80.7055 67.561 80.404L67.1389 80.1628L67.35 88.1821L67.3801 88.8152H67.4404C68.1338 88.8454 68.7971 88.7851 69.4904 88.6344C70.7868 88.4233 71.8721 87.941 72.7765 87.2476Z" fill="#F2E8DB"/>
<path d="M92.4329 63.9434L92.5233 63.7926L92.6138 63.6419V63.6117L92.6439 63.5816C92.6741 63.5514 92.6741 63.5213 92.7042 63.5514C92.7042 63.5514 92.7344 63.6117 92.7042 63.6419V63.7022V63.7323V63.7625C92.5535 64.6066 92.2219 65.3302 91.7395 65.9633C91.227 66.6265 90.5939 67.1089 89.81 67.3199C89.4181 67.4405 88.9961 67.5309 88.5438 67.6214C89.1468 70.3648 88.8453 72.6561 87.6394 74.4649C86.6747 75.9422 85.4688 77.0275 83.9915 77.6907C83.9011 77.6907 83.8709 77.6304 83.8408 77.54L78.1127 67.8023C77.4796 67.8324 76.9068 67.8927 76.4546 67.9832C75.4597 68.164 74.7663 68.4354 74.3141 68.8273C74.1031 69.0082 73.892 69.3097 73.681 69.6714L73.4398 70.1538C73.3494 70.3347 73.2589 70.4854 73.1685 70.606C73.1685 70.606 73.1685 70.6362 73.1384 70.6663C73.1082 70.6965 73.1082 70.7266 73.0781 70.7567C73.0178 70.8472 72.9575 70.9075 72.8972 70.9376C72.7464 71.0884 72.6861 71.0582 72.7464 70.8472C72.867 70.3648 73.0479 69.8222 73.2891 69.2192C73.7112 68.2243 74.3443 67.4104 75.1884 66.7772C76.0627 66.114 77.0274 65.7522 78.0826 65.6919H78.1127C78.1429 65.6919 78.173 65.6919 78.2032 65.6919C78.2936 65.6919 78.4142 65.6919 78.5046 65.6618C78.8664 65.6316 79.2282 65.6316 79.5598 65.6015C80.6451 65.5412 81.4893 65.511 82.0319 65.5412H83.0268L84.0217 65.5713L84.8357 65.6015L85.6497 65.6316C86.2828 65.6618 86.8254 65.6618 87.2776 65.6316C88.5137 65.6015 89.5689 65.4809 90.4733 65.2397C90.9557 65.1191 91.3476 64.9684 91.5888 64.8478C91.8299 64.7574 92.0108 64.6066 92.1616 64.4257C92.2219 64.275 92.3123 64.1243 92.4329 63.9434ZM87.6394 71.1788C88.1218 70.0031 88.2424 68.8273 87.9409 67.6515C87.0063 67.7721 85.8004 67.8324 84.2629 67.8023L83.1474 67.7721L82.0319 67.742C81.1275 67.7118 80.3738 67.7118 79.7709 67.7118H79.2885L83.3584 74.6458L83.6901 75.1885L83.7503 75.1583C84.3533 74.8568 84.9261 74.4649 85.4688 74.0127C86.4636 73.1686 87.1872 72.2038 87.6394 71.1788Z" fill="#F2E8DB"/>
<path d="M88.785 55.6527L84.6849 50.4975C84.4136 50.196 84.1423 49.9247 83.9011 49.7438C83.2077 49.2011 82.6048 49.0202 82.0319 49.2313C81.7908 49.3217 81.6099 49.4724 81.4591 49.6835C81.3988 49.7739 81.3386 49.8644 81.2783 50.0151L81.1878 50.196L81.0974 50.3467C80.2834 49.6835 79.8613 49.0504 79.801 48.4474L79.8915 48.2364L80.012 48.0254C80.1025 47.8746 80.1628 47.754 80.2532 47.6636C80.4643 47.4224 80.7055 47.2717 81.0069 47.2415C81.6702 47.1812 82.243 47.332 82.7253 47.6937C83.2077 48.0555 84.5041 49.4724 86.5541 51.8843C86.735 50.9798 87.0666 50.196 87.6093 49.5629C88.2122 48.8393 88.9358 48.4173 89.7799 48.2062L91.4983 47.8143C91.8903 47.7239 92.1917 47.6334 92.4329 47.5128C93.0962 47.1812 93.3675 46.729 93.1866 46.0658C93.1263 45.8547 93.1866 45.8246 93.3675 45.915C93.4278 45.9452 93.4881 46.0055 93.5785 46.0658C93.6087 46.0959 93.6388 46.0959 93.669 46.126L93.7293 46.1863C94.1513 46.6687 94.4227 47.1209 94.5433 47.543C94.7241 48.2665 94.5432 48.8393 94.0006 49.2313C93.7594 49.382 93.4881 49.5026 93.1263 49.6232C92.8851 49.7136 92.5535 49.7739 92.1314 49.8644C90.7145 50.1658 89.6895 50.6482 89.0865 51.3416C88.5137 51.9747 88.1218 52.7585 87.971 53.6328L89.5086 55.6527L92.6439 55.7432C92.8851 55.7432 93.1565 56.0748 93.4881 56.6778C93.6087 56.9189 93.6991 57.2506 93.7594 57.6425L82.5445 57.2807C82.0621 57.2807 81.7003 57.4013 81.4591 57.6123C81.1878 57.8234 81.0069 58.155 80.8863 58.6072C80.8562 58.7278 80.615 58.5168 80.1628 57.944C79.7106 57.3712 79.4995 57.0094 79.5297 56.8285C79.6503 56.3763 79.8312 56.0145 80.0723 55.7733C80.3135 55.5321 80.7055 55.3814 81.1577 55.3513L88.785 55.6527Z" fill="#F2E8DB"/>
<path fill-rule="evenodd" clip-rule="evenodd" d="M45.8547 27.7962C46.3672 28.6404 47.7238 29.183 47.0606 30.7206C46.5782 30.3588 46.2767 29.8161 46.0356 29.1529C45.9753 29.7257 46.0959 30.4493 46.337 30.8412C44.9201 30.6301 45.0105 28.5801 45.8547 27.7962Z" fill="#32513A"/>
<path fill-rule="evenodd" clip-rule="evenodd" d="M43.4429 30.2081C42.9304 30.6301 42.7495 31.3838 42.2068 31.7155C41.3627 30.2081 43.3826 30.0573 43.5333 28.7911C44.4076 29.8162 44.3473 32.1677 42.5987 32.1677C43.0208 31.7155 43.3223 31.0522 43.4429 30.2081Z" fill="#32513A"/>
<path fill-rule="evenodd" clip-rule="evenodd" d="M40.2773 29.3338C40.6994 29.7257 41.1215 30.4493 41.0612 31.203C41.0009 31.9566 40.3979 32.2883 39.7347 32.4993C39.8251 32.1677 40.1266 31.7155 40.1266 31.1728C39.7648 31.4743 39.6744 32.0169 39.2825 32.2581C39.0714 31.625 38.9207 31.1427 39.2523 30.6301C39.5538 30.1176 40.3075 30.0875 40.2773 29.3338Z" fill="#32513A"/>
<path fill-rule="evenodd" clip-rule="evenodd" d="M62.1345 29.3338C62.2249 30.1176 63.2801 30.2985 63.4308 31.0824C63.5213 31.5346 63.3102 31.8963 63.1896 32.3184C62.858 31.9868 62.6168 31.5647 62.3756 31.1427C62.2852 31.625 62.5264 32.1375 62.7676 32.439C61.1396 32.5596 61.1697 30.2081 62.1345 29.3338Z" fill="#32513A"/>
<path fill-rule="evenodd" clip-rule="evenodd" d="M52.3365 29.8764C51.6431 29.8161 51.1004 30.1478 50.8894 30.6904C51.221 30.389 51.9446 29.997 52.3968 30.4191C52.1857 30.811 51.9747 31.2029 51.5828 31.3838C50.8894 31.3838 50.1357 31.2934 49.7438 31.5044C49.8644 30.2684 51.0401 29.0022 52.3365 29.8764Z" fill="#32513A"/>
<path fill-rule="evenodd" clip-rule="evenodd" d="M56.4065 32.7706C55.6829 31.5044 57.13 30.7809 57.8234 30.2081C58.4263 31.2029 58.2756 33.2228 56.7984 32.9816C57.0697 32.7103 57.3712 32.1677 57.1601 31.6551C56.9793 32.1074 56.7079 32.4691 56.4065 32.7706Z" fill="#32513A"/>
<path fill-rule="evenodd" clip-rule="evenodd" d="M66.2044 31.0221C66.0838 31.7456 67.0184 32.228 67.139 32.8912C67.2596 33.4942 66.9882 33.8258 66.7169 34.2177C66.4757 33.7655 66.3551 33.1927 66.1441 32.7405C66.0235 33.3133 66.2345 33.9162 66.325 34.3685C64.8176 33.9162 65.2698 31.8059 66.2044 31.0221Z" fill="#32513A"/>
<path fill-rule="evenodd" clip-rule="evenodd" d="M35.9361 31.203C35.9361 31.1427 35.9964 31.1728 36.0567 31.1728C36.8707 31.8662 37.4736 33.9162 36.0266 34.4589C36.2074 33.9765 36.2376 33.3133 36.2979 32.7103C35.9663 33.1626 35.8758 33.8861 35.6045 34.3986C35.2729 34.067 34.9412 33.6449 35.1523 32.9515C35.3332 32.2581 36.2979 31.8059 35.9361 31.203Z" fill="#32513A"/>
<path fill-rule="evenodd" clip-rule="evenodd" d="M45.312 32.1074C45.4628 32.1978 45.5833 32.2883 45.6738 32.4691C45.4929 32.3787 45.3422 32.2883 45.312 32.1074Z" fill="#32513A"/>
<path fill-rule="evenodd" clip-rule="evenodd" d="M68.3751 33.9464C67.8626 34.1574 67.6817 34.7302 67.35 35.1523C66.8375 33.7354 67.8626 32.7405 69.2192 32.7104C68.9479 33.042 69.1589 33.7354 69.0986 34.278C69.0082 35.0016 68.5861 35.1825 67.8927 35.3935C67.8324 34.8207 68.1942 34.3986 68.3751 33.9464Z" fill="#32513A"/>
<path fill-rule="evenodd" clip-rule="evenodd" d="M33.1324 32.7405C34.3986 32.8611 35.4839 33.7052 35.0015 35.1824C34.7604 34.6699 34.4589 34.2177 34.0368 33.8861C34.1574 34.4589 34.5192 34.7604 34.5493 35.4538C33.8861 35.2427 33.3736 35.1221 33.253 34.4287C33.1625 33.9765 33.3736 33.1324 33.1324 32.7405Z" fill="#32513A"/>
<path fill-rule="evenodd" clip-rule="evenodd" d="M41.9355 34.8508C40.8502 35.5442 39.795 34.5192 39.795 33.3736C40.7899 33.4339 41.9355 33.3434 42.0862 34.3383C41.3928 34.489 41.0009 34.1273 40.609 33.8559C40.6994 34.5493 41.3325 34.8207 41.9355 34.8508Z" fill="#32513A"/>
<path fill-rule="evenodd" clip-rule="evenodd" d="M51.4622 34.2479C51.3416 33.9162 50.8894 33.6148 50.4975 33.464C51.432 33.042 52.2159 33.8559 52.2762 34.5192C51.4019 34.9111 50.2261 34.7905 50.1055 33.8258C50.618 33.8861 51.01 34.0971 51.4622 34.2479Z" fill="#32513A"/>
<path fill-rule="evenodd" clip-rule="evenodd" d="M62.0138 33.9765C61.7124 34.1273 61.0491 34.7001 60.4462 34.3383C60.5668 34.067 60.6572 33.8258 60.8682 33.675C61.3506 33.3133 62.1344 33.675 62.7072 33.4339C62.9183 34.489 61.7124 35.5743 60.5969 34.9412C61.3807 34.9412 61.8933 34.6398 62.0138 33.9765Z" fill="#32513A"/>
<path fill-rule="evenodd" clip-rule="evenodd" d="M45.0708 33.8258C44.8598 34.067 44.6186 34.2479 44.498 34.5795C44.8598 34.4589 45.1311 34.2177 45.5833 34.1574C45.6436 34.9714 44.9502 35.3332 44.2267 35.092C44.1363 35.1221 43.9554 35.1221 43.9252 35.2126C43.8348 34.4287 44.2267 33.7956 45.0708 33.8258Z" fill="#32513A"/>
<path fill-rule="evenodd" clip-rule="evenodd" d="M37.6244 34.6096C38.0163 35.092 38.6494 35.4839 38.4383 36.4487C38.0163 36.2376 37.8655 35.7854 37.5942 35.4236C37.4133 35.8457 37.7449 36.2979 37.8655 36.6597C36.8405 36.6295 36.9912 34.9714 37.6244 34.6096Z" fill="#32513A"/>
<path fill-rule="evenodd" clip-rule="evenodd" d="M63.4007 36.6597C63.1896 36.8707 62.7374 36.8406 62.4962 37.0215C61.4411 36.3281 59.3006 35.8758 57.9138 36.5391C57.5822 36.2678 57.3711 35.8758 57.0998 35.5141C58.155 35.2427 59.3307 35.0317 60.4763 35.2427C61.6823 35.4839 62.6771 36.117 63.4007 36.6597Z" fill="#32513A"/>
<path fill-rule="evenodd" clip-rule="evenodd" d="M71.6008 36.5994C71.0582 36.7501 70.4854 37.2325 69.7015 37.2626C69.8824 36.5994 70.0935 36.1773 70.6361 35.9663C71.1486 35.7854 71.842 36.0266 72.3847 35.8457C72.4148 37.2928 71.2391 38.5288 69.8523 37.7148C70.606 37.5038 71.1486 37.1119 71.6008 36.5994Z" fill="#32513A"/>
<path fill-rule="evenodd" clip-rule="evenodd" d="M53.0901 37.9862C52.5475 37.4435 52.035 36.8406 51.3416 36.4185C51.5224 36.1773 51.8842 36.0869 52.1254 35.8759C52.5173 35.9663 53.1504 36.5994 53.482 36.9009C53.5725 36.9913 53.9041 37.1421 53.9041 37.2024C53.9041 37.323 53.5725 37.5038 53.482 37.5943C53.3012 37.745 53.2107 37.8656 53.0901 37.9862Z" fill="#32513A"/>
<path fill-rule="evenodd" clip-rule="evenodd" d="M50.9798 36.6597C52.0048 37.0516 52.035 39.3127 50.7386 39.2825C50.7085 38.6494 50.9195 38.2274 51.0401 37.7752C50.7085 37.956 50.3467 38.4685 50.2864 39.0715C50.0754 38.8303 50.0151 38.4685 50.0452 38.1671C50.196 37.5038 50.9497 37.2928 50.9798 36.6597Z" fill="#32513A"/>
<path fill-rule="evenodd" clip-rule="evenodd" d="M56.8285 37.4737C56.8285 38.0163 57.2807 38.4384 57.2204 38.9509C57.1601 39.4031 56.8285 39.584 56.527 39.8855C56.4064 39.4031 56.6778 38.9811 56.6778 38.4686C56.4064 38.6796 56.0748 39.1017 56.0447 39.6745C55.3211 38.9208 56.0145 37.6847 56.8285 37.4737Z" fill="#32513A"/>
<path fill-rule="evenodd" clip-rule="evenodd" d="M45.4929 37.6545C46.1863 37.8957 47.0003 38.8604 46.3371 39.7046C46.1863 39.2222 46.0657 38.7097 45.6437 38.4987C45.7341 38.981 45.915 39.373 45.8849 39.9759C45.5834 39.7347 45.2517 39.584 45.1915 39.1921C45.0709 38.6193 45.5834 38.1369 45.4929 37.6545Z" fill="#32513A"/>
<path fill-rule="evenodd" clip-rule="evenodd" d="M64.3051 39.2524C65.0588 40.1266 64.7272 42.0561 63.6117 42.1465C63.6117 41.8149 63.7926 41.3627 63.883 41.0311C63.5514 41.1818 63.4007 41.5436 63.2198 41.8451C62.7073 40.82 63.4007 39.8855 64.1544 39.6141C64.1845 39.4634 64.3051 39.4031 64.3051 39.2524Z" fill="#32513A"/>
<path fill-rule="evenodd" clip-rule="evenodd" d="M40.9104 40.5789C40.2773 40.5789 39.8251 41.1215 39.4935 41.6039C39.2523 40.2774 40.4884 39.6745 41.7546 39.9759C41.4833 41.0311 41.2421 42.1164 39.8854 42.0863C40.1266 41.4532 40.5487 41.0311 40.9104 40.5789Z" fill="#32513A"/>
<path fill-rule="evenodd" clip-rule="evenodd" d="M47.0003 43.3826C46.2767 41.7547 48.2665 41.6341 48.4474 40.4282C48.8996 41.1517 49.2312 42.9304 48.3268 43.4731C48.0555 43.6238 47.754 43.5937 47.3621 43.7143C47.3319 43.5635 47.5429 43.2922 47.6635 43.0812C47.8143 42.84 47.965 42.5988 48.0856 42.4179C47.6937 42.4782 47.2716 43.1113 47.0003 43.3826Z" fill="#32513A"/>
<path fill-rule="evenodd" clip-rule="evenodd" d="M36.4788 41.212C36.5089 41.9355 36.5692 42.6289 36.8405 43.1113C36.9008 42.448 36.9008 41.7245 37.0817 41.212C37.5339 41.6642 37.9259 42.2973 37.7148 43.1716C37.6244 43.5334 37.2023 43.8348 37.2927 44.2569C36.7802 43.9856 36.0868 43.5937 35.9663 42.9304C35.8155 42.2069 36.1773 41.6944 36.4788 41.212Z" fill="#32513A"/>
<path fill-rule="evenodd" clip-rule="evenodd" d="M35.3934 41.5436C35.4537 41.5436 35.4537 41.5436 35.4839 41.5738C35.4537 42.3576 35.9662 42.9606 35.8457 43.7142C35.7552 44.2268 35.4236 44.6187 35.0015 44.89C34.8809 44.2569 35.0618 43.5937 35.1523 43.051C34.7603 43.4429 34.5192 43.9856 34.5794 44.7996C33.4037 43.8348 34.3383 41.9657 35.3934 41.5436Z" fill="#32513A"/>
<path fill-rule="evenodd" clip-rule="evenodd" d="M66.928 41.5738C68.1037 41.8149 68.9177 43.654 67.9831 44.7996C67.8324 44.1062 67.7118 43.3826 67.2897 42.9606C67.4103 43.5334 67.6214 44.2871 67.4405 44.9202C66.928 44.4981 66.4758 43.9856 66.5963 43.1414C66.6265 42.5988 67.0787 42.0561 66.928 41.5738Z" fill="#32513A"/>
<path fill-rule="evenodd" clip-rule="evenodd" d="M43.6237 41.9657C43.684 41.8752 43.6539 42.237 43.6539 42.3274C43.5936 42.4179 43.6237 42.0561 43.6237 41.9657Z" fill="#32513A"/>
<path fill-rule="evenodd" clip-rule="evenodd" d="M28.3992 42.7495C27.9771 42.9606 27.3139 42.9304 26.7109 42.9907C27.0727 43.262 27.7359 43.2319 28.3087 43.2922C27.9771 43.4731 27.7962 43.8348 27.4043 43.9253C26.6205 44.1062 25.8366 43.3826 25.2337 43.8047C25.2035 43.2017 25.6557 42.6892 25.9874 42.2973C26.7712 41.6642 27.8867 42.1164 28.3992 42.7495Z" fill="#32513A"/>
<path fill-rule="evenodd" clip-rule="evenodd" d="M61.9234 43.9253C61.5918 43.3525 61.019 42.9907 60.0844 42.9907C60.2351 42.8098 60.3557 42.6289 60.5668 42.5083C61.7727 41.9054 62.7374 43.3223 62.9183 44.2569C62.7675 44.1966 62.5867 44.1665 62.4359 44.076C61.5013 44.5885 60.5065 44.2268 60.0241 43.5635C60.7175 43.3223 61.4712 43.6841 61.9234 43.9253Z" fill="#32513A"/>
<path fill-rule="evenodd" clip-rule="evenodd" d="M42.5988 43.5635C42.2068 43.865 41.9054 44.3172 41.3627 44.3775C40.7899 44.4378 40.1869 43.8047 39.6141 44.1966C39.584 42.9907 41.4833 41.7547 42.3877 42.9907C41.4833 42.9606 40.9105 43.2922 40.5186 43.8047C41.0009 43.6841 41.8451 43.3223 42.5988 43.5635Z" fill="#32513A"/>
<path fill-rule="evenodd" clip-rule="evenodd" d="M54.1152 43.4731C53.4821 43.6539 52.9997 44.3172 52.6078 44.8297C52.2762 43.2319 53.5424 42.6892 54.8689 42.7194C54.8387 42.8098 54.8086 42.9605 54.688 43.0811C54.6277 44.2569 54.2659 45.101 53.06 45.101C53.2108 44.4076 53.7233 44.0157 54.1152 43.4731Z" fill="#32513A"/>
<path fill-rule="evenodd" clip-rule="evenodd" d="M29.5146 44.2569C29.5749 44.1665 29.5448 44.5283 29.5448 44.6187C29.4845 44.7091 29.5448 44.3474 29.5146 44.2569Z" fill="#32513A"/>
<path fill-rule="evenodd" clip-rule="evenodd" d="M66.8677 44.4981C66.7773 45.7643 65.3302 46.9401 64.1544 46.0658C64.5162 45.6739 64.9985 45.4327 65.511 45.2216C64.8779 45.0709 64.3956 45.3724 64.0037 45.5834C64.2147 45.2216 64.2448 44.8599 64.5463 44.6488C65.1493 44.1665 66.0236 44.5885 66.8677 44.4981Z" fill="#32513A"/>
<path fill-rule="evenodd" clip-rule="evenodd" d="M61.7426 44.4981C62.3154 45.493 62.4661 47.3621 61.1095 47.6033C61.0793 47.3621 61.4712 47.0908 61.5315 46.6687C61.5617 46.3974 61.5014 46.1562 61.4411 45.8547C61.2602 46.4878 61.1095 47.0908 60.5367 47.332C60.0844 45.7643 61.2301 45.3422 61.7426 44.4981Z" fill="#32513A"/>
<path fill-rule="evenodd" clip-rule="evenodd" d="M53.9946 45.704C53.5726 45.6739 53.1505 46.1864 52.9093 46.3371C52.7586 45.1011 54.2057 44.7694 55.4417 45.0408C54.7483 45.4628 54.9593 46.7592 54.0248 46.9099C53.7233 46.9401 53.4821 46.8195 53.1806 46.9099C53.2409 46.4577 53.7233 46.0959 53.9946 45.704Z" fill="#32513A"/>
<path fill-rule="evenodd" clip-rule="evenodd" d="M38.0464 45.4327C37.7148 45.3724 37.4736 45.2216 37.1118 45.1915C37.2927 45.3724 37.6545 45.4025 37.8052 45.6738C37.4435 45.5533 37.2023 45.3422 36.8405 45.1915C37.2626 45.101 37.8354 45.2216 38.0464 45.4327Z" fill="#32513A"/>
<path fill-rule="evenodd" clip-rule="evenodd" d="M41.6642 47.3018C41.3024 47.1209 41.1215 46.729 41.0009 46.2768C40.8502 46.6989 41.1215 47.0003 41.1818 47.3018C40.82 47.0305 40.7597 46.3371 40.9406 45.8246C41.0612 46.4577 41.3024 46.94 41.6642 47.3018Z" fill="#32513A"/>
<path fill-rule="evenodd" clip-rule="evenodd" d="M26.8013 48.357C26.53 48.5982 26.0175 48.5982 25.505 48.5982C25.7462 48.8092 26.2888 48.9298 26.7109 48.8394C26.3793 49.3519 25.927 49.6835 25.2336 49.5328C24.691 49.4423 24.2388 48.6283 23.7263 49.171C23.9373 48.3268 24.6307 47.5129 25.716 47.6636C26.2285 47.7239 26.4094 48.0555 26.8013 48.357Z" fill="#32513A"/>
<path fill-rule="evenodd" clip-rule="evenodd" d="M31.4742 48.6585C31.4742 48.7188 31.4742 48.7791 31.4742 48.8394C31.3838 48.8394 31.3235 48.8394 31.2331 48.8394C31.1728 48.8997 31.2029 49.0504 31.2029 49.1408C31.1426 49.1408 31.0823 49.1408 31.022 49.1408C30.9316 48.7791 31.0823 48.6283 31.4742 48.6585Z" fill="#32513A"/>
<path fill-rule="evenodd" clip-rule="evenodd" d="M53.4519 49.382C53.5424 49.4725 53.4821 50.0453 53.4821 50.3166C53.3916 50.2262 53.4519 49.6534 53.4519 49.382Z" fill="#32513A"/>
<path fill-rule="evenodd" clip-rule="evenodd" d="M26.8014 49.7136C26.922 49.9247 27.0425 50.1659 27.0727 50.3769C27.2234 51.6733 26.0477 52.0953 25.4749 52.7586C24.8418 51.613 24.9925 49.6835 26.4094 49.5328C26.1984 50.0151 25.9874 50.4975 25.9874 51.1607C26.2286 50.6784 26.4999 50.1659 26.8014 49.7136Z" fill="#32513A"/>
<path fill-rule="evenodd" clip-rule="evenodd" d="M38.8604 52.0953C39.1317 51.4924 39.3126 50.799 39.8251 50.4673C39.9457 50.8291 40.2472 50.9799 40.2472 51.3718C40.2773 52.1556 39.3126 52.6983 39.3126 53.5123C37.8354 53.1203 37.564 50.3769 39.4332 50.1659C39.1016 50.6482 38.7699 51.1607 38.8604 52.0953Z" fill="#32513A"/>
<path fill-rule="evenodd" clip-rule="evenodd" d="M68.7971 51.5527C68.8273 51.5828 68.8574 51.5828 68.9177 51.5828C69.0081 52.5174 68.6464 52.9696 68.4353 53.6027C69.0684 53.3012 69.4302 52.7284 69.5508 51.9144C70.3346 53.3917 68.8574 54.477 67.6515 54.5674C68.1339 53.9946 67.5008 52.8189 67.953 52.1556C68.1941 51.8541 68.4655 51.8843 68.7971 51.5527Z" fill="#32513A"/>
<path fill-rule="evenodd" clip-rule="evenodd" d="M52.2762 52.2159C52.4269 52.1255 52.7585 52.2159 52.9696 52.1858C52.8188 52.2762 52.4872 52.1858 52.2762 52.2159Z" fill="#32513A"/>
<path fill-rule="evenodd" clip-rule="evenodd" d="M27.2837 53.06C27.2234 53.7233 26.8918 54.1755 26.6506 54.6579C27.1329 54.4167 27.4344 54.0248 27.6153 53.4821C27.8263 53.9343 27.555 54.6277 27.344 54.8991C26.9521 55.3513 26.1682 55.3211 25.8969 55.9542C25.1432 54.8689 25.8667 52.8792 27.2837 53.06Z" fill="#32513A"/>
<path fill-rule="evenodd" clip-rule="evenodd" d="M71.4803 54.4468C72.3847 56.0447 70.9376 57.2506 69.4906 57.3712C69.4604 57.1903 69.6111 57.2204 69.6111 57.0697C69.7016 56.4969 69.4604 56.0447 69.4906 55.5924C69.581 54.8086 70.1538 54.4468 70.7869 54.1755C70.8472 54.9895 70.4854 55.713 70.2141 56.316C70.9075 55.9542 71.2994 55.291 71.4803 54.4468Z" fill="#32513A"/>
<path fill-rule="evenodd" clip-rule="evenodd" d="M28.58 55.5925C28.2484 56.0447 27.6455 56.2557 26.9521 56.3763C27.4043 56.6778 28.2786 56.6476 28.7911 56.4065C28.3992 57.7933 26.319 57.13 25.8065 56.4065C26.6807 56.1653 27.4043 54.8388 28.58 55.5925Z" fill="#32513A"/>
<path fill-rule="evenodd" clip-rule="evenodd" d="M29.8161 55.5322C30.1477 57.2807 29.6352 59.3911 27.8565 59.5117C28.9117 58.9992 29.5146 57.6727 29.2734 56.0748C29.5146 55.9241 29.6654 55.7432 29.8161 55.5322Z" fill="#32513A"/>
<path fill-rule="evenodd" clip-rule="evenodd" d="M48.6886 55.8638C48.7489 55.7733 48.7187 56.1351 48.7187 56.2255C48.6584 56.316 48.6886 55.9542 48.6886 55.8638Z" fill="#32513A"/>
<path fill-rule="evenodd" clip-rule="evenodd" d="M28.972 58.1852C28.7609 58.8786 28.2484 59.2705 27.6455 59.5418C28.5801 59.6925 29.1227 59.1197 29.4845 58.5771C30.0272 60.7477 27.0124 61.0492 25.8969 59.8131C27.2234 59.5418 27.133 57.9138 28.972 58.1852Z" fill="#32513A"/>
<path fill-rule="evenodd" clip-rule="evenodd" d="M56.1652 63.0691C56.3762 63.25 56.527 63.6721 56.527 63.9132C55.6226 64.5162 53.9946 65.7824 54.8086 67.2596C54.1755 67.2596 54.1453 66.1442 54.2961 65.5111C54.4769 64.7574 55.0497 64.0941 55.5924 63.6419C55.8034 63.461 56.0748 63.3706 56.1652 63.0691Z" fill="#E7D200"/>
<path fill-rule="evenodd" clip-rule="evenodd" d="M46.1864 63.1294C46.2165 63.1294 46.2165 63.1294 46.2165 63.1595C46.9702 63.9132 48.2967 64.8478 48.1761 66.3853C48.146 66.8074 47.9952 67.1993 47.6033 67.3199C47.6334 67.1993 47.6937 67.139 47.754 67.0486C48.0254 65.2397 46.7592 64.6669 45.8547 63.9434C45.9452 63.6419 46.0356 63.3404 46.1864 63.1294Z" fill="#E7D200"/>
<path fill-rule="evenodd" clip-rule="evenodd" d="M54.3262 65.0589C54.296 65.3302 54.1453 65.4508 54.1754 65.7523C53.3614 65.2397 52.246 65.0287 51.3416 64.6368C51.4923 64.3956 51.7938 64.3052 51.9747 64.064C52.8188 64.3353 53.7835 64.5162 54.3262 65.0589Z" fill="#E7D200"/>
<path fill-rule="evenodd" clip-rule="evenodd" d="M44.9502 64.5162C45.0105 64.4257 44.9804 64.7574 44.9804 64.8177C44.9201 64.9383 44.9502 64.6066 44.9502 64.5162Z" fill="#32513A"/>
<path fill-rule="evenodd" clip-rule="evenodd" d="M48.9298 65.4206C48.6584 65.511 48.5077 65.7221 48.2364 65.7824C48.2665 65.4809 48.0856 65.3302 48.0555 65.089C48.1761 64.9684 48.3871 64.9081 48.4776 64.7272C48.7187 64.8176 48.779 65.1493 48.9298 65.4206Z" fill="#32513A"/>
<path fill-rule="evenodd" clip-rule="evenodd" d="M53.2409 65.4206C52.5475 66.8074 51.3416 67.6817 50.0151 68.4052C49.7739 68.3449 49.6533 68.1942 49.4423 68.1339C50.7386 67.4405 51.7636 66.5059 52.3967 65.1794C52.7585 65.1794 52.9695 65.3302 53.2409 65.4206Z" fill="#E7D200"/>
<path fill-rule="evenodd" clip-rule="evenodd" d="M47.3922 65.6618C48.0253 66.4155 46.94 67.9832 47.8445 68.7067C47.7239 68.6766 47.6334 69.0082 47.543 69.0082C47.3621 69.0082 46.9702 68.2846 46.9099 67.9832C46.6988 67.0787 47.1511 66.0236 47.3922 65.6618Z" fill="#E7D200"/>
<path fill-rule="evenodd" clip-rule="evenodd" d="M54.8689 65.6618C54.899 65.6618 54.9593 65.6618 54.9895 65.6618C55.1402 66.114 55.4417 66.3853 55.4417 66.9883C55.2608 67.0787 55.1402 67.2295 54.8991 67.2596C54.7785 66.6567 54.5976 66.2346 54.8689 65.6618Z" fill="#E7D200"/>
<path fill-rule="evenodd" clip-rule="evenodd" d="M54.3865 68.767C54.2659 68.7972 54.2358 69.1288 54.0851 69.1589C53.9645 69.1891 53.5726 68.8876 53.3917 68.7972C52.6983 68.5258 51.824 68.1339 51.3718 67.7721C51.4321 67.5611 51.6732 67.5611 51.7637 67.3802C52.4872 67.9832 53.5424 68.2847 54.3865 68.767Z" fill="#E7D200"/>
<path fill-rule="evenodd" clip-rule="evenodd" d="M51.1305 69.581C51.0099 69.792 51.0099 70.0935 50.9496 70.3649C50.3467 69.0685 49.0805 68.4655 47.6334 68.0133C47.6334 67.8023 47.5128 67.7119 47.5429 67.4707C48.8393 67.9229 50.3165 68.5258 51.1305 69.581Z" fill="#E7D200"/>
<path fill-rule="evenodd" clip-rule="evenodd" d="M55.4718 67.8626C55.1402 69.2192 53.9343 69.6714 53.1806 70.5759C53.1504 69.7619 53.9343 69.5207 54.3564 69.0082C54.5674 68.7368 54.688 68.4655 54.8086 68.1037C55.0196 68.0434 55.2306 67.9229 55.4718 67.8626Z" fill="#E7D200"/>
<path fill-rule="evenodd" clip-rule="evenodd" d="M50.9195 29.0624C50.3165 29.5147 49.3518 30.0875 49.3518 31.1125C49.3518 31.5949 49.5628 31.836 49.8945 32.0772C50.3768 32.0772 50.7386 32.2581 51.3114 32.1978C51.221 32.3787 51.1004 32.2883 50.9496 32.3184C50.4371 32.439 49.5327 32.8008 49.0805 32.6802C47.8143 32.2883 46.0959 31.2029 46.126 29.575C46.6687 30.811 47.8143 31.4743 49.1709 31.9265C48.6886 31.2331 49.382 30.2985 49.1709 29.4845C49.0503 29.0323 48.779 28.8213 48.3871 28.5198C48.568 28.8213 49.0805 29.1529 49.1408 29.7257C48.8091 29.6956 48.5077 29.7558 48.3268 29.6956C47.3621 29.4242 47.6635 28.2183 47.0907 27.6154C48.5077 27.1631 50.1658 27.8867 49.593 29.4544C49.2915 28.8514 48.8694 28.3389 48.0253 28.2786C47.9952 28.3389 48.2363 28.4595 48.3268 28.5198C48.4474 28.4896 48.2363 28.3691 48.4172 28.3992C49.0202 28.6404 49.4423 29.0624 49.5327 29.8161C50.0754 29.2433 51.1305 29.183 51.1305 28.0676C51.3114 28.3992 51.1305 28.8816 50.9496 29.0926C51.3416 29.0022 51.3717 28.1882 51.1908 27.7359C50.9496 27.8264 51.1004 28.158 51.0702 28.3088C51.0099 28.7308 50.7386 28.972 50.407 29.1227C50.1959 28.5801 49.9246 28.3992 50.0151 27.8264C50.1356 27.2234 51.0099 26.8315 50.5577 26.108C51.8541 26.4094 52.6078 28.4595 51.1305 29.1529C51.1004 29.183 50.9195 29.3639 50.9496 29.183C50.9195 29.1227 50.9195 29.0926 50.9195 29.0624ZM49.382 32.228C48.0856 31.8963 47.1209 31.2331 46.4275 30.2684C47.0003 31.2934 48.0856 32.0471 49.382 32.228Z" fill="#32513A"/>
<path fill-rule="evenodd" clip-rule="evenodd" d="M54.5975 30.389C54.6879 29.9368 54.3262 29.4845 54.2056 29.2735C54.1754 29.2434 54.2357 29.1529 54.2056 29.1228C54.1754 29.0926 53.8438 28.972 53.7232 28.8514C53.9644 29.3338 54.2357 29.786 54.1453 30.6C53.3916 30.389 52.9092 30.0573 52.8489 29.3037C52.8188 28.8213 53.06 28.158 52.8188 27.736C54.1453 27.8867 55.6225 29.0625 54.5975 30.389Z" fill="#32513A"/>
<path fill-rule="evenodd" clip-rule="evenodd" d="M55.9241 30.1176C55.6829 30.2684 55.4417 30.6904 55.2307 30.7507C54.6277 29.2433 56.0447 28.8213 56.5572 28.0374C57.3712 28.8213 57.2807 30.8713 55.9241 30.9618C56.2255 30.5397 56.3763 29.9669 56.3461 29.2132C56.1652 29.4544 56.0748 29.8162 55.9241 30.1176C56.1049 30.0272 56.1351 29.7559 56.2255 29.575C56.1049 31.8662 53.7233 32.7103 51.5828 33.1626C51.1004 33.253 50.6181 33.3133 50.1357 33.4037C50.4975 33.6148 50.9497 33.7354 51.221 34.067C50.7387 33.8861 49.5327 33.5243 48.8393 33.9162C48.4776 33.7957 48.0857 33.6751 47.754 33.5243C48.9599 32.7103 50.8894 32.5897 52.4269 32.1074C53.4821 31.414 52.3968 29.5147 51.221 30.389C51.221 30.2382 51.5225 30.0272 51.7034 29.997C52.8188 29.7559 53.6027 30.9919 53.0299 31.8963C54.0549 31.8662 54.5373 30.389 54.0851 29.3338C54.6277 29.4845 54.6277 30.9316 54.2659 31.4441C54.899 31.2029 55.5623 30.7206 55.9241 30.1176Z" fill="#32513A"/>
<path fill-rule="evenodd" clip-rule="evenodd" d="M58.9991 30.1779C58.9388 30.8713 59.3609 31.625 59.6322 32.0169C58.1248 32.0169 57.9439 29.8764 58.7278 28.8213C58.9388 29.9669 60.808 29.9669 60.1146 31.6552C59.8734 31.5346 59.7226 31.2934 59.5719 31.0824C59.9035 32.2581 61.7425 32.2883 62.9183 32.7103C62.7374 32.3184 62.4359 32.0169 62.4058 31.4743C63.2198 33.1927 65.3603 33.5545 66.536 34.9111C66.3551 34.3986 66.2044 33.8258 66.1441 33.1927C66.5059 33.8861 66.8074 35.0016 67.3199 35.695C67.5008 35.092 67.6515 34.4589 68.164 34.2177C67.8625 34.7302 67.5008 35.5442 67.6816 36.2678C67.7721 36.6597 68.164 36.8707 68.2544 37.2023C69.2192 37.534 70.4552 37.3229 71.1486 36.8406C70.7869 37.4435 69.6111 37.8656 68.5258 37.6244C69.6412 39.373 70.3346 42.9003 69.2795 45.2216C70.6663 45.1613 71.7817 45.3724 72.5656 45.915C72.6259 46.3371 72.6259 46.8496 72.6862 47.3018C72.1435 46.9702 71.4803 46.4275 70.5155 46.3974C71.0582 46.8195 71.5406 47.3018 71.6008 48.2364C71.4501 47.9651 71.3295 47.6335 71.1486 47.4224C71.2391 47.754 71.5707 48.1761 71.6611 48.6283C71.8119 47.8746 71.4501 47.332 71.1788 46.8798C71.631 47.0606 72.0229 47.1812 72.2641 47.543C72.8068 48.3871 72.2641 49.5629 71.842 50.2262C71.7214 49.5328 71.1185 49.2614 70.8773 48.7188C70.7869 48.6585 70.7266 48.6283 70.6361 48.568C70.4251 48.1761 70.3346 47.3923 70.6663 47.0908C70.8773 47.1511 70.9074 47.3923 71.0883 47.4526C70.5155 46.307 68.5559 46.1864 67.6515 47.1812C68.375 47.2717 68.9177 47.543 69.2795 47.9952C69.189 48.1158 69.1287 47.8746 68.978 47.9048C69.0986 48.0857 69.3096 48.1761 69.4905 48.2967C69.2795 47.7239 68.8273 47.332 68.164 47.2114C69.4001 46.4275 70.817 47.9651 70.3346 49.171C69.2493 48.9298 67.8927 48.8997 67.8022 47.6636C68.1942 47.6033 68.6162 47.8143 68.978 47.9349C68.5258 47.4224 67.0787 47.4827 66.6265 48.0555C68.6464 48.6886 70.7266 50.1659 71.2994 52.3365C71.6611 53.6931 71.3295 55.502 70.3648 56.1653C70.6361 55.4116 70.9376 54.5373 70.8472 53.452C70.7266 52.2762 70.0633 51.2813 69.3699 50.7688C69.581 51.7637 69.4001 53.1806 68.5559 53.5123C69.5809 51.7637 68.2846 49.4725 66.5662 49.1408C66.7471 49.4423 67.1993 49.8342 67.1088 50.5578C66.928 50.2563 66.8375 49.8342 66.5662 49.6232C66.6868 49.9247 66.9882 50.407 67.0787 50.8593C67.2897 50.3769 67.139 49.7136 66.8375 49.382C68.0736 49.6232 67.8625 52.0953 66.8676 52.4571C66.8676 52.3365 66.8676 52.2159 66.8676 52.0953C66.5662 51.613 65.8728 51.221 65.8426 50.4673C65.8426 50.1056 65.9934 49.7739 66.1441 49.4423C66.2044 49.2614 66.3551 49.6232 66.5059 49.5931C65.4206 48.357 63.7926 49.8342 62.1948 49.7136C62.7676 50.196 63.461 50.799 63.4007 51.7637C63.2801 51.4321 63.1293 51.1306 62.9183 50.8593C63.0087 51.2512 63.3705 51.7335 63.461 52.2762C63.6117 51.3718 63.2801 50.6181 62.7977 50.196C64.5764 49.9548 64.7875 52.849 63.3404 53.4218C63.2499 52.5475 62.1345 52.2159 62.1345 51.3718C62.1345 50.9798 62.3455 50.8593 62.4058 50.4372C62.6168 50.5276 62.6771 50.7688 62.858 50.8593C62.5565 50.2865 61.9837 49.9548 61.2903 49.7739C61.5617 50.1659 61.7124 51.3115 61.1396 51.613C61.3808 51.1909 61.3506 50.3769 61.019 50.0453C60.9888 50.2262 61.1697 50.3769 61.1999 50.6181C61.2602 51.1004 61.0491 51.5527 60.9286 51.8541C61.3506 51.7034 61.8028 50.8894 61.5014 50.1357C62.647 51.01 61.6219 53.1203 60.2954 53.1806C60.6271 52.5174 59.994 51.9747 59.9035 51.4019C59.7829 50.6784 60.2653 50.1659 60.9587 50.0453C60.8683 49.6835 60.5065 49.6835 60.1749 49.5629C59.391 49.3519 58.6976 49.0202 57.6726 49.0504C54.7784 49.1408 53.1504 51.4622 53.4519 54.8086C53.4821 55.0498 53.5122 55.2307 53.5725 55.4719C54.0549 57.5521 56.0748 57.6425 58.0042 58.4263C58.0344 58.5469 58.2454 58.4866 58.0947 58.5771C58.1851 58.5771 58.2153 58.5168 58.3358 58.5469C58.366 58.6374 58.2756 58.6072 58.2153 58.6374C59.6623 59.3911 61.1697 60.0845 61.7727 61.7124C61.4712 60.4764 60.416 59.6925 59.3307 59.1499C59.7528 59.18 60.1447 59.4815 60.5366 59.7227C61.8028 60.4764 63.3705 61.5014 63.6418 63.1595C63.7624 63.8529 63.5815 64.8177 63.2801 65.2699C62.7977 65.9934 61.8933 66.2346 61.23 66.6265C60.6874 66.9581 60.0844 67.8927 60.7175 68.6163C60.3859 68.4354 60.1749 68.1641 60.1749 67.7118C60.1447 65.8125 63.1293 65.9633 62.8279 63.5515C62.7374 62.9485 62.4359 62.5566 62.0139 62.1345C62.044 62.6772 62.1345 62.8581 62.0139 63.461C61.6521 65.1493 59.2403 65.7522 58.7278 67.3501C58.4866 68.1339 58.8484 69.2795 59.8432 68.9177C59.7226 69.1891 59.3307 69.3398 58.9388 69.1891C58.3358 68.9479 58.155 67.953 58.366 67.2295C58.5469 66.5361 59.0895 65.903 59.5719 65.3302C60.2352 64.5463 61.2903 63.7926 60.9286 62.3757C60.6874 61.3808 59.4212 60.5668 58.6373 60.1146C58.3961 59.994 58.1851 59.994 57.9741 59.7528C57.8233 59.7528 57.6726 59.7528 57.5822 59.6624C57.7027 59.9337 58.1851 60.1749 58.3358 60.5668C59.18 61.622 59.7226 63.0389 59.3006 64.5162C58.8785 65.9934 57.4616 66.8074 57.0696 67.9832C56.6476 69.3097 57.552 70.3648 58.5167 70.6965C57.2204 70.6965 56.4064 69.7016 56.527 68.3148C56.6777 66.8376 58.0344 65.8427 58.366 64.3353C58.6675 62.9485 58.155 61.9536 57.4314 61.019C57.1902 59.783 56.0748 59.3609 54.8689 59.0594C55.8336 59.3308 56.9189 59.783 57.3108 60.7477C57.552 61.2904 57.4616 62.2852 57.1902 62.9786C56.8285 62.4661 56.5873 62.0139 56.4968 61.2301C56.3461 59.9639 55.3211 59.3911 54.2659 58.9388C54.3262 60.0845 55.3814 60.597 55.9542 61.3808C56.6777 62.1345 57.3711 63.25 57.4013 64.5463C57.4314 66.8376 55.502 67.8023 53.7534 68.3751C53.5424 68.3148 53.3615 68.2243 53.1806 68.1942C54.9292 67.4405 57.4013 66.5361 56.527 63.7625C56.1954 62.647 55.2608 61.7727 54.4166 61.1999C54.4468 62.8581 54.0549 63.4912 53.6629 64.5463C53.3916 64.5765 53.1504 64.3051 52.7585 64.3051C53.1203 63.4912 53.6027 62.2551 53.4519 61.0793C53.3916 60.3859 52.9695 59.8433 52.6681 59.3911C52.5475 59.8734 52.7887 60.3256 52.849 60.808C52.9997 61.7727 52.7585 62.6169 52.3666 63.3103C52.2762 63.3404 52.3063 63.25 52.246 63.2198C52.3364 63.4309 52.1556 63.2801 52.246 63.4007C51.7938 64.0338 50.9195 64.8478 49.8342 65.089C49.7136 64.8177 49.5327 64.6066 49.4423 64.3051C50.9195 64.064 52.0048 63.0992 51.8541 61.411C51.7636 60.4462 51.2511 59.6925 51.0401 58.8484C50.4371 60.0543 49.5629 62.3455 50.8894 63.5213C50.7688 63.7625 50.4673 63.8529 50.196 63.9434C49.5026 63.2198 49.0202 62.0742 49.2312 60.7477C49.3217 60.2955 49.5026 59.8734 49.4724 59.3911C48.5378 60.0543 48.5077 61.8933 48.8996 63.2198C49.3217 64.6669 50.2563 66.0236 51.0099 66.8376C50.8291 66.9883 50.7085 67.1692 50.4974 67.2596C48.9599 65.903 47.7238 64.0037 47.7238 61.2301C46.7591 61.8029 45.4326 63.1897 45.4326 64.8177C45.4326 65.8125 45.9753 66.5361 46.6385 67.0486C46.6687 67.2295 46.5782 67.5309 46.6687 67.6817C46.4275 67.6515 46.2768 67.4405 46.0959 67.2898C45.2819 66.6265 44.4076 65.5111 44.7995 63.8228C45.0106 62.9786 45.4628 62.1044 45.9753 61.5316C46.6687 60.7477 47.7238 60.2051 47.8444 58.9991C46.6084 59.4815 45.5532 60.1749 45.5834 61.9235C45.3422 62.2551 45.101 62.5867 45.0106 63.0389C44.5282 62.5867 44.7392 61.3507 44.5282 60.808C44.3473 60.7477 44.4377 60.9587 44.4076 61.0793C44.3774 61.1698 44.076 61.019 44.1061 61.1999C44.076 61.411 44.5583 61.3205 44.5282 61.1999C44.1664 61.9235 43.684 62.4661 43.6238 63.3404C43.5032 65.1191 45.1311 66.5361 45.4929 67.9229C45.8547 69.37 45.0708 70.6663 43.5936 70.7568C44.5282 70.2744 45.4025 69.4001 45.0407 68.0736C44.6488 66.6868 42.9304 65.8427 42.6892 63.9735C42.5686 62.9485 42.8701 61.8632 43.4429 61.1396C43.4127 61.0492 43.3223 61.1999 43.4127 61.0492C43.5635 60.8683 43.5635 60.7477 43.7745 60.5065C43.8951 60.6573 43.6238 60.7176 43.6238 60.8985C43.684 60.7477 43.7745 60.8382 43.9855 60.808C44.0157 60.7176 43.9855 60.6271 44.0157 60.5065C44.1061 60.5065 44.1966 60.5065 44.287 60.5065C44.3172 60.3558 44.2267 60.2955 44.287 60.2352C45.4025 59.2102 47.3621 58.9991 47.7841 57.2807C47.2113 58.969 45.2216 59.2403 44.0458 60.3256C43.9252 60.1749 44.3473 59.9337 44.4679 59.783C43.2017 60.2051 41.2722 60.9889 40.9708 62.436C40.6693 63.8228 41.6039 64.486 42.2973 65.3302C42.9907 66.114 43.8348 67.0184 43.6238 68.2243C43.5333 68.8273 42.7495 69.7317 42.1164 69.0082C42.7796 69.2192 43.3826 68.6766 43.2921 67.7721C43.051 65.5714 39.3126 65.2096 39.9457 62.2249C39.2222 62.7375 38.8604 63.9434 39.3729 64.8779C39.9156 65.903 41.3928 66.2044 41.7244 67.139C41.9656 67.7721 41.7546 68.4957 41.2421 68.6464C41.7847 68.1641 41.4833 67.139 40.9708 66.7773C40.006 66.114 38.5589 65.9633 38.3178 64.3654C37.9258 61.622 40.2171 60.5668 41.8752 59.6021C41.2722 60.0242 40.6994 60.4161 40.3979 61.1095C41.4833 59.1499 44.2569 58.9087 46.4878 58.0947C45.2819 58.3962 43.7443 58.8484 42.5384 59.18C43.3524 58.7881 44.2569 58.4263 45.1914 58.0947C46.2466 57.7329 47.6033 57.4013 48.1459 56.6175C48.7489 55.7432 48.8695 53.9946 48.6283 52.6681C48.2364 50.5578 46.9702 49.4423 44.8598 49.0203C43.8348 48.8997 42.9002 49.3519 42.0259 49.5629C41.9053 49.5931 41.7847 49.5629 41.6642 49.5931C41.0612 49.8342 40.8803 50.6181 41.0913 51.4321C40.7296 51.2512 40.609 50.1357 41.0009 49.7438C39.9759 49.9247 39.2222 50.7085 38.9509 51.7335C38.8303 50.8894 39.4935 50.1357 40.0362 49.7136C38.981 49.8041 37.9258 49.0203 36.931 49.0203C36.117 49.0203 35.514 49.6232 35.3331 50.4673C35.1221 50.1056 35.4236 49.6232 35.5743 49.382C35.2728 49.4725 35.0618 50.3769 35.303 50.799C35.4236 50.2262 35.6346 49.7739 35.9964 49.4725C36.4787 49.985 36.4787 50.8894 36.0265 51.4321C35.7853 51.7335 35.4236 51.8843 35.3331 52.1858C35.3633 52.2762 35.2728 52.4571 35.3633 52.4872C34.3081 52.1556 34.1574 49.382 35.6045 49.382C35.6949 49.2916 35.7552 49.2011 35.8456 49.1107C34.0971 49.4725 32.7404 51.5225 33.7353 53.4218C33.675 53.5726 33.4941 53.2108 33.3434 53.2409C33.464 53.4821 33.7052 53.5726 33.9162 53.6931C33.7052 53.0902 33.3735 52.6078 33.464 51.7034C33.886 51.9446 34.3986 52.1255 34.5191 52.638C34.6699 53.3314 34.1875 54.1454 34.6397 54.6579C34.5191 54.688 34.3383 54.6579 34.1574 54.6277C33.1022 54.2961 31.9566 53.3314 32.7404 51.9446C32.8912 52.4269 32.9213 52.9998 33.3132 53.2409C32.8912 52.7586 32.7103 51.7034 32.9213 50.8291C31.5044 51.4924 30.9617 54.477 31.8963 56.1653C31.6853 56.105 31.625 55.8939 31.4441 55.8035C31.5647 56.105 31.8661 56.1954 32.0772 56.3763C31.8963 55.8035 31.5647 55.0799 31.5044 54.266C32.2279 54.4468 32.7404 54.8388 32.8309 55.5924C32.8912 56.105 32.5294 56.9491 32.861 57.3712C31.4139 57.3712 29.9668 56.0748 30.8411 54.477C30.9919 54.9593 31.1124 55.4719 31.4742 55.7733C31.1426 55.1402 30.8713 54.5976 30.8411 53.663C30.7808 50.7688 33.1926 48.7791 35.6045 48.1158C35.3331 47.1209 33.1323 47.543 32.9515 48.2364C33.4037 47.9349 33.7956 47.5732 34.5493 47.5732C34.5493 49.0805 32.6801 48.6886 31.9264 49.4423C31.7456 48.0857 32.861 46.2467 34.3081 47.1511C33.7353 47.2114 33.3735 47.5129 33.1022 47.9048C33.3735 47.754 33.6449 47.3621 34.1272 47.2415C34.278 47.2114 34.4588 47.2717 34.5794 47.1511C34.1272 46.8195 33.5846 46.4577 32.9816 46.4577C31.9264 46.4275 31.0823 47.4224 30.811 48.2364C30.7507 47.3923 31.3536 46.8496 31.8661 46.4577C29.3337 46.5783 27.3138 49.4423 28.3087 52.4269C28.4293 52.7586 28.6102 53.1505 28.8212 53.5123C29.2131 54.2358 29.6955 54.6579 28.9418 55.2307C28.58 54.5373 28.0977 53.9042 27.7058 53.2409C27.4947 53.7233 27.2837 54.1755 26.9219 54.477C27.0727 53.9042 27.4947 53.3615 27.3741 52.4872C27.3138 52.0652 27.133 51.6732 27.1028 51.2512C27.0425 50.3769 27.1631 49.4725 27.3741 48.8092C26.8616 49.4122 26.4396 50.0754 26.0778 50.8291C26.1079 50.0151 26.5903 49.3519 26.9219 48.7791C26.5903 48.8997 26.0778 48.8695 25.7462 48.7791C26.741 48.6886 27.4043 48.2666 27.9168 47.7239C28.8212 46.1261 30.3286 45.1613 32.9515 45.2819C32.5294 44.3172 32.3184 42.5686 32.4691 41.2421C32.5294 40.8201 32.6801 40.0362 32.9515 39.8252C33.3735 39.5237 33.7956 39.3127 34.1875 39.0112C34.0066 39.6443 33.6449 40.4583 33.6147 41.3627C33.8257 41.2421 34.0368 40.8201 34.3684 40.6693C34.2478 40.5186 34.0971 40.9105 34.0066 40.8201C34.1574 40.0362 34.489 39.5539 35.1221 39.3428C35.6045 39.1921 36.2376 39.2524 36.4185 38.77C37.0516 40.3076 35.9361 41.9355 34.3383 41.2723C34.6699 40.7899 35.1221 40.4281 35.7853 40.3076C35.3331 39.9759 34.6397 40.398 34.3383 40.609C34.6699 40.5487 35.0015 40.2171 35.5442 40.2473C33.7353 40.609 33.1625 43.8047 34.489 45.3121C34.4588 44.6488 34.5794 43.8951 34.8809 43.4429C34.7905 43.9554 34.7302 45.0106 34.9111 45.5834C35.3934 47.0908 37.4435 48.0555 39.3428 48.2063C38.8604 47.332 38.6192 46.2467 37.7148 45.7944C37.8052 46.0055 38.0766 46.0055 38.1369 46.2467C36.9611 47.0003 35.514 45.915 35.4537 44.6488C36.1471 44.7393 36.9008 44.3775 37.5038 44.6187C37.956 44.7996 38.0766 45.1915 38.2876 45.6437C38.2575 45.8246 38.1067 45.5231 37.9258 45.5533C38.0464 45.7341 38.2876 45.7944 38.4383 45.9452C38.4383 45.6738 38.3479 45.0407 38.4082 44.5885C38.4986 43.5032 39.1317 42.4782 38.5288 41.3024C38.6795 41.3929 38.7398 41.5738 38.8303 41.6944C38.8906 41.4532 38.5891 41.2723 38.4383 41.1215C38.4082 41.5436 38.6795 41.9657 38.7097 42.448C37.5641 42.2672 37.2626 40.8804 37.6847 39.7649C38.1067 40.2473 39.0714 40.3377 39.192 41.1215C39.2222 41.3627 39.2222 41.8149 39.1016 42.0863C38.9509 42.026 38.981 41.7848 38.8604 41.6944C38.8001 41.8451 39.0112 42.0863 39.0112 42.2672C39.4332 41.6642 39.7347 40.9407 40.5788 40.7598C40.0362 41.3929 39.4031 42.3275 39.1619 43.3826C38.6795 45.704 39.5237 47.6636 41.5737 47.9349C41.4833 47.8143 41.2119 47.5732 41.0311 47.4224C41.0311 47.6033 41.2119 47.6335 41.2722 47.7239C40.5788 47.6636 40.1266 47.0606 40.0965 46.307C40.0965 45.704 40.5185 45.1613 40.5185 44.6187C41.1215 45.3422 42.2671 46.0356 41.7244 47.5129C41.6039 47.5129 41.634 47.3621 41.4833 47.3923C42.3576 48.2967 44.1966 47.8143 44.8598 47.0305C44.9503 46.2467 44.4679 45.7944 44.0458 45.0709C43.5032 44.1665 42.7796 43.2319 41.2119 43.5032C41.0009 43.5334 40.7899 43.6841 40.5487 43.7444C40.9105 43.0811 42.1767 43.0209 42.9907 43.262C42.5384 40.7598 41.1818 38.77 38.7398 38.1068C38.8906 37.8656 39.3729 37.2023 39.7045 37.1722C40.0362 37.142 40.82 37.5943 41.2722 37.8354C42.0561 38.2575 42.5384 38.6796 43.0509 39.1921C43.8348 37.2325 44.89 35.6045 46.4275 34.3986C46.7893 34.489 47.0606 34.6398 47.3922 34.7604C46.126 36.117 44.498 37.745 44.287 40.2171C44.1664 41.4532 44.5583 42.6591 44.9804 43.5334C45.0708 41.9054 46.1863 40.5186 45.5231 38.8303C45.8547 38.8906 45.9451 39.584 46.0657 40.0061C46.3672 39.4031 46.7591 38.9208 47.1209 38.4083C47.4827 38.6494 47.7238 38.9811 48.0253 39.2524C47.0304 40.5186 46.1562 42.1164 46.3069 44.4378C46.6084 43.7142 47.0606 43.1414 47.6033 42.6591C47.3319 43.5032 46.2466 44.2871 46.5782 45.704C46.8194 46.7592 47.6937 47.7239 48.8695 47.8445C49.5026 46.8496 48.9599 45.2216 48.2364 44.7393C48.3569 44.6488 48.4775 44.9202 48.6283 44.9202C48.6584 44.7393 48.2665 44.6187 48.0555 44.5282C48.3268 45.0106 48.9901 45.4628 49.0202 46.307C48.4775 46.1864 48.1158 46.1864 47.8143 45.915C47.3319 45.493 47.6033 44.4981 47.2716 43.9253C48.8695 43.7444 49.8342 44.5584 49.5026 46.0658C49.2915 45.704 49.1408 45.2819 48.8393 45.0106C49.0503 45.4327 49.5026 45.9452 49.5026 46.729C49.8643 45.5834 49.804 44.1062 49.6232 42.8098C49.2312 40.0061 47.6636 38.2575 45.5231 37.2023C45.7341 36.8406 45.9753 36.5391 46.2165 36.1773C47.8444 36.931 49.0202 38.1068 50.1055 39.4031C50.1357 38.77 50.3166 38.3178 50.6482 37.9862C50.3768 38.6193 50.2261 40.187 50.9195 40.609C51.3416 40.2473 51.6129 39.7348 51.9445 39.2825C52.9093 37.9862 54.1152 36.8707 55.6828 36.117C55.8939 36.4788 56.1351 36.8104 56.3762 37.142C53.6328 38.6193 51.7938 41.1517 52.1556 45.6437C52.3967 44.7996 52.849 44.1665 53.5122 43.7444C52.9997 44.4378 52.246 45.4025 52.457 46.8195C52.6982 46.4275 53.06 45.9753 53.5122 45.915C53.1203 46.3371 52.6982 46.7893 52.6681 47.543C53.1203 48.1761 54.1453 47.5129 54.6277 46.9702C55.1402 46.3974 55.6225 45.3121 55.5924 44.3474C55.5623 43.051 54.6578 42.2672 53.9946 41.6642C54.3563 41.6642 54.6578 42.0561 54.9593 42.2069C54.6578 41.8149 54.2659 41.5436 53.6629 41.4532C54.0549 41.8451 54.5674 42.1466 54.8387 42.6591C54.5071 42.6289 54.2659 42.6892 54.0549 42.6591C53.1806 42.5083 53.3313 41.4532 52.849 40.9105C54.0247 40.4281 55.2909 41.001 55.2005 42.3275C55.0196 42.3877 55.11 42.1767 54.9593 42.2069C55.11 42.5083 55.3814 42.6892 55.502 42.9907C55.3512 41.5436 54.6578 40.2774 53.9041 39.3127C53.9946 39.1318 54.085 38.9811 54.2659 38.8002C54.3262 38.7097 54.6277 38.3781 54.688 38.3781C54.8387 38.3781 55.2005 38.9509 55.3211 39.1318C55.5321 39.4333 55.6828 39.7348 55.8034 39.9759C55.924 39.5539 56.0145 39.0715 56.2557 38.77C56.316 39.0414 56.1652 39.2825 56.1351 39.5237C55.9542 41.0613 56.8888 42.026 56.8285 43.5334C57.8535 42.2973 57.7932 38.8906 56.7079 37.6546C56.8888 37.6546 56.8586 37.4435 56.8888 37.2928C56.9792 37.2928 57.1902 37.3531 57.1299 37.1722C57.2807 37.3229 57.341 37.5943 57.2807 37.8053C57.3108 37.9862 56.9189 37.745 57.0093 37.9862C57.0998 38.1972 57.4314 37.9862 57.4917 37.8957C57.9741 39.1619 58.2756 40.8502 57.8836 42.2973C57.6726 43.051 57.1601 43.9554 56.738 44.8297C56.2255 45.9452 55.8637 46.9099 54.9593 47.4526C55.4417 47.4224 55.6527 46.7893 56.0145 46.518C56.6777 44.7694 58.155 43.1414 58.155 40.7598C58.155 39.5539 57.8233 38.6193 57.4917 37.5943C56.7682 36.1472 55.8034 34.9413 54.5975 33.9765C55.4417 34.8508 56.527 35.8155 57.0998 37.0817C56.7983 37.0516 56.6476 37.1722 56.6777 37.4737C55.4417 35.5141 53.9946 33.7655 51.2511 33.3133C51.9747 33.1023 52.6379 32.8309 53.3615 33.0721C55.8336 33.9162 57.8836 36.7803 58.8182 39.1921C59.6623 38.348 60.7477 37.6847 62.0139 37.2023C62.858 36.9009 63.7323 36.8707 63.9735 35.9964C63.7926 36.1472 63.7021 36.3582 63.5514 36.5391C63.1293 35.695 63.9433 35.1523 64.2147 34.6398C64.9382 34.9111 65.1191 36.72 64.0338 36.6898C64.1845 36.3884 64.3352 36.0869 64.3051 35.6045C64.1544 35.6648 64.0941 35.8155 64.0036 35.9663C64.1242 36.117 64.1544 35.695 64.2448 35.8155C64.2147 36.2075 64.1242 36.5089 63.883 36.72C64.7573 36.8104 65.9331 36.8104 66.6868 37.1119C67.0184 37.6244 67.3199 38.1671 67.6213 38.7097C66.5662 38.1671 64.9683 37.6847 63.461 38.0163C62.4058 38.2575 61.1396 39.0414 60.5065 39.7649C59.7226 40.6693 59.2403 41.9958 58.9388 43.262C59.8432 42.9907 61.019 43.1113 61.4712 43.7444C60.7175 43.3525 59.3307 43.4128 58.6373 44.0459C58.3961 44.2871 58.0947 44.7694 57.8535 45.1613C57.5821 45.5834 57.2505 45.9753 57.0998 46.3371C56.7983 47.2415 57.8535 47.6033 58.6072 47.8143C59.7528 48.146 60.9888 47.332 61.1697 46.307C61.2903 47.1209 60.808 47.6636 60.2352 47.9048C61.9536 47.6937 63.0992 46.2768 62.9183 44.3172C62.7977 42.9606 62.2551 41.7245 61.5616 40.9407C61.6822 41.3024 62.1043 41.6642 62.2551 42.1164C60.9286 42.2973 60.6572 41.0612 60.3859 40.0664C61.6219 39.7046 62.7073 40.398 62.6771 41.6642C62.255 41.2723 61.9536 40.7899 61.2602 40.6392C61.1999 40.7598 61.3808 40.8502 61.4411 40.9407C61.5315 40.9708 61.5014 40.7598 61.4109 40.8201C61.7124 40.7598 62.044 41.0613 62.2551 41.3326C62.4962 41.6039 62.6771 41.9657 62.8279 42.237C63.0389 41.9054 63.1293 41.5135 63.4007 41.2723C63.3102 41.7546 63.069 42.2672 63.1293 42.8701C63.1595 43.2017 63.3705 43.5334 63.4308 43.8951C63.5815 44.5584 63.5816 45.1915 63.461 45.8849C63.883 45.6437 64.2749 45.3422 64.908 45.3121C63.672 45.7944 63.1293 47.0003 62.5565 48.146C64.5161 48.0857 66.8074 47.0004 67.139 45.2518C67.2596 44.7091 67.139 44.1062 67.1088 43.4731C67.4103 43.9253 67.5309 44.6488 67.4706 45.2518C67.7721 44.7694 68.1339 44.1966 68.2243 43.5334C68.4052 41.9657 67.5912 40.7296 66.4456 40.3679C66.5059 40.3076 66.9581 40.3679 66.7471 40.4583C66.8978 40.4884 66.9882 40.398 67.0485 40.4583C67.953 40.7296 68.6464 41.6341 68.9177 42.8098C69.1589 43.7745 69.0383 44.8297 68.375 45.4327C69.4604 44.9202 69.1287 42.2069 68.3449 41.5135C68.2846 39.9156 67.6515 38.6193 66.8978 37.5038C65.7823 35.8155 64.3955 34.3082 62.4661 33.4942C61.5616 33.1023 60.2954 33.0118 59.5116 32.2581C59.0895 31.836 58.8785 31.2331 58.7579 30.6301C58.9689 30.7809 59.0292 31.0221 59.18 31.2029C59.5116 30.7507 59.1498 30.4493 58.9991 30.1779ZM36.8405 45.1915C37.2023 45.3121 37.4736 45.5231 37.8052 45.6739C37.6545 45.4327 37.2927 45.4025 37.1118 45.1915C37.4736 45.2216 37.7148 45.3422 38.0464 45.4327C37.8354 45.2216 37.2626 45.101 36.8405 45.1915ZM40.9708 45.8246C40.7899 46.3371 40.8502 47.0305 41.2119 47.3018C41.1215 47.0003 40.8502 46.6989 41.0311 46.2768C41.1516 46.729 41.3325 47.0908 41.6943 47.3018C41.3024 46.9401 41.0612 46.4577 40.9708 45.8246ZM63.0389 33.1625C62.8882 33.1927 62.7073 33.042 62.6168 33.1625C62.7374 33.1324 63.069 33.2831 63.0389 33.1625ZM69.0383 39.4031C69.0383 39.4634 69.0986 39.4031 69.0684 39.3127C68.4655 37.2626 67.1088 35.3935 65.4507 34.278C64.8779 33.8861 64.1845 33.4339 63.5514 33.253C63.4308 33.2228 62.8279 33.1927 63.2801 33.253C66.1743 34.3082 68.0434 36.3884 69.0383 39.4031ZM44.4377 39.9759C44.4076 40.4281 44.4679 40.609 44.4679 40.2473C44.5282 38.0465 45.312 36.2678 46.2466 35.0317C46.2466 34.9714 46.2165 34.9413 46.2165 35.0317C45.1914 36.2376 44.5583 37.8656 44.4377 39.9759ZM53.4519 38.3178C52.9394 39.0112 52.3666 39.8553 52.2159 40.6693C52.0651 41.3326 52.2762 42.0863 52.0953 42.7194C52.0953 42.84 52.0953 42.9304 52.0953 43.0209C52.0953 43.654 52.0651 42.9304 52.1254 42.6591C52.1857 42.3576 52.1556 41.5738 52.2159 41.0914C52.3364 40.0664 52.9093 39.1921 53.4218 38.4685C53.6931 38.1068 53.9644 37.7149 54.2659 37.4134C54.5975 37.0817 54.9593 36.8406 55.2306 36.5089C54.6277 36.9612 53.9644 37.5943 53.4519 38.3178ZM65.2397 37.142C65.8426 37.0817 65.7522 37.142 65.1191 37.1119C63.2801 37.2928 61.8631 38.0163 60.9587 39.1016C60.808 39.2825 60.5969 39.4333 60.5969 39.6745C61.4109 38.2575 63.2801 37.3229 65.2397 37.142ZM51.9747 43.4731C52.0953 44.2871 52.035 44.89 52.0953 45.7341C52.2159 47.1812 52.8791 47.8746 53.3916 48.96C53.4218 49.0504 53.3313 49.2313 53.4218 49.2614C53.4218 48.3871 52.8791 47.9952 52.6078 47.3923C52.1254 46.3371 52.3063 45.0106 52.0953 43.5032C52.0048 42.8098 51.7033 42.1466 51.432 41.5436C50.5879 39.7649 49.2011 38.348 47.965 37.1722C47.9047 37.1722 47.8746 37.2023 47.965 37.2023C49.5327 38.9811 51.5225 40.6693 51.9747 43.4731ZM42.0259 39.4634C41.6039 38.8002 41.1516 38.1068 40.5487 37.6847C40.5487 37.6847 40.3075 37.4435 40.4582 37.6546C40.7296 37.9862 41.0612 38.2575 41.3024 38.5891C42.0862 39.6443 42.5987 40.7598 43.2017 42.0561C42.8701 41.1215 42.5083 40.2473 42.0259 39.4634ZM56.9792 46.2768C56.8285 46.8195 56.6777 47.3018 56.4365 47.754C56.1954 48.1761 55.8939 48.5379 55.6828 48.96C55.9542 48.5077 56.3762 48.0857 56.6174 47.6335C57.0093 46.8496 57.1299 45.8547 57.4314 44.9805C58.3358 42.4179 59.5418 40.0362 60.9286 38.1369C59.2704 40.3377 57.8233 43.262 56.9792 46.2768ZM52.457 50.1357C51.4622 49.0202 51.6129 47.2114 51.3717 45.4628C51.0702 43.4429 50.4371 41.4833 49.5026 40.2171C49.5026 40.187 49.4423 40.187 49.4724 40.2473C50.4673 41.6944 51.1305 43.8348 51.3717 46.1261C51.432 46.6989 51.4019 47.3018 51.4923 47.8746C51.6732 49.2011 52.3666 50.196 53.1806 50.9196C52.9695 50.6181 52.6982 50.407 52.457 50.1357ZM46.0657 42.5083C46.0657 42.8098 46.0959 42.4782 46.0959 42.237C46.0959 42.1466 46.1863 41.9958 46.0959 41.8451C46.0959 42.1164 46.0657 42.3877 46.0657 42.5083ZM33.7654 44.2268C33.9463 45.0709 34.0971 45.9452 34.5794 46.518C35.6949 47.9048 37.8052 48.6283 39.8251 49.0805C37.956 48.5077 36.0265 48.0254 34.7905 46.6687C33.7052 45.493 33.9463 43.2922 32.9515 41.9054C33.2831 42.6591 33.5846 43.3826 33.7654 44.2268ZM43.6539 42.3275C43.6539 42.237 43.684 41.8752 43.6238 41.9657C43.6238 42.0561 43.5936 42.4179 43.6539 42.3275ZM50.4673 50.196C50.4371 49.7438 50.1658 49.3519 50.0754 48.8695C49.7739 47.332 50.4371 45.4628 50.3165 43.7745C50.2864 43.2922 50.1357 42.84 50.0452 42.3576C50.7386 44.8599 49.2915 48.1158 50.4673 50.196ZM43.7142 42.5385C43.7142 42.2672 43.6539 42.448 43.684 42.6289C43.8046 42.7194 43.7745 42.9606 43.8348 43.1113C43.8348 42.8701 43.7745 42.7194 43.7142 42.5385ZM52.7284 53.4218C52.246 52.9093 51.0702 52.9696 50.6482 52.4872C50.3768 52.1556 50.3166 51.4622 50.196 51.0703C50.0754 50.7085 49.9246 50.3769 49.6533 50.0453C49.1709 49.4423 48.8393 48.8695 48.2062 48.3269C47.3018 47.1812 46.2466 46.0055 46.0959 44.1062C46.0657 43.7444 46.0657 43.5937 46.0054 43.4128C45.9753 43.2319 46.0356 42.7495 45.9753 42.7495C45.915 44.6187 46.4576 45.8849 47.0606 47.1209C47.9349 48.2666 49.2011 48.96 49.4724 50.6784C49.5629 51.1306 49.5327 51.5225 49.593 51.8843C50.0452 55.1704 52.457 55.9542 54.688 57.341C55.3512 57.7631 55.9542 58.2153 56.5873 58.6374C54.2659 56.4667 50.2563 55.9542 49.6834 52.1255C49.5629 51.2813 49.5327 50.4372 49.3217 49.7438C50.2563 50.7688 50.196 52.4872 51.1607 53.4821C51.432 53.7534 51.7636 53.9645 52.0651 54.1755C52.3666 54.3865 52.6681 54.6277 52.9997 54.7483C52.1254 54.1152 51.0401 53.5123 50.6482 52.5174C51.1607 53.0299 52.035 52.9093 52.5475 53.3615C52.9093 53.7233 52.9394 54.2057 53.2107 54.7182C53.1203 54.2057 53.0901 53.8137 52.7284 53.4218ZM43.8951 43.4429C44.0157 43.4128 43.9554 43.5635 44.0157 43.5937C43.9855 43.8047 44.076 43.7142 44.0458 43.5635C43.9252 43.4429 43.9252 43.2319 43.8348 43.0811C43.8348 43.262 43.9252 43.2922 43.8951 43.4429ZM50.7989 57.1601C50.1357 56.3763 49.4423 55.4719 49.2915 54.3564C49.1106 53.1806 49.382 52.035 49.1709 50.799C49.0202 49.8945 48.6584 49.3519 48.2062 48.8092C47.8444 48.3871 47.4525 48.0254 47.151 47.5732C46.8194 47.4827 46.6385 47.2415 46.4878 47.0003C45.4628 46.2768 44.7694 45.2216 44.2267 44.0459C44.2267 44.076 44.2267 44.1062 44.2267 44.1363C44.7091 45.3121 45.4326 46.2467 46.2768 47.0305C46.3672 47.1209 46.3672 47.2114 46.3973 47.2717C46.3973 47.1812 46.5179 47.2717 46.5481 47.2717C47.4827 48.2967 48.7187 49.0805 49.0503 50.6482C49.2614 51.7034 49.0202 52.849 49.1709 54.2057C49.3518 55.7733 50.3165 56.6476 51.1607 57.6425C51.8239 58.3962 52.5475 59.1499 53.3916 59.5117C53.2107 59.4514 53.1806 59.2705 53.0298 59.2705C53.1203 59.2403 53.0298 59.0896 52.9997 59.0896C52.9696 59.18 53.06 59.18 53.0298 59.2705C52.246 58.6977 51.4622 57.9741 50.7989 57.1601ZM27.5249 50.5276C27.2837 47.3621 29.4543 45.915 32.0169 45.4327C32.2279 45.4327 32.439 45.4327 32.65 45.4327C32.7404 45.4327 32.861 45.4327 32.9515 45.4327C33.0118 45.4327 33.0419 45.4327 33.1022 45.4327C33.1323 45.4327 33.1323 45.3724 33.0721 45.4025C30.2382 45.3422 27.9469 46.729 27.555 49.1408C27.4043 50.0453 27.5249 51.2813 27.8263 51.9747C27.7359 51.4321 27.5852 51.0703 27.5249 50.5276ZM69.6111 46.0055C70.2141 46.1261 71.1185 46.1562 71.6008 46.0356C71.7214 46.0356 71.842 46.0356 71.9626 46.0356C70.7567 46.0356 69.2795 45.915 68.4655 45.5231C68.1942 45.6739 67.7118 45.7944 67.6515 46.0356C68.2243 45.3422 68.9177 45.8849 69.6111 46.0055ZM66.4154 47.1812C65.4206 48.0555 64.1845 48.8695 62.9484 49.4423C64.8779 48.7489 66.3551 47.4224 67.5008 46.0959C67.5008 46.1261 67.4706 46.1261 67.4103 46.1261C67.4103 46.0356 67.5912 45.915 67.5008 45.8246C67.2596 46.3974 66.8375 46.7893 66.4154 47.1812ZM44.2569 48.6283C42.6892 48.2364 40.0362 48.5982 39.2825 47.2717C39.3126 47.1209 39.1317 46.9702 39.2523 47.1511C39.8553 48.6886 42.3274 48.357 44.2569 48.6283ZM61.2602 48.9298C60.6874 49.0504 60.0543 48.8695 59.3006 48.8997C59.3307 48.9901 59.5418 48.8997 59.6623 48.9298C61.4411 49.4725 62.5565 48.3269 63.0389 47.3621C62.5264 47.9048 62.1646 48.7489 61.2602 48.9298ZM47.6636 50.1357C47.2716 48.9901 46.3672 48.3871 45.4025 47.7842C45.1613 47.8445 44.9503 47.6033 44.7392 47.754C46.1863 48.0857 47.0606 48.9901 47.6636 50.1357ZM50.7085 51.2512C50.9798 51.5527 51.3416 51.9747 51.7636 52.0953C51.8541 52.1255 52.4269 52.1255 52.1857 52.0953C50.5879 51.8541 50.0754 49.9247 49.2312 48.7791C49.0503 48.5379 48.5077 47.8445 48.3871 47.8746H48.4172C49.3518 48.7188 49.8945 50.2563 50.7085 51.2512ZM60.2954 47.8746C59.5116 47.9952 58.5167 48.568 57.6123 48.4474C57.341 48.4173 57.0998 48.2063 56.8285 48.2666C57.9741 48.8394 59.4212 48.2063 60.4462 47.8746C60.3859 47.8746 60.3557 47.8746 60.2954 47.8746ZM54.5372 48.8092C54.688 49.3519 54.3865 49.8342 54.2659 50.3769C54.2358 50.4673 54.2961 50.6181 54.2961 50.4673C54.3865 49.9247 54.7784 49.5026 54.6578 48.8997C54.5674 48.3871 54.085 48.146 53.6027 47.9651C53.5424 47.9651 53.5122 47.9952 53.6027 47.9952C53.9644 48.2364 54.3865 48.357 54.5372 48.8092ZM66.3853 48.1158C66.2647 48.1158 64.9382 48.1158 65.6919 48.146C65.8426 48.146 65.9632 48.146 66.114 48.146C67.561 48.3268 68.7368 48.7791 69.0684 50.1056C68.9177 48.8394 67.5912 48.2364 66.3853 48.1158ZM44.9804 48.8997C44.7091 48.7188 44.4679 48.5379 44.3172 48.7188C44.6186 48.6585 44.7392 49.0202 44.9804 48.8997ZM40.3075 49.171C40.1568 49.2011 39.9759 49.0504 39.8854 49.171C40.0362 49.1408 40.3377 49.2916 40.3075 49.171ZM53.4821 50.3166C53.4519 50.0453 53.5424 49.4725 53.4519 49.382C53.4519 49.6534 53.3916 50.2262 53.4821 50.3166ZM52.9695 52.1858C52.7585 52.2159 52.4269 52.1255 52.2762 52.2159C52.4872 52.1858 52.8188 52.2762 52.9695 52.1858ZM50.9195 55.5623C51.2511 55.9844 51.8239 56.2858 52.1254 56.6476C52.5776 57.1903 52.4872 58.0344 52.8188 58.7881C52.6078 57.944 52.6078 57.0395 52.0651 56.4969C51.9445 56.3763 51.7938 56.2858 51.6732 56.1954C50.9798 55.5924 50.4673 54.9292 50.0754 54.0248C50.0754 54.0549 50.0754 54.1152 50.0754 54.1454C50.3768 54.6579 50.5577 55.1402 50.9195 55.5623ZM48.7187 56.2256C48.7187 56.1351 48.7489 55.7733 48.6886 55.8638C48.6886 55.9542 48.6584 56.316 48.7187 56.2256ZM49.1408 58.7278C49.0503 59.4212 48.5981 59.9337 48.3871 60.4161C48.0856 61.9838 48.4172 63.9434 49.0503 65.0588C48.5981 63.672 48.0253 62.2249 48.4172 60.6573C48.5378 60.1448 48.99 59.6322 49.1106 59.1499C49.4423 58.0344 48.8092 57.1903 48.7187 56.3763C48.779 57.1601 49.2614 57.8837 49.1408 58.7278ZM50.196 58.6072C50.3467 59.4514 50.0151 60.3256 50.0754 61.3205C50.0452 61.4411 50.1357 61.622 50.1055 61.411C50.1055 61.2904 50.1055 61.1698 50.1055 61.0492C50.1357 60.2352 50.407 59.4815 50.2864 58.6977C50.1658 57.9138 49.5026 57.6425 49.0805 57.1903C49.4423 57.7329 50.0754 57.8837 50.196 58.6072ZM56.9189 58.9388C56.9189 58.8183 56.6174 58.6675 56.6777 58.758C56.7079 58.8786 57.1902 59.1197 56.9189 58.9388ZM52.6078 62.7676C52.5173 62.7978 52.5475 62.9485 52.4872 63.0088C52.5173 63.2198 52.6379 62.8279 52.6379 62.8279C53.1806 61.3507 52.2762 60.2955 51.7033 59.4815C51.6129 59.3609 51.4019 58.969 51.4622 59.1197C52.0953 60.0845 53.06 61.1095 52.6078 62.7676ZM45.0708 63.9735C45.0708 64.0037 45.0407 64.1243 45.0407 64.2147C45.0105 64.5765 45.0106 64.3956 45.0708 64.2147C45.312 63.5514 45.5231 62.9485 45.915 62.4963C46.6385 61.6823 47.7238 61.3507 48.3268 60.3859C47.151 61.6521 45.4326 62.2249 45.0708 63.9735ZM44.9804 64.8478C44.9804 64.7574 45.0106 64.4257 44.9503 64.5463C44.9503 64.6066 44.9201 64.9382 44.9804 64.8478Z" fill="#5C443C"/>
<path fill-rule="evenodd" clip-rule="evenodd" d="M31.2632 46.7893C31.022 47.1813 30.6603 47.7842 30.6904 48.5681C31.022 48.0555 31.1728 47.3621 31.7154 47.0607C32.6801 48.3269 30.9316 49.1107 30.8713 50.2262C30.4492 49.7438 29.9367 48.9901 30.0272 48.1761C30.0573 47.3923 30.6301 47.0607 31.2632 46.7893ZM30.9919 49.171C31.0522 49.171 31.1125 49.171 31.1728 49.171C31.1728 49.0504 31.1426 48.9298 31.2029 48.8695C31.2934 48.8695 31.3537 48.8695 31.4441 48.8695C31.4441 48.8092 31.4441 48.7489 31.4441 48.6886C31.0823 48.6283 30.9316 48.7791 30.9919 49.171Z" fill="#32513A"/>
<path fill-rule="evenodd" clip-rule="evenodd" d="M58.4564 58.6374C58.7579 58.5771 59.0594 58.8785 59.3609 58.9991C59.1197 58.9991 58.8182 58.6977 58.4564 58.6374Z" fill="#32513A"/>
<path fill-rule="evenodd" clip-rule="evenodd" d="M56.5873 33.0721C57.944 32.9214 58.758 33.2228 59.5117 33.7354C60.1448 34.1574 61.0492 35.0317 61.8632 34.0971C61.833 34.7302 60.9587 35.0317 60.2653 34.7905C59.3911 34.4891 58.6977 33.2831 57.0998 33.8258C57.2506 33.9162 57.4013 34.0368 57.5521 34.0971C57.5521 33.9162 57.3109 33.9765 57.3109 33.8258C58.3359 33.7354 58.6374 34.3685 58.8183 35.1523C58.7278 35.092 58.6374 35.0619 58.5168 35.0317C57.7329 35.2729 57.0697 34.9111 57.0094 34.2177C57.3109 34.1876 57.6123 34.4589 57.9138 34.5795C57.8837 34.4288 57.8234 34.3082 57.7329 34.2177C57.6425 34.2177 57.6726 34.3986 57.7631 34.3383C57.2807 34.1876 56.3763 33.8258 55.7733 34.2177C55.502 34.0067 55.2005 33.7957 54.9292 33.5846C55.8336 33.2228 56.7381 32.8309 57.0998 31.9566C57.1601 32.4089 56.8587 32.8309 56.5873 33.0721ZM55.9241 34.0067C56.4969 33.6148 57.1601 33.3133 58.0043 33.1626C57.0395 33.1927 56.4366 33.5545 55.9241 34.0067Z" fill="#32513A"/>
<path fill-rule="evenodd" clip-rule="evenodd" d="M45.6436 32.4692C47.0003 33.7957 49.4724 34.0368 51.0099 35.1523C50.6481 35.303 50.3768 35.5744 50.0452 35.7854C49.3819 35.3935 48.3871 34.9413 47.5429 34.5795C47.151 34.4288 46.8797 34.3685 46.4576 34.2177C46.3069 34.1574 46.2164 34.0368 46.0657 34.0368C45.5833 33.9765 45.101 34.2177 44.6488 34.3986C44.7995 34.1574 44.9804 33.9765 45.2819 33.8861C43.684 32.9214 42.5987 35.6045 41.0612 34.5795C40.8803 34.4589 40.82 34.278 40.6693 34.0368C40.9707 34.2177 41.3325 34.5192 41.845 34.4589C42.2671 34.4288 42.5686 34.067 42.9303 33.7957C43.6539 33.2831 44.4377 32.9214 45.8245 33.1023C45.6738 32.8309 45.6135 33.042 45.4024 33.0118C44.1362 32.8912 43.9252 31.3838 44.4679 30.2382C45.1613 30.9015 46.6084 31.3235 46.0657 32.7405C45.8547 32.7103 45.8547 32.4993 45.6436 32.4692ZM45.6436 32.4692C45.5532 32.3184 45.4627 32.1978 45.2819 32.1074C45.3421 32.2883 45.4929 32.3787 45.6436 32.4692ZM45.1914 31.9265C45.0708 31.8662 44.9804 31.625 44.8899 31.6853C45.0407 32.1074 45.1914 32.5596 45.5532 32.8008C45.4024 32.4993 45.1613 32.3184 45.0708 31.9566C45.101 31.9868 45.2216 32.0471 45.1914 31.9265ZM49.7437 35.1825C49.0805 34.2479 47.965 33.7957 46.6988 33.4942C46.6385 33.4037 46.4878 33.3736 46.3973 33.3434C46.337 33.3434 46.3069 33.3736 46.3973 33.3736C47.6032 33.9162 48.99 34.2177 49.7437 35.1825Z" fill="#32513A"/>
<path fill-rule="evenodd" clip-rule="evenodd" d="M46.4275 30.2684C47.1209 31.2029 48.0856 31.8662 49.382 32.228C48.0856 32.0471 47.0003 31.2934 46.4275 30.2684Z" fill="#32513A"/>
<path fill-rule="evenodd" clip-rule="evenodd" d="M38.5288 33.1324C37.3229 33.9464 35.9964 34.6699 35.6045 36.2979C35.8457 34.6699 37.2325 33.8559 38.5288 33.1324Z" fill="#32513A"/>
<path fill-rule="evenodd" clip-rule="evenodd" d="M62.5867 33.1626C62.7073 33.042 62.858 33.1927 63.0087 33.1626C63.069 33.2831 62.7374 33.1324 62.5867 33.1626Z" fill="#32513A"/>
<path fill-rule="evenodd" clip-rule="evenodd" d="M58.0042 33.1626C57.1902 33.3133 56.4968 33.6148 55.924 34.0067C56.4365 33.5545 57.0395 33.1927 58.0042 33.1626Z" fill="#32513A"/>
<path fill-rule="evenodd" clip-rule="evenodd" d="M63.2499 33.2831C62.7977 33.2228 63.4007 33.253 63.5213 33.2831C64.1845 33.4339 64.8779 33.9162 65.4206 34.3081C67.0787 35.4236 68.4655 37.2626 69.0383 39.3428C69.0684 39.4031 69.0081 39.4936 69.0081 39.4333C68.0434 36.3883 66.1743 34.3081 63.2499 33.2831Z" fill="#32513A"/>
<path fill-rule="evenodd" clip-rule="evenodd" d="M46.3973 33.4037C46.3068 33.4037 46.337 33.3434 46.3973 33.3736C46.5179 33.4339 46.6385 33.4339 46.6988 33.5243C47.965 33.8258 49.0804 34.278 49.7437 35.2126C48.99 34.2177 47.6032 33.9162 46.3973 33.4037Z" fill="#32513A"/>
<path fill-rule="evenodd" clip-rule="evenodd" d="M49.6232 37.534C49.8644 36.8104 50.4673 36.2376 51.0703 35.7552C51.6732 35.2427 52.3063 34.7604 53.06 34.4287C53.2409 34.4589 52.9696 34.489 52.9394 34.5192C51.6732 35.2126 50.3769 36.2376 49.6232 37.534Z" fill="#32513A"/>
<path fill-rule="evenodd" clip-rule="evenodd" d="M46.2466 35.0317C46.2466 34.9413 46.3069 34.9714 46.2768 35.0317C45.3121 36.2678 44.5282 38.0465 44.4981 40.2473C44.4981 40.609 44.4378 40.4282 44.4679 39.9759C44.5584 37.8656 45.1915 36.2376 46.2466 35.0317Z" fill="#E7D200"/>
<path fill-rule="evenodd" clip-rule="evenodd" d="M38.0464 38.6796C38.1067 38.3178 38.3479 37.9862 38.559 37.7148C39.6443 36.328 41.3627 35.4839 43.8047 35.4538C43.7745 35.5442 43.5936 35.4538 43.5032 35.4839C40.82 35.6949 39.0413 36.8104 38.0464 38.6796Z" fill="#32513A"/>
<path fill-rule="evenodd" clip-rule="evenodd" d="M27.5851 45.2518C27.6756 44.4981 28.1278 43.7444 28.5499 43.2017C28.158 43.262 27.555 43.2017 27.1028 43.1113C28.0072 42.9605 29.0021 42.8701 29.4845 42.2973C30.0271 40.9708 30.8411 39.9458 31.7757 39.0112C30.8411 39.2524 30.0874 39.6744 29.394 40.187C29.394 39.9759 29.7859 39.8252 29.8764 39.6141C29.4845 39.795 29.3036 40.2171 28.9719 40.4583C29.1227 40.5789 29.2734 40.3075 29.394 40.2171C29.8161 39.9156 30.3889 39.6141 30.9014 39.4031C30.6602 40.4281 29.9668 41.0009 28.6102 40.8804C28.4293 40.8502 28.4594 41.0009 28.3087 41.0009C28.3991 39.7046 29.2131 38.4685 30.6602 39.0112C30.419 39.2222 30.0573 39.3127 29.8764 39.584C30.6602 38.9208 31.836 38.6494 32.8309 38.2274C32.3485 38.1068 31.8963 37.9259 31.5044 37.7148C31.6551 37.9259 31.9264 38.0163 32.1977 38.1068C30.7808 38.8303 29.6955 37.5641 29.9367 35.9663C30.2984 36.2376 30.8411 36.117 31.2632 36.2075C32.0169 36.3883 32.2882 36.9611 32.4389 37.7148C31.7757 37.6545 31.3536 37.3229 30.8712 37.0817C30.9315 37.2626 31.2029 37.5641 31.4441 37.7148C31.5044 37.5942 31.233 37.5038 31.1727 37.4134C31.7757 37.5942 32.6198 38.0766 33.464 37.8354C33.7654 37.745 34.0971 37.5038 34.4287 37.3531C35.4236 36.9913 36.6898 36.7501 37.9861 36.6898C37.8655 36.4486 37.564 36.0869 37.564 35.6045C37.9258 35.9964 38.1971 36.4788 38.6192 36.7803C38.6494 36.9009 38.4082 37.1119 38.2574 37.2928C38.1067 37.4737 37.9258 37.6545 37.8354 37.8354C35.4537 37.9259 33.7051 38.8906 32.2279 40.2171C30.811 41.4833 29.8161 43.5032 29.7256 45.7643C29.394 46.0658 28.9418 46.2466 28.6705 46.5783C28.4594 45.3724 28.8513 44.0459 29.1528 43.0811C28.4896 43.6238 28.0374 44.4378 27.5851 45.2518ZM29.6653 43.5333C30.2381 40.7296 32.8007 37.8354 35.6346 37.2928C35.7853 37.2626 36.2375 37.2023 36.328 37.2023C36.1471 37.142 35.7853 37.2023 35.5743 37.2325C32.4691 37.7751 30.1176 40.8201 29.5749 43.865C29.6352 44.4076 29.6653 43.5936 29.6653 43.5333ZM29.5447 44.6187C29.5447 44.5282 29.5749 44.1665 29.5146 44.2569C29.5447 44.3473 29.4845 44.7091 29.5447 44.6187Z" fill="#32513A"/>
<path fill-rule="evenodd" clip-rule="evenodd" d="M27.9469 43.865C27.7661 44.2871 27.4344 44.9202 27.4043 45.6136C27.7359 45.101 28.0374 44.5584 28.3389 44.0157C28.4896 44.2569 28.5801 44.5885 28.5801 44.9202C28.5801 46.2165 27.4344 46.5481 26.5903 47.0908C26.1682 45.6136 26.6506 44.076 27.9469 43.865Z" fill="#32513A"/>
<path fill-rule="evenodd" clip-rule="evenodd" d="M35.7853 34.9111C36.5692 34.1876 37.5339 33.3736 38.5891 33.042C39.1619 32.6199 39.5538 32.0471 39.9759 31.4743C39.8854 31.9265 39.7046 32.2883 39.4634 32.5897C40.0362 32.439 40.6693 32.3787 41.2421 32.1978C42.2671 31.8963 42.7193 31.2331 43.262 30.4493C43.0811 32.1375 41.7847 32.6199 40.3377 33.0118C38.1369 33.6449 36.4787 35.2427 35.4236 36.9009C34.8508 37.0516 34.3684 37.2928 33.8257 37.4435C33.9463 37.0215 34.489 36.6597 34.6096 36.1472C34.7905 35.3332 34.3684 34.7001 34.1272 34.0971C34.5493 34.4288 34.8206 34.9714 34.9412 35.6045C35.4537 34.881 35.7552 33.9765 36.0567 33.0721C36.2376 33.7655 35.9361 34.3986 35.7853 34.9111ZM35.6045 36.2678C35.9964 34.6398 37.3229 33.9464 38.5288 33.1023C37.2324 33.856 35.8456 34.6699 35.6045 36.2678Z" fill="#32513A"/>
<path fill-rule="evenodd" clip-rule="evenodd" d="M55.2307 36.5391C54.9593 36.8707 54.5976 37.1119 54.2659 37.4435C53.9645 37.745 53.663 38.1068 53.4218 38.4987C52.9093 39.2222 52.3365 40.0664 52.2159 41.1215C52.1556 41.6039 52.2159 42.3877 52.1255 42.6892C52.0652 42.9605 52.0953 43.6539 52.0953 43.051C52.0953 42.9605 52.0953 42.8701 52.0953 42.7495C52.246 42.1164 52.0652 41.3326 52.2159 40.6995C52.3968 39.8855 52.9394 39.0413 53.452 38.3479C53.9645 37.5942 54.6277 36.9611 55.2307 36.5391Z" fill="#32513A"/>
<path fill-rule="evenodd" clip-rule="evenodd" d="M60.5969 39.6745C60.5969 39.4333 60.808 39.2524 60.9587 39.1016C61.8631 38.0163 63.3102 37.2928 65.1191 37.1119C65.7522 37.142 65.8426 37.0817 65.2397 37.142C63.2801 37.3229 61.4109 38.2575 60.5969 39.6745Z" fill="#32513A"/>
<path fill-rule="evenodd" clip-rule="evenodd" d="M29.6051 43.865C30.1478 40.8502 32.4993 37.8053 35.6045 37.2325C35.7854 37.2023 36.1472 37.142 36.3582 37.2023C36.2678 37.1722 35.8155 37.2626 35.6648 37.2928C32.8309 37.8354 30.2684 40.7296 29.6955 43.5334C29.6654 43.5937 29.6353 44.4076 29.6051 43.865Z" fill="#32513A"/>
<path fill-rule="evenodd" clip-rule="evenodd" d="M47.9349 37.2626C47.8444 37.2626 47.8746 37.2024 47.9349 37.2325C49.1709 38.4083 50.5577 39.8252 51.4019 41.6039C51.6732 42.1767 51.9747 42.8701 52.0651 43.5635C52.2762 45.0709 52.0651 46.3974 52.5776 47.4526C52.849 48.0555 53.3916 48.4475 53.3916 49.3217C53.3012 49.2916 53.3916 49.1107 53.3615 49.0203C52.8791 47.9349 52.1857 47.2415 52.0651 45.7945C52.0048 44.9503 52.0651 44.3474 51.9445 43.5334C51.5225 40.6693 49.5327 38.9811 47.9349 37.2626Z" fill="#E7D200"/>
<path fill-rule="evenodd" clip-rule="evenodd" d="M43.2318 42.0561C42.6289 40.7598 42.1164 39.6443 41.3325 38.5891C41.0914 38.2575 40.7597 37.9862 40.4884 37.6546C40.3377 37.4435 40.5788 37.7149 40.5788 37.6847C41.1818 38.1068 41.634 38.8002 42.0561 39.4634C42.5083 40.2473 42.8701 41.1215 43.2318 42.0561Z" fill="#E7D200"/>
<path fill-rule="evenodd" clip-rule="evenodd" d="M72.5354 39.584C72.656 39.8252 72.8972 39.9458 73.048 40.1267C72.3546 39.7649 71.5406 39.2222 70.606 39.0112C71.5406 39.795 72.234 41.001 72.8369 42.1164C73.1987 42.8098 74.2539 42.9606 75.2789 43.051C74.887 43.1716 74.284 43.2922 73.8318 43.1414C74.2237 43.7745 74.6759 44.3474 74.7965 45.2518C74.3142 44.4679 73.8921 43.654 73.1987 43.0811C73.7414 44.679 73.8921 46.5481 73.7112 48.5077C73.5303 50.5276 71.6612 52.4269 72.8068 54.5071C72.7465 54.8086 72.5354 54.9292 72.5354 55.291C71.9626 54.6277 71.5707 53.7534 71.7215 52.4872C71.842 51.3718 72.5957 50.2262 72.7766 48.8997C72.8972 47.9651 72.8671 47.0305 72.7766 46.1864C72.5053 43.4429 71.5707 41.1215 69.6111 39.8855C69.4302 39.1619 69.1589 38.5288 68.8574 37.8957C69.2493 37.956 69.4905 38.348 69.8824 38.5288C70.0332 38.5891 70.2141 38.559 70.395 38.6193C71.2089 38.8303 71.9023 39.2825 72.5053 39.6745C72.5354 39.4936 72.1435 39.4031 71.9928 39.2524C73.5303 38.7097 74.3745 40.0061 74.4951 41.3627C74.1031 41.1517 73.5906 41.2723 73.1685 41.212C72.2943 41.0914 71.9023 40.398 71.6913 39.6142C72.234 39.7649 72.8068 40.2473 73.3796 40.5487C73.1384 40.1267 72.8972 39.795 72.5354 39.584ZM73.1987 48.0555C73.2891 47.7239 73.4399 47.1209 73.47 46.6989C73.8016 42.9003 71.631 40.4583 69.9729 38.8002C71.9626 40.8201 74.1031 43.8047 73.1987 48.0555Z" fill="#32513A"/>
<path fill-rule="evenodd" clip-rule="evenodd" d="M60.9587 38.1369C59.5719 40.0362 58.366 42.4481 57.4616 44.9805C57.1601 45.8547 57.0395 46.8496 56.6476 47.6335C56.4064 48.0857 55.9843 48.5077 55.713 48.96C55.924 48.5379 56.2255 48.1761 56.4667 47.7541C56.7079 47.3018 56.8586 46.8195 57.0094 46.2768C57.8234 43.262 59.2704 40.3377 60.9587 38.1369Z" fill="#E7D200"/>
<path fill-rule="evenodd" clip-rule="evenodd" d="M69.9729 38.77C71.631 40.4282 73.8017 42.8701 73.47 46.6687C73.4399 47.0908 73.2891 47.6938 73.1987 48.0254C74.1031 43.8047 71.9627 40.8201 69.9729 38.77Z" fill="#32513A"/>
<path fill-rule="evenodd" clip-rule="evenodd" d="M53.1806 50.9196C52.3666 50.196 51.7033 49.2011 51.4923 47.8746C51.4019 47.3018 51.432 46.6989 51.3717 46.1261C51.1305 43.8348 50.4673 41.6944 49.4724 40.2473C49.4724 40.187 49.5026 40.1568 49.5026 40.2171C50.4371 41.5135 51.0702 43.4731 51.3717 45.4628C51.6129 47.2114 51.4622 49.0203 52.457 50.1357C52.6982 50.407 52.9695 50.6181 53.1806 50.9196Z" fill="#E7D200"/>
<path fill-rule="evenodd" clip-rule="evenodd" d="M46.1259 41.8451C46.2164 41.9958 46.1259 42.1466 46.1259 42.237C46.1259 42.4782 46.0958 42.8098 46.0958 42.5083C46.0657 42.3878 46.0958 42.1164 46.1259 41.8451Z" fill="#32513A"/>
<path fill-rule="evenodd" clip-rule="evenodd" d="M32.9816 41.9355C33.9464 43.3223 33.7353 45.493 34.8206 46.6989C36.0567 48.0555 37.956 48.5379 39.8553 49.1107C37.8053 48.6585 35.7251 47.9349 34.6096 46.5481C34.1272 45.9753 33.9765 45.0709 33.7956 44.2569C33.5846 43.3826 33.2831 42.6591 32.9816 41.9355Z" fill="#E7D200"/>
<path fill-rule="evenodd" clip-rule="evenodd" d="M50.0452 42.3576C50.1356 42.84 50.2864 43.2922 50.3165 43.7745C50.4673 45.4628 49.804 47.3621 50.0753 48.8695C50.1658 49.3519 50.4371 49.7438 50.4673 50.196C49.2915 48.1158 50.7386 44.8599 50.0452 42.3576Z" fill="#E7D200"/>
<path fill-rule="evenodd" clip-rule="evenodd" d="M43.8047 43.0811C43.7142 42.9606 43.7745 42.6892 43.6539 42.5988C43.6238 42.448 43.7142 42.2672 43.6841 42.5083C43.7745 42.7194 43.8348 42.8701 43.8047 43.0811Z" fill="#32513A"/>
<path fill-rule="evenodd" clip-rule="evenodd" d="M53.271 54.7785C53.0298 54.266 52.9695 53.7535 52.6077 53.4218C52.0952 52.9395 51.2209 53.0601 50.7084 52.5777C51.1004 53.5726 52.1857 54.1755 53.06 54.8086C52.7283 54.688 52.4269 54.4469 52.1254 54.2358C51.8239 54.0248 51.4923 53.8138 51.2209 53.5424C50.2562 52.5476 50.3467 50.8291 49.3819 49.8041C49.5628 50.4975 49.6231 51.3416 49.7437 52.1858C50.2864 56.0145 54.3262 56.5271 56.6475 58.6977C56.0144 58.3058 55.4115 57.8234 54.7482 57.4013C52.5173 56.0145 50.1055 55.2307 49.6533 51.9446C49.593 51.5828 49.6231 51.1909 49.5327 50.7387C49.2613 49.0504 47.9951 48.357 47.1209 47.1813C46.5179 45.9452 45.9752 44.679 46.0355 42.8098C46.126 42.8098 46.0657 43.2922 46.0657 43.4731C46.126 43.654 46.126 43.8349 46.1561 44.1665C46.3069 46.0356 47.362 47.2114 48.2665 48.3872C48.8694 48.9298 49.2312 49.5026 49.7136 50.1056C49.9849 50.4372 50.1356 50.7387 50.2562 51.1306C50.3768 51.5225 50.4673 52.2159 50.7084 52.5476C51.1305 53.0299 52.2761 52.9696 52.7886 53.4821C53.0901 53.8138 53.1203 54.2057 53.271 54.7785Z" fill="#E7D200"/>
<path fill-rule="evenodd" clip-rule="evenodd" d="M43.865 43.0811C43.9554 43.2319 43.9554 43.4429 44.076 43.5635C44.1062 43.7444 44.0157 43.8348 44.0459 43.5937C43.9856 43.5635 44.0459 43.4128 43.9253 43.4429C43.9253 43.2922 43.8348 43.262 43.865 43.0811Z" fill="#32513A"/>
<path fill-rule="evenodd" clip-rule="evenodd" d="M52.9997 59.2102C53.0299 59.0896 52.9394 59.1197 52.9696 59.0293C53.0299 59.0293 53.1203 59.2102 52.9997 59.2102C53.1505 59.2102 53.1806 59.3911 53.3615 59.4514C52.5475 59.0896 51.7938 58.3359 51.1306 57.5822C50.2864 56.5873 49.3217 55.7432 49.1408 54.1454C48.9901 52.7887 49.2313 51.6733 49.0202 50.5879C48.6886 48.9901 47.4827 48.2063 46.518 47.2114C46.4878 47.2114 46.3672 47.121 46.3672 47.2114C46.3371 47.1813 46.3371 47.0607 46.2466 46.9702C45.3724 46.1864 44.6488 45.2518 44.1966 44.076C44.1966 44.0459 44.1966 44.0157 44.1966 43.9856C44.7393 45.1613 45.4327 46.2165 46.4577 46.9401C46.6084 47.2114 46.7893 47.4224 47.1209 47.5129C47.4224 47.9651 47.8143 48.3269 48.1761 48.7489C48.6283 49.2916 49.0202 49.8342 49.1408 50.7387C49.3217 51.9446 49.0805 53.0902 49.2614 54.2961C49.4121 55.4116 50.1055 56.316 50.7688 57.0998C51.4622 57.9741 52.246 58.6977 52.9997 59.2102Z" fill="#E7D200"/>
<path fill-rule="evenodd" clip-rule="evenodd" d="M27.7962 51.9747C27.4947 51.2813 27.3741 50.0453 27.5249 49.1408C27.9469 46.729 30.2382 45.3422 33.0419 45.4025C33.1022 45.4025 33.1323 45.4327 33.072 45.4327C33.0117 45.4327 32.9816 45.4327 32.9213 45.4327C32.8309 45.4327 32.7103 45.4327 32.6198 45.4327C32.4088 45.4327 32.1978 45.4327 31.9867 45.4327C29.4242 45.9452 27.2837 47.3621 27.4947 50.5276C27.5851 51.0703 27.7359 51.4321 27.7962 51.9747Z" fill="#32513A"/>
<path fill-rule="evenodd" clip-rule="evenodd" d="M67.6213 46.0658C67.6816 45.8246 68.164 45.704 68.4353 45.5533C69.2795 45.9452 70.7567 46.0658 71.9325 46.0658C71.8119 46.0658 71.6913 46.0658 71.5707 46.0658C71.1185 46.1562 70.1839 46.1562 69.5809 46.0356C68.9177 45.8849 68.2243 45.3422 67.6213 46.0658Z" fill="#E7D200"/>
<path fill-rule="evenodd" clip-rule="evenodd" d="M67.5008 45.8246C67.6214 45.915 67.4405 46.0356 67.4104 46.1261C67.4706 46.1261 67.4706 46.1261 67.5008 46.0959C66.3552 47.4526 64.8478 48.7489 62.9485 49.4423C64.1845 48.8695 65.4206 48.0555 66.4155 47.1812C66.8375 46.7893 67.2596 46.3974 67.5008 45.8246Z" fill="#E7D200"/>
<path fill-rule="evenodd" clip-rule="evenodd" d="M39.2222 47.1511C39.1016 46.9702 39.2825 47.0908 39.2523 47.2717C40.006 48.5982 42.659 48.2666 44.2267 48.6283C42.3274 48.357 39.8553 48.6886 39.2222 47.1511Z" fill="#E7D200"/>
<path fill-rule="evenodd" clip-rule="evenodd" d="M63.0691 47.3923C62.5566 48.357 61.4411 49.5026 59.6925 48.96C59.5719 48.9298 59.391 49.0203 59.3307 48.9298C60.0844 48.8997 60.7175 49.1107 61.2904 48.96C62.1646 48.7489 62.5264 47.9048 63.0691 47.3923Z" fill="#E7D200"/>
<path fill-rule="evenodd" clip-rule="evenodd" d="M44.7392 47.7842C44.9502 47.6636 45.1613 47.8746 45.4025 47.8143C46.3672 48.3871 47.2716 49.0202 47.6635 50.1659C47.0606 48.9901 46.1863 48.0857 44.7392 47.7842Z" fill="#E7D200"/>
<path fill-rule="evenodd" clip-rule="evenodd" d="M48.4172 47.8746H48.3871C48.5378 47.8445 49.0805 48.5379 49.2312 48.7791C50.0754 49.9247 50.618 51.8541 52.1857 52.0953C52.4269 52.1255 51.8541 52.1255 51.7636 52.0953C51.3717 51.9747 50.9798 51.5526 50.7085 51.2512C49.8945 50.2563 49.3518 48.7188 48.4172 47.8746Z" fill="#32513A"/>
<path fill-rule="evenodd" clip-rule="evenodd" d="M60.4462 47.8746C59.391 48.2063 57.9741 48.8394 56.8285 48.2666C57.0998 48.2063 57.341 48.4173 57.6123 48.4475C58.5168 48.568 59.5116 47.9952 60.2955 47.8746C60.3558 47.8746 60.3859 47.8746 60.4462 47.8746Z" fill="#E7D200"/>
<path fill-rule="evenodd" clip-rule="evenodd" d="M53.6026 47.9952C53.5122 47.9952 53.5423 47.9349 53.6026 47.9651C54.085 48.146 54.5372 48.3872 54.6578 48.8997C54.7784 49.5026 54.3865 49.9247 54.296 50.4673C54.296 50.6482 54.2357 50.4674 54.2659 50.3769C54.3865 49.8644 54.6879 49.382 54.5372 48.8092C54.3865 48.357 53.9644 48.2364 53.6026 47.9952Z" fill="#E7D200"/>
<path fill-rule="evenodd" clip-rule="evenodd" d="M69.0685 50.1056C68.7368 48.8092 67.5611 48.3269 66.114 48.146C65.9632 48.146 65.8427 48.146 65.6919 48.146C64.9684 48.1158 66.2647 48.0857 66.3853 48.1158C67.5912 48.2364 68.9177 48.8394 69.0685 50.1056Z" fill="#E7D200"/>
<path fill-rule="evenodd" clip-rule="evenodd" d="M44.3171 48.7188C44.4679 48.568 44.7091 48.7489 44.9804 48.8996C44.7392 49.0202 44.6186 48.6585 44.3171 48.7188Z" fill="#32513A"/>
<path fill-rule="evenodd" clip-rule="evenodd" d="M70.5457 49.171C70.6361 49.2011 70.606 49.1107 70.6361 49.0504C70.7266 48.8997 70.606 49.2916 70.7266 49.2916C70.6964 49.3519 70.5155 49.2614 70.5457 49.171Z" fill="#32513A"/>
<path fill-rule="evenodd" clip-rule="evenodd" d="M39.8854 49.171C40.006 49.0504 40.1568 49.2011 40.3075 49.171C40.3377 49.2916 40.0362 49.1408 39.8854 49.171Z" fill="#32513A"/>
<path fill-rule="evenodd" clip-rule="evenodd" d="M30.1175 54.6579C30.2381 53.9645 30.419 53.1505 30.3587 52.3063C30.2381 50.9798 29.394 50.1659 29.0322 49.1408C29.3337 49.9247 30.1477 50.7085 30.3587 51.6732C30.5396 52.7284 30.3587 53.7534 30.1175 54.6579Z" fill="#32513A"/>
<path fill-rule="evenodd" clip-rule="evenodd" d="M50.0754 54.1152C50.0754 54.0851 50.0754 54.0248 50.0754 53.9946C50.4673 54.8991 50.9798 55.5623 51.6732 56.1653C51.7938 56.2557 51.9445 56.3763 52.0651 56.4667C52.5776 57.0094 52.6078 57.9138 52.8188 58.758C52.4872 58.0043 52.5776 57.1601 52.1254 56.6175C51.8239 56.2256 51.2511 55.9542 50.9195 55.5322C50.5577 55.1402 50.3769 54.6579 50.0754 54.1152Z" fill="#E7D200"/>
<path fill-rule="evenodd" clip-rule="evenodd" d="M48.779 56.3462C48.8695 57.1601 49.5026 58.0043 49.171 59.1197C49.0202 59.6021 48.5981 60.1146 48.4776 60.6271C48.0856 62.1948 48.6584 63.6419 49.1107 65.0287C48.4776 63.9132 48.1459 61.9536 48.4474 60.386C48.6584 59.9337 49.1107 59.3911 49.2011 58.6977C49.2614 57.8837 48.779 57.1601 48.779 56.3462Z" fill="#E7D200"/>
<path fill-rule="evenodd" clip-rule="evenodd" d="M49.1107 57.1903C49.5327 57.6425 50.196 57.9138 50.3166 58.6977C50.4372 59.4514 50.1357 60.2352 50.1357 61.0492C50.1357 61.1698 50.1357 61.2904 50.1357 61.411C50.1357 61.622 50.0754 61.4713 50.1055 61.3205C50.0151 60.3256 50.3769 59.4212 50.2261 58.6072C50.0754 57.8837 49.4423 57.7329 49.1107 57.1903Z" fill="#E7D200"/>
<path fill-rule="evenodd" clip-rule="evenodd" d="M56.6777 58.758C56.6174 58.6675 56.9189 58.8183 56.9189 58.9389C57.1902 59.1197 56.7079 58.8786 56.6777 58.758Z" fill="#32513A"/>
<path fill-rule="evenodd" clip-rule="evenodd" d="M51.4923 59.1197C51.432 58.9388 51.643 59.3609 51.7335 59.4815C52.3063 60.2955 53.2107 61.3507 52.6681 62.8279C52.6681 62.858 52.5173 63.2198 52.5173 63.0088C52.5776 62.9485 52.5475 62.8279 52.6379 62.7676C53.06 61.1095 52.0952 60.0845 51.4923 59.1197Z" fill="#E7D200"/>
<path fill-rule="evenodd" clip-rule="evenodd" d="M48.3268 60.386C47.7239 61.3507 46.6084 61.6823 45.915 62.4963C45.5231 62.9485 45.3121 63.5515 45.0709 64.2147C45.0106 64.3956 45.0106 64.5765 45.0407 64.2147C45.0407 64.1243 45.0709 64.0037 45.0709 63.9735C45.4327 62.225 47.1511 61.6522 48.3268 60.386Z" fill="#32513A"/>
<path fill-rule="evenodd" clip-rule="evenodd" d="M45.0708 31.9567C45.1613 32.3184 45.4025 32.5295 45.5532 32.8008C45.1914 32.5596 45.0407 32.1074 44.89 31.6853C44.9804 31.625 45.101 31.8662 45.1914 31.9265C45.2216 32.0471 45.101 31.9868 45.0708 31.9567Z" fill="#32513A"/>
<path fill-rule="evenodd" clip-rule="evenodd" d="M54.5071 34.6699C52.5776 35.5442 50.5577 36.3281 49.4121 37.9862C49.0202 37.8053 48.8393 37.4435 48.4775 37.2325C49.6533 35.8758 51.7636 34.8508 53.4519 34.067C53.7534 33.9464 54.2056 34.6096 54.5071 34.6699ZM52.9394 34.489C52.9696 34.489 53.2409 34.4287 53.06 34.3986C52.3063 34.7302 51.6732 35.2126 51.0702 35.7251C50.4673 36.2376 49.8945 36.7803 49.6232 37.5038C50.3768 36.2376 51.6732 35.2126 52.9394 34.489Z" fill="#32513A"/>
<path fill-rule="evenodd" clip-rule="evenodd" d="M45.2518 35.5442C45.0106 35.906 44.7091 36.2075 44.4679 36.5692C42.237 35.695 39.9458 36.5994 38.7097 38.0766C37.6545 39.3127 36.8707 40.8502 36.8104 42.7797C36.5692 42.1164 36.5391 41.4532 36.6597 40.7899C36.9008 39.3127 37.7751 37.8053 38.8303 36.8104C40.3075 35.4538 42.7796 34.7302 45.2518 35.5442ZM43.5032 35.5141C43.5936 35.4839 43.7745 35.5744 43.8047 35.4839C41.3627 35.5141 39.6141 36.3582 38.559 37.745C38.3479 38.0163 38.1369 38.348 38.0465 38.7097C39.0413 36.8104 40.82 35.695 43.5032 35.5141Z" fill="#32513A"/>
<path fill-rule="evenodd" clip-rule="evenodd" d="M67.742 39.8252C67.742 39.8554 67.7721 39.8554 67.7721 39.9156C67.953 39.7649 68.1942 40.4282 68.2846 40.7296C67.8324 40.398 67.3199 40.1568 66.5059 40.187C66.9581 40.5488 67.6515 40.7296 67.9228 41.212C66.3853 41.7547 65.3904 40.398 65.8728 38.6796C66.1441 39.3428 67.5912 39.1017 67.742 39.8252Z" fill="#32513A"/>
<path fill-rule="evenodd" clip-rule="evenodd" d="M65.7522 40.9407C65.7824 40.9708 65.8125 40.9708 65.8728 40.9708C66.0838 41.423 66.536 41.8752 66.4456 42.5686C66.3853 43.3525 65.6919 43.7745 65.089 44.0459C65.089 43.4128 64.4257 42.7797 64.697 41.8752C64.7875 41.5738 65.0588 41.3929 65.2095 41.0914C65.4206 41.6642 65.3 42.4782 65.3301 43.0811C65.7522 42.6892 65.8728 41.6642 65.7522 40.9407Z" fill="#32513A"/>
<path fill-rule="evenodd" clip-rule="evenodd" d="M63.6418 38.1068C63.9132 38.0766 64.1845 37.9862 64.486 37.9862C65.2397 39.1016 66.114 40.9407 65.511 42.5385C65.2095 42.3274 65.5713 41.8149 65.4206 41.7848C65.3 40.1267 64.5161 39.0715 63.6418 38.1068Z" fill="#32513A"/>
<path fill-rule="evenodd" clip-rule="evenodd" d="M29.6051 47.543C29.6352 47.543 29.6352 47.5732 29.6352 47.5732C29.3036 50.196 31.4742 52.2461 30.3286 54.6277C29.9065 55.502 28.7609 56.919 27.2535 56.4064C28.2786 56.1351 28.9117 55.5623 29.394 54.8388C29.8161 54.2358 30.1176 53.06 29.8764 52.0049C29.7558 51.4924 29.4543 50.9196 29.2433 50.3769C29.0323 49.8644 28.6705 49.171 28.7308 48.6585C28.7911 48.2666 29.4242 47.7239 29.6051 47.543ZM30.3286 51.7034C30.1176 50.7387 29.3036 49.9548 29.0021 49.171C29.3639 50.1659 30.208 51.01 30.3286 52.3365C30.3889 53.1806 30.208 53.9645 30.0874 54.688C30.3588 53.7534 30.5396 52.7284 30.3286 51.7034Z" fill="#32513A"/>
<path fill-rule="evenodd" clip-rule="evenodd" d="M41.3326 49.985C41.8752 50.2262 42.3576 50.2865 42.5083 50.7688C42.7194 51.4321 42.0863 52.4872 42.5988 52.9998C41.1517 53.1505 39.9458 51.613 40.7296 50.2262C40.6693 50.9497 40.9406 51.5527 41.423 51.8541C41.2421 51.4019 40.8803 50.5578 41.3326 49.985Z" fill="#32513A"/>
</g>
<defs>
<clipPath id="clip0_75_2">
<rect width="100" height="99.9699" fill="white"/>
</clipPath>
</defs>
</svg>
